<svg width="84" height="84" viewBox="0 0 84 84" fill="none" xmlns="http://www.w3.org/2000/svg">
<path d="M24.5 54.5C24.5 55.8261 25.0268 57.0979 25.9645 58.0355C26.9021 58.9732 28.1739 59.5 29.5 59.5C30.8261 59.5 32.0979 58.9732 33.0355 58.0355C33.9732 57.0979 34.5 55.8261 34.5 54.5M24.5 54.5C24.5 53.1739 25.0268 51.9021 25.9645 50.9645C26.9021 50.0268 28.1739 49.5 29.5 49.5C30.8261 49.5 32.0979 50.0268 33.0355 50.9645C33.9732 51.9021 34.5 53.1739 34.5 54.5M24.5 54.5H19.5V39.5M34.5 54.5H49.5M49.5 54.5C49.5 55.8261 50.0268 57.0979 50.9645 58.0355C51.9021 58.9732 53.1739 59.5 54.5 59.5C55.8261 59.5 57.0979 58.9732 58.0355 58.0355C58.9732 57.0979 59.5 55.8261 59.5 54.5M49.5 54.5C49.5 53.1739 50.0268 51.9021 50.9645 50.9645C51.9021 50.0268 53.1739 49.5 54.5 49.5C55.8261 49.5 57.0979 50.0268 58.0355 50.9645C58.9732 51.9021 59.5 53.1739 59.5 54.5M59.5 54.5H64.5V44.5C64.5 43.1739 63.9732 41.9021 63.0355 40.9645C62.0979 40.0268 60.8261 39.5 59.5 39.5H57M19.5 39.5L24.5 27H47L57 39.5M19.5 39.5H57M42 39.5V27" stroke="#3B3E44" stroke-width="2" stroke-linecap="round" stroke-linejoin="round"/>
</svg>
