<svg width="84" height="84" viewBox="0 0 84 84" fill="none" xmlns="http://www.w3.org/2000/svg">
<path d="M58.9303 56.3859C57.675 56.3861 56.4478 56.014 55.4039 55.3167C54.3601 54.6194 53.5464 53.6282 53.0659 52.4685C52.5854 51.3088 52.4596 50.0326 52.7044 48.8014C52.9492 47.5701 53.5536 46.4392 54.4411 45.5514C55.3287 44.6637 56.4596 44.0591 57.6908 43.8142C58.922 43.5692 60.1982 43.6948 61.358 44.1752C62.5178 44.6555 63.5091 45.469 64.2066 46.5128C64.904 47.5565 65.2763 48.7837 65.2763 50.039C65.2743 51.7215 64.6051 53.3346 63.4155 54.5244C62.2258 55.7142 60.6129 56.3837 58.9303 56.3859ZM58.9303 45.5671C58.0458 45.567 57.1812 45.8291 56.4456 46.3203C55.7101 46.8116 55.1368 47.5099 54.7982 48.3271C54.4596 49.1442 54.3709 50.0433 54.5433 50.9109C54.7158 51.7784 55.1416 52.5753 55.767 53.2008C56.3923 53.8263 57.1891 54.2523 58.0566 54.4249C58.9241 54.5975 59.8233 54.509 60.6405 54.1706C61.4577 53.8321 62.1561 53.259 62.6476 52.5236C63.139 51.7881 63.4013 50.9235 63.4013 50.039C63.3998 48.8536 62.9283 47.7172 62.0902 46.8789C61.2521 46.0406 60.1157 45.5689 58.9303 45.5671Z" fill="#3B3E44"/>
<path d="M55.2881 54.7219H57.1631V63.9488H55.2881V54.7219Z" fill="#3B3E44"/>
<path d="M60.6965 54.7219H62.5715V63.9488H60.6965V54.7219Z" fill="#3B3E44"/>
<path d="M70.4935 70.2966H39.2522V66.9919C39.2537 65.9367 39.6736 64.9252 40.4198 64.1791C41.166 63.4331 42.1776 63.0134 43.2328 63.0122H66.6563C67.6726 63.0144 68.6467 63.4191 69.3654 64.1377C70.0842 64.8563 70.4891 65.8302 70.4916 66.8466L70.4935 70.2966ZM41.1272 68.4216H68.6185V66.8438C68.6177 66.3242 68.4109 65.8261 68.0434 65.4588C67.6759 65.0915 67.1777 64.8849 66.6581 64.8844H43.2328C42.6747 64.8849 42.1395 65.1068 41.7448 65.5013C41.3501 65.8959 41.1279 66.431 41.1272 66.9891V68.4216Z" fill="#3B3E44"/>
<path d="M45.9722 56.4056C43.3633 56.4047 40.7802 55.8888 38.3712 54.8873C35.9622 53.8858 33.7747 52.4185 31.934 50.5697C31.7583 50.3939 31.6595 50.1554 31.6595 49.9068C31.6595 49.6583 31.7583 49.4198 31.934 49.244L58.7118 22.4653C58.8877 22.2895 59.1261 22.1908 59.3747 22.1908C59.6233 22.1908 59.8617 22.2895 60.0375 22.4653C63.1156 25.5495 65.0959 29.5591 65.6742 33.878C66.2524 38.1969 65.3965 42.5862 63.2381 46.3715L61.6106 45.4397C63.4857 42.1514 64.2774 38.3562 63.8736 34.5925C63.4697 30.8288 61.8907 27.288 59.3606 24.4725L33.9375 49.89C36.6478 52.3437 40.0432 53.9106 43.6689 54.381C47.2945 54.8513 50.9773 54.2025 54.224 52.5215L55.0847 54.1875C52.2676 55.6432 49.1431 56.4037 45.9722 56.4056Z" fill="#3B3E44"/>
<path d="M37.6995 31.7109L39.5566 31.4464L41.0428 41.8813L39.1856 42.1458L37.6995 31.7109Z" fill="#3B3E44"/>
<path d="M39.4286 31.3878L40.7542 30.0622L46.4067 35.7147L45.0811 37.0403L39.4286 31.3878Z" fill="#3B3E44"/>
<path d="M40.749 30.3043L41.107 28.464L51.104 30.4084L50.7461 32.2488L40.749 30.3043Z" fill="#3B3E44"/>
<path d="M37.7813 32.625C36.9469 32.625 36.1312 32.3776 35.4374 31.914C34.7437 31.4505 34.2029 30.7916 33.8836 30.0207C33.5643 29.2498 33.4808 28.4016 33.6436 27.5832C33.8063 26.7649 34.2081 26.0131 34.7981 25.4231C35.3881 24.8331 36.1399 24.4313 36.9582 24.2686C37.7766 24.1058 38.6248 24.1893 39.3957 24.5086C40.1666 24.8279 40.8255 25.3687 41.289 26.0624C41.7526 26.7562 42 27.5719 42 28.4063C41.9988 29.5248 41.5539 30.5971 40.763 31.388C39.9721 32.1789 38.8998 32.6238 37.7813 32.625ZM37.7813 26.0625C37.3177 26.0625 36.8646 26.2 36.4791 26.4575C36.0937 26.715 35.7933 27.0811 35.6159 27.5093C35.4385 27.9376 35.3921 28.4089 35.4825 28.8635C35.573 29.3181 35.7962 29.7358 36.124 30.0635C36.4517 30.3913 36.8694 30.6145 37.324 30.705C37.7787 30.7954 38.2499 30.749 38.6782 30.5716C39.1064 30.3942 39.4725 30.0938 39.73 29.7084C39.9875 29.3229 40.125 28.8698 40.125 28.4063C40.125 27.7847 39.8781 27.1885 39.4385 26.749C38.999 26.3094 38.4029 26.0625 37.7813 26.0625Z" fill="#3B3E44"/>
<path d="M23.1618 27.029C22.9225 27.0295 22.692 26.9383 22.5177 26.7743C22.3434 26.6103 22.2384 26.3858 22.2243 26.1469C22.0367 22.9205 23.1371 19.7517 25.2838 17.3359C27.4304 14.9201 30.448 13.4549 33.674 13.2619C33.7971 13.2547 33.9204 13.2718 34.0369 13.3122C34.1534 13.3527 34.2608 13.4157 34.353 13.4977C34.4451 13.5796 34.5202 13.6789 34.574 13.7899C34.6278 13.9009 34.6591 14.0214 34.6663 14.1445C34.6736 14.2676 34.6564 14.391 34.616 14.5075C34.5755 14.624 34.5125 14.7313 34.4305 14.8235C34.3486 14.9156 34.2493 14.9907 34.1383 15.0445C34.0273 15.0983 33.9068 15.1297 33.7837 15.1369C31.0549 15.3021 28.5029 16.5426 26.6874 18.5865C24.8718 20.6303 23.9407 23.3107 24.0984 26.04C24.113 26.2881 24.0285 26.5319 23.8634 26.7177C23.6983 26.9035 23.4662 27.0162 23.2181 27.0309L23.1618 27.029Z" fill="#3B3E44"/>
<path d="M26.9063 26.8126C26.6669 26.813 26.4365 26.7218 26.2622 26.5578C26.0879 26.3938 25.9829 26.1693 25.9688 25.9304C25.8386 23.697 26.6 21.5033 28.0858 19.8308C29.5716 18.1584 31.6604 17.1439 33.8935 17.0101C34.1421 16.9954 34.3864 17.0801 34.5726 17.2455C34.7588 17.411 34.8716 17.6436 34.8863 17.8922C34.901 18.1409 34.8163 18.3852 34.6508 18.5714C34.4854 18.7575 34.2527 18.8704 34.0041 18.8851C32.2677 18.9901 30.6437 19.7794 29.4883 21.0798C28.3328 22.3803 27.7401 24.0858 27.84 25.8226C27.8547 26.0705 27.7702 26.3142 27.6054 26.5C27.4405 26.6858 27.2086 26.7985 26.9607 26.8135L26.9063 26.8126Z" fill="#3B3E44"/>
<path d="M30.6497 26.5866C30.4104 26.587 30.1799 26.4959 30.0056 26.3319C29.8313 26.1678 29.7264 25.9434 29.7122 25.7044C29.676 25.0897 29.7612 24.4738 29.963 23.892C30.1649 23.3102 30.4794 22.7738 30.8886 22.3136C31.2978 21.8534 31.7936 21.4783 32.3478 21.2098C32.902 20.9413 33.5037 20.7847 34.1185 20.7488C34.3671 20.7343 34.6114 20.8191 34.7975 20.9846C34.9836 21.1501 35.0963 21.3828 35.1108 21.6315C35.1254 21.8801 35.0406 22.1243 34.875 22.3104C34.7095 22.4965 34.4768 22.6093 34.2282 22.6238C33.4842 22.6678 32.788 23.0053 32.2927 23.5621C31.7973 24.119 31.5433 24.8497 31.5863 25.5938C31.6009 25.8419 31.5164 26.0857 31.3513 26.2715C31.1862 26.4573 30.9541 26.57 30.706 26.5847C30.6872 26.5866 30.6676 26.5866 30.6497 26.5866Z" fill="#3B3E44"/>
</svg>
