<svg width="84" height="84" viewBox="0 0 84 84" fill="none" xmlns="http://www.w3.org/2000/svg">
<path d="M19.5 42H22M42 19.5V22M62 42H64.5M26 26L27.75 27.75M58 26L56.25 27.75M36.25 54.5H47.75M34.5 52C32.4012 50.4259 30.8508 48.2313 30.0686 45.7271C29.2863 43.2229 29.3118 40.5361 30.1415 38.0472C30.9711 35.5583 32.5628 33.3935 34.6911 31.8595C36.8194 30.3255 39.3765 29.5 42 29.5C44.6235 29.5 47.1806 30.3255 49.3089 31.8595C51.4372 33.3935 53.0289 35.5583 53.8585 38.0472C54.6882 40.5361 54.7137 43.2229 53.9314 45.7271C53.1492 48.2313 51.5988 50.4259 49.5 52C48.5239 52.9662 47.789 54.1486 47.3547 55.4516C46.9204 56.7545 46.7989 58.1414 47 59.5C47 60.8261 46.4732 62.0979 45.5355 63.0355C44.5979 63.9732 43.3261 64.5 42 64.5C40.6739 64.5 39.4021 63.9732 38.4645 63.0355C37.5268 62.0979 37 60.8261 37 59.5C37.2011 58.1414 37.0796 56.7545 36.6453 55.4516C36.211 54.1486 35.4761 52.9662 34.5 52Z" stroke="#3B3E44" stroke-width="2" stroke-linecap="round" stroke-linejoin="round"/>
</svg>
