<svg width="510" height="340" viewBox="0 0 510 340" fill="none" xmlns="http://www.w3.org/2000/svg">
<path d="M462.441 220.959C462.441 220.959 478.91 120.877 419.723 67.0956C367.472 19.618 287.354 3.7808 224.563 47.6884C202.178 63.3284 175.603 79.3492 149.083 89.3112C119.36 100.477 86.2172 103.836 60.0712 147.268C33.9252 190.699 51.9112 259.406 90.5488 286.606C129.186 313.806 197.132 311.039 255.918 306.326C314.704 301.614 436.934 344.699 462.441 220.959Z" fill="#0666EB"/>
<path opacity="0.9" d="M462.441 220.959C462.441 220.959 478.91 120.877 419.723 67.0956C367.472 19.618 287.354 3.7808 224.563 47.6884C202.178 63.3284 175.603 79.3492 149.083 89.3112C119.36 100.477 86.2172 103.836 60.0712 147.268C33.9252 190.699 51.9112 259.406 90.5488 286.606C129.186 313.806 197.132 311.039 255.918 306.326C314.704 301.614 436.934 344.699 462.441 220.959Z" fill="white"/>
<path d="M235.946 161.153H65.8104V288.347H235.946V161.153Z" stroke="#ABABAB" stroke-miterlimit="10"/>
<path d="M235.946 200.777H65.8104V206.57H235.946V200.777Z" stroke="#ABABAB" stroke-miterlimit="10"/>
<path d="M72.7601 238.496C72.7601 238.496 81.6001 227.283 94.5201 227.963C107.44 228.643 109.813 238.843 109.813 238.843H68.6801L72.7601 238.496Z" stroke="#ABABAB" stroke-miterlimit="10"/>
<path d="M84.0004 239.856C84.0004 239.856 86.36 227.963 94.52 227.963" stroke="#ABABAB" stroke-miterlimit="10"/>
<path d="M96.5601 239.176C96.5601 239.176 97.5801 230.003 104.72 231.363" stroke="#ABABAB" stroke-miterlimit="10"/>
<path d="M131.58 238.496C131.58 238.496 140.42 227.283 153.34 227.963C166.26 228.643 168.633 238.843 168.633 238.843H127.5L131.58 238.496Z" stroke="#ABABAB" stroke-miterlimit="10"/>
<path d="M142.8 239.856C142.8 239.856 145.18 227.963 153.34 227.963" stroke="#ABABAB" stroke-miterlimit="10"/>
<path d="M155.373 239.176C155.373 239.176 156.393 230.003 163.533 231.363" stroke="#ABABAB" stroke-miterlimit="10"/>
<path d="M190.4 238.496C190.4 238.496 199.24 227.283 212.16 227.963C225.08 228.643 227.453 238.843 227.453 238.843H186.32L190.4 238.496Z" stroke="#ABABAB" stroke-miterlimit="10"/>
<path d="M201.593 239.856C201.593 239.856 204 227.963 212.16 227.963" stroke="#ABABAB" stroke-miterlimit="10"/>
<path d="M214.2 239.176C214.2 239.176 215.22 230.003 222.36 231.363" stroke="#ABABAB" stroke-miterlimit="10"/>
<path d="M235.946 238.85H65.8104V244.644H235.946V238.85Z" stroke="#ABABAB" stroke-miterlimit="10"/>
<path d="M235.946 161.153H65.8104V166.933H235.946V161.153Z" stroke="#ABABAB" stroke-miterlimit="10"/>
<path d="M235.946 271.497H65.8104V288.354H235.946V271.497Z" stroke="#ABABAB" stroke-miterlimit="10"/>
<path d="M98.2736 180.724H75.1604V201.117H98.2736V180.724Z" stroke="#ABABAB" stroke-miterlimit="10"/>
<path d="M98.2736 180.724H75.1604V183.722H98.2736V180.724Z" stroke="#ABABAB" stroke-miterlimit="10"/>
<path d="M190.04 180.724H119.007V201.117H190.04V180.724Z" stroke="#ABABAB" stroke-miterlimit="10"/>
<path d="M190.04 180.724H119.007V183.722H190.04V180.724Z" stroke="#ABABAB" stroke-miterlimit="10"/>
<path d="M171.346 180.724H151.973V201.117H171.346V180.724Z" stroke="#ABABAB" stroke-miterlimit="10"/>
<path d="M171.346 180.724H151.973V183.722H171.346V180.724Z" stroke="#ABABAB" stroke-miterlimit="10"/>
<path d="M361.332 56.0456H250.587V204.646H361.332V56.0456Z" stroke="#ABABAB" stroke-miterlimit="10"/>
<path d="M263.201 93.8944H302.233" stroke="#ABABAB" stroke-miterlimit="10"/>
<path d="M263.201 110.718H302.233" stroke="#ABABAB" stroke-miterlimit="10"/>
<path d="M263.201 127.541H302.233" stroke="#ABABAB" stroke-miterlimit="10"/>
<path d="M263.201 144.364H302.233" stroke="#ABABAB" stroke-miterlimit="10"/>
<path d="M263.201 161.187H302.233" stroke="#ABABAB" stroke-miterlimit="10"/>
<path d="M263.201 178.01H302.233" stroke="#ABABAB" stroke-miterlimit="10"/>
<path d="M310.386 93.8944H349.418" stroke="#ABABAB" stroke-miterlimit="10"/>
<path d="M310.386 110.718H349.418" stroke="#ABABAB" stroke-miterlimit="10"/>
<path d="M310.386 127.541H349.418" stroke="#ABABAB" stroke-miterlimit="10"/>
<path d="M310.386 144.364H349.418" stroke="#ABABAB" stroke-miterlimit="10"/>
<path d="M310.386 161.187H349.418" stroke="#ABABAB" stroke-miterlimit="10"/>
<path d="M310.386 178.01H349.418" stroke="#ABABAB" stroke-miterlimit="10"/>
<path d="M287.273 83.4088C286.319 83.4533 285.373 83.2169 284.553 82.7288C283.896 82.308 283.404 81.6742 283.159 80.9336C282.874 80.0744 282.738 79.1729 282.758 78.268V72.76C282.738 71.8373 282.874 70.9178 283.159 70.04C283.403 69.3043 283.896 68.6766 284.553 68.2652C285.383 67.8057 286.325 67.589 287.273 67.6396C288.17 67.5931 289.063 67.783 289.864 68.1904C290.485 68.5341 290.967 69.0853 291.224 69.7476C291.495 70.4947 291.626 71.2853 291.611 72.08V73.372H288.578V71.9304C288.58 71.5985 288.559 71.2668 288.517 70.9376C288.494 70.6575 288.385 70.3914 288.204 70.176C288.087 70.0664 287.947 69.9836 287.794 69.9331C287.642 69.8827 287.48 69.8658 287.32 69.8836C287.156 69.8696 286.991 69.8888 286.834 69.9402C286.678 69.9916 286.533 70.0741 286.409 70.1828C286.213 70.4042 286.088 70.6787 286.049 70.9716C285.998 71.3274 285.973 71.6865 285.974 72.046V79.0296C285.967 79.4088 286.004 79.7875 286.083 80.1584C286.128 80.4426 286.266 80.7036 286.477 80.8996C286.718 81.0852 287.017 81.1771 287.32 81.158C287.477 81.1746 287.635 81.1571 287.784 81.1066C287.933 81.0561 288.07 80.9739 288.184 80.8656C288.368 80.6408 288.482 80.3662 288.51 80.0768C288.554 79.7295 288.577 79.3797 288.578 79.0296V77.52H291.611V78.7916C291.628 79.6013 291.499 80.4075 291.23 81.1716C290.993 81.8479 290.532 82.4233 289.925 82.8036C289.117 83.2561 288.197 83.4662 287.273 83.4088Z" fill="#4D515A"/>
<path d="M296.8 83.3884C296.096 83.4105 295.397 83.2661 294.76 82.9668C294.217 82.696 293.774 82.2604 293.495 81.7224C293.194 81.0855 293.05 80.3862 293.073 79.6824V75.7316C293.049 75.0277 293.193 74.3281 293.495 73.6916C293.774 73.1536 294.217 72.7179 294.76 72.4472C295.393 72.1648 296.079 72.0189 296.772 72.0189C297.466 72.0189 298.152 72.1648 298.785 72.4472C299.328 72.7194 299.773 73.1545 300.057 73.6916C300.37 74.3247 300.519 75.0259 300.492 75.7316V79.6824C300.518 80.3879 300.369 81.0889 300.057 81.7224C299.773 82.2595 299.328 82.6945 298.785 82.9668C298.164 83.2578 297.485 83.4021 296.8 83.3884ZM296.8 81.4572C296.901 81.4637 297.002 81.449 297.097 81.4138C297.192 81.3787 297.278 81.3239 297.35 81.2532C297.488 81.0996 297.573 80.907 297.595 80.7024C297.636 80.4369 297.654 80.1685 297.65 79.9V75.548C297.655 75.2749 297.636 75.0019 297.595 74.732C297.568 74.5289 297.483 74.3379 297.35 74.1812C297.278 74.1104 297.192 74.0557 297.097 74.0205C297.002 73.9854 296.901 73.9706 296.8 73.9772C296.698 73.9678 296.596 73.9813 296.501 74.0166C296.406 74.0519 296.32 74.1082 296.249 74.1812C296.115 74.3384 296.026 74.5286 295.99 74.732C295.944 75.0015 295.921 75.2745 295.922 75.548V79.9C295.922 80.1689 295.945 80.4374 295.99 80.7024C296.02 80.9075 296.11 81.0992 296.249 81.2532C296.322 81.3291 296.411 81.387 296.51 81.4224C296.61 81.4578 296.716 81.4697 296.82 81.4572H296.8Z" fill="#4D515A"/>
<path d="M302.702 83.2048V74.1812H301.6V72.2296H302.702V71.468C302.692 70.8924 302.76 70.3181 302.906 69.7612C303.023 69.2995 303.309 68.8988 303.708 68.6392C304.28 68.3364 304.926 68.1998 305.572 68.2448H306.286C306.503 68.2448 306.755 68.2856 307.034 68.3264V70.448L306.7 70.38C306.583 70.3735 306.465 70.3735 306.347 70.38C306.237 70.3694 306.127 70.3855 306.025 70.427C305.923 70.4684 305.833 70.534 305.762 70.618C305.616 70.8388 305.549 71.1023 305.572 71.366V72.2432H307.034V74.1948H305.572V83.2184L302.702 83.2048ZM308.074 83.2048V74.1812H306.972V72.2296H308.074V71.468C308.064 70.8924 308.132 70.3181 308.278 69.7612C308.395 69.2995 308.681 68.8988 309.08 68.6392C309.652 68.3364 310.298 68.1998 310.944 68.2448H311.658C311.875 68.2448 312.127 68.2856 312.406 68.3264V70.448L312.072 70.38C311.955 70.3735 311.837 70.3735 311.719 70.38C311.609 70.3694 311.499 70.3855 311.397 70.427C311.295 70.4684 311.205 70.534 311.134 70.618C310.988 70.8388 310.921 71.1023 310.944 71.366V72.2432H312.406V74.1948H310.944V83.2184L308.074 83.2048Z" fill="#4D515A"/>
<path d="M317.057 83.3884C316.35 83.4158 315.648 83.2638 315.017 82.9464C314.477 82.6514 314.046 82.1915 313.786 81.634C313.491 80.981 313.346 80.2697 313.364 79.5532V75.8744C313.342 75.1509 313.486 74.432 313.786 73.7732C314.054 73.2215 314.493 72.7709 315.037 72.488C315.668 72.1685 316.37 72.0141 317.077 72.0392C317.786 72.0068 318.49 72.1641 319.117 72.4948C319.639 72.8099 320.043 73.2878 320.266 73.8548C320.528 74.533 320.653 75.2564 320.634 75.9832V77.9008H316.2V80.0292C316.191 80.2919 316.228 80.5542 316.309 80.8044C316.354 80.9768 316.457 81.1282 316.601 81.2328C316.744 81.3132 316.906 81.3554 317.07 81.3554C317.235 81.3554 317.396 81.3132 317.54 81.2328C317.681 81.144 317.785 81.006 317.832 80.8452C317.902 80.6255 317.934 80.3956 317.927 80.1652V79.1248H320.586V80.036C320.616 80.4997 320.55 80.9646 320.394 81.402C320.237 81.8394 319.992 82.24 319.675 82.5792C318.942 83.1811 318.002 83.4716 317.057 83.3884ZM316.2 76.5H317.927V75.4188C317.937 75.1592 317.905 74.8997 317.832 74.6504C317.793 74.4771 317.688 74.3257 317.54 74.2288C317.387 74.1412 317.212 74.0988 317.036 74.1064C316.871 74.0995 316.709 74.1473 316.574 74.2424C316.434 74.3631 316.337 74.525 316.295 74.7048C316.224 75.0123 316.192 75.3276 316.2 75.6432V76.5Z" fill="#4D515A"/>
<path d="M325.788 83.3884C325.082 83.4158 324.38 83.2638 323.748 82.9464C323.208 82.6514 322.777 82.1915 322.517 81.634C322.222 80.981 322.078 80.2697 322.096 79.5532V75.8744C322.073 75.1509 322.217 74.432 322.517 73.7732C322.785 73.2215 323.224 72.7709 323.768 72.488C324.4 72.1694 325.101 72.015 325.808 72.0392C326.517 72.0068 327.221 72.1641 327.848 72.4948C328.37 72.8099 328.774 73.2878 328.998 73.8548C329.259 74.533 329.384 75.2564 329.365 75.9832V77.9008H324.958V80.0292C324.953 80.2917 324.99 80.5534 325.067 80.8044C325.114 80.9756 325.217 81.1263 325.36 81.2328C325.503 81.3185 325.668 81.361 325.836 81.3552C325.998 81.3595 326.159 81.317 326.298 81.2328C326.439 81.1416 326.545 81.0048 326.597 80.8452C326.664 80.6248 326.696 80.3954 326.692 80.1652V79.1248H329.344V80.036C329.378 80.4999 329.314 80.9657 329.157 81.4036C329 81.8415 328.753 82.2419 328.433 82.5792C328.067 82.8813 327.645 83.1083 327.191 83.2471C326.737 83.386 326.26 83.434 325.788 83.3884ZM324.931 76.5H326.665V75.4188C326.672 75.1594 326.64 74.9004 326.57 74.6504C326.523 74.4788 326.417 74.3293 326.271 74.2288C326.118 74.1412 325.943 74.0988 325.768 74.1064C325.603 74.1005 325.44 74.1482 325.305 74.2424C325.166 74.3631 325.068 74.525 325.026 74.7048C324.955 75.0123 324.923 75.3276 324.931 75.6432V76.5Z" fill="#4D515A"/>
<path d="M454.546 105.869H368.927V204.639H454.546V105.869Z" stroke="#ABABAB" stroke-miterlimit="10"/>
<path d="M378.678 119.027H408.857" stroke="#ABABAB" stroke-miterlimit="10"/>
<path d="M378.678 132.036H408.857" stroke="#ABABAB" stroke-miterlimit="10"/>
<path d="M378.678 145.037H408.857" stroke="#ABABAB" stroke-miterlimit="10"/>
<path d="M378.678 158.046H408.857" stroke="#ABABAB" stroke-miterlimit="10"/>
<path d="M378.678 171.047H408.857" stroke="#ABABAB" stroke-miterlimit="10"/>
<path d="M378.678 184.056H408.857" stroke="#ABABAB" stroke-miterlimit="10"/>
<path d="M415.16 119.027H445.332" stroke="#ABABAB" stroke-miterlimit="10"/>
<path d="M415.16 132.036H445.332" stroke="#ABABAB" stroke-miterlimit="10"/>
<path d="M415.16 145.037H445.332" stroke="#ABABAB" stroke-miterlimit="10"/>
<path d="M415.16 158.046H445.332" stroke="#ABABAB" stroke-miterlimit="10"/>
<path d="M415.16 171.047H445.332" stroke="#ABABAB" stroke-miterlimit="10"/>
<path d="M415.16 184.056H445.332" stroke="#ABABAB" stroke-miterlimit="10"/>
<path d="M119 74.8884L110.765 63.1244H78.5332L70.2984 74.8884C65.9395 81.1244 63.7083 88.6001 63.9362 96.2052C64.164 103.81 66.8388 111.139 71.5632 117.103L75.378 121.91H113.927L117.742 117.103C122.465 111.138 125.139 103.809 125.366 96.204C125.592 88.599 123.36 81.1237 119 74.8884Z" fill="white" stroke="#263238" stroke-linecap="round" stroke-linejoin="round"/>
<path d="M70.2848 74.8884H85.4216" stroke="#263238" stroke-linecap="round" stroke-linejoin="round"/>
<path d="M102.163 79.7096H89.4064" stroke="#263238" stroke-linecap="round" stroke-linejoin="round"/>
<path d="M124.875 102.027H94.9891" stroke="#263238" stroke-linecap="round" stroke-linejoin="round"/>
<path d="M70.278 101.626H81.838" stroke="#263238" stroke-linecap="round" stroke-linejoin="round"/>
<path d="M110.133 95.6488H100.966" stroke="#263238" stroke-linecap="round" stroke-linejoin="round"/>
<path d="M82.2324 110.391H90.2088" stroke="#263238" stroke-linecap="round" stroke-linejoin="round"/>
<path d="M112.52 66.9596H105.747" stroke="#263238" stroke-linecap="round" stroke-linejoin="round"/>
<path d="M94.6356 63.07V17.442" stroke="#263238" stroke-linecap="round" stroke-linejoin="round"/>
<path d="M265.615 74.8884L257.38 63.1244H225.148L216.92 74.8884C212.561 81.1244 210.33 88.6001 210.558 96.2052C210.786 103.81 213.46 111.139 218.185 117.103L222 121.91H260.542L264.357 117.103C269.08 111.138 271.754 103.809 271.98 96.204C272.207 88.599 269.975 81.1237 265.615 74.8884Z" fill="white" stroke="#263238" stroke-linecap="round" stroke-linejoin="round"/>
<path d="M216.913 74.8884H232.05" stroke="#263238" stroke-linecap="round" stroke-linejoin="round"/>
<path d="M248.785 79.7096H236.035" stroke="#263238" stroke-linecap="round" stroke-linejoin="round"/>
<path d="M271.504 102.027H241.611" stroke="#263238" stroke-linecap="round" stroke-linejoin="round"/>
<path d="M216.906 101.626H228.46" stroke="#263238" stroke-linecap="round" stroke-linejoin="round"/>
<path d="M256.754 95.6488H247.588" stroke="#263238" stroke-linecap="round" stroke-linejoin="round"/>
<path d="M228.861 110.391H236.83" stroke="#263238" stroke-linecap="round" stroke-linejoin="round"/>
<path d="M259.148 66.9596H252.375" stroke="#263238" stroke-linecap="round" stroke-linejoin="round"/>
<path d="M241.264 63.07V17.442" stroke="#263238" stroke-linecap="round" stroke-linejoin="round"/>
<path d="M430.794 238.578C432.453 239.306 436.519 239.217 436.526 239.217C436.533 239.217 435.649 236.552 435.574 236.388C434.683 234.525 431.861 231.438 429.563 231.751C429.181 231.809 428.817 231.948 428.493 232.159C428.17 232.369 427.894 232.646 427.686 232.97C427.478 233.295 427.341 233.661 427.284 234.042C427.228 234.424 427.254 234.814 427.36 235.185C427.72 236.776 429.372 237.959 430.794 238.578Z" fill="#263238"/>
<path d="M471.92 239.476C471.954 239.476 472.661 236.756 472.688 236.592C472.974 234.552 472.314 230.418 470.234 229.405C469.883 229.243 469.502 229.158 469.115 229.155C468.729 229.152 468.347 229.231 467.994 229.388C467.64 229.544 467.325 229.774 467.067 230.062C466.81 230.349 466.616 230.689 466.5 231.057C465.943 232.601 466.65 234.457 467.486 235.783C468.52 237.32 471.92 239.476 471.92 239.476Z" fill="#263238"/>
<path d="M432.194 250.362C433.922 250.614 437.553 249.56 437.838 249.478C438.436 251.554 439.172 253.587 440.042 255.564C440.538 256.72 441.082 257.87 441.633 259.019C441.3 258.536 441 258.101 440.953 258.046C439.593 256.482 436.064 254.252 433.928 255.156C433.576 255.314 433.262 255.545 433.006 255.834C432.75 256.123 432.558 256.463 432.444 256.831C432.329 257.2 432.295 257.589 432.342 257.972C432.389 258.355 432.517 258.723 432.718 259.053C433.507 260.488 435.39 261.195 436.92 261.419C438.45 261.644 441.585 260.814 442.408 260.576C442.626 261.018 442.836 261.453 443.054 261.888C444.108 263.983 445.162 266.07 446.141 268.144C446.481 268.879 446.821 269.606 447.107 270.341C446.814 269.912 446.563 269.552 446.522 269.498C445.162 267.934 441.633 265.703 439.498 266.614C439.145 266.772 438.83 267.002 438.573 267.291C438.316 267.579 438.124 267.919 438.009 268.288C437.894 268.656 437.858 269.045 437.905 269.428C437.952 269.812 438.08 270.181 438.28 270.511C439.069 271.939 440.953 272.653 442.483 272.87C444.013 273.088 446.848 272.347 447.821 272.075C448.12 272.83 448.426 273.591 448.678 274.339C448.841 274.856 449.038 275.346 449.174 275.869C449.31 276.393 449.46 276.903 449.602 277.413C449.84 278.406 450.092 279.453 450.282 280.398C450.432 281.078 450.561 281.717 450.697 282.363C450.364 281.636 449.677 280.214 449.609 280.099C448.508 278.351 445.352 275.611 443.102 276.182C442.729 276.284 442.383 276.465 442.085 276.712C441.788 276.959 441.547 277.266 441.377 277.614C441.208 277.961 441.115 278.341 441.104 278.727C441.093 279.113 441.164 279.497 441.313 279.854C441.878 281.391 443.632 282.377 445.108 282.826C446.74 283.322 450.337 282.866 450.792 282.826C451.003 283.9 451.207 284.947 451.377 285.94C451.5 286.62 451.602 287.259 451.704 287.885H453.145C453.016 287.205 452.88 286.457 452.73 285.688C452.513 284.594 452.261 283.431 451.989 282.234C453.075 281.804 454.134 281.306 455.158 280.745C456.348 282.03 459.388 283.533 459.782 283.723C459.367 284.743 458.952 285.729 458.551 286.654L458.007 287.885H459.524C459.619 287.654 459.721 287.422 459.816 287.205C460.238 286.178 460.673 285.063 461.108 283.92C461.543 284.009 465.106 284.736 466.772 284.362C468.282 284.022 470.104 283.166 470.778 281.676C470.952 281.332 471.05 280.955 471.068 280.57C471.085 280.185 471.02 279.8 470.877 279.442C470.734 279.084 470.517 278.76 470.24 278.492C469.962 278.225 469.631 278.019 469.268 277.889C467.072 277.148 463.719 279.643 462.468 281.289C462.393 281.384 461.727 282.54 461.319 283.274C461.496 282.805 461.666 282.356 461.842 281.867C462.196 280.915 462.522 279.949 462.862 278.916C463.019 278.406 463.168 277.896 463.325 277.379C463.481 276.862 463.597 276.311 463.733 275.774C464.032 274.523 464.277 273.238 464.488 271.932C465.331 272.238 468.316 273.292 469.866 273.17C471.417 273.047 473.341 272.49 474.239 271.13C474.462 270.815 474.617 270.457 474.691 270.079C474.766 269.701 474.759 269.311 474.672 268.935C474.584 268.56 474.418 268.207 474.184 267.901C473.95 267.595 473.653 267.341 473.314 267.158C471.274 266.091 467.561 268.049 466.092 269.511C466.004 269.6 465.072 270.769 464.569 271.415C464.692 270.633 464.821 269.858 464.916 269.056C465.202 266.764 465.419 264.425 465.644 262.099C465.712 261.385 465.793 260.678 465.868 259.964C466.167 260.08 469.69 261.392 471.424 261.27C472.967 261.161 474.898 260.59 475.796 259.23C476.021 258.915 476.176 258.557 476.251 258.178C476.327 257.799 476.32 257.408 476.233 257.032C476.145 256.655 475.979 256.302 475.744 255.995C475.509 255.688 475.212 255.435 474.871 255.252C472.831 254.191 469.118 256.149 467.656 257.611C467.541 257.72 466.201 259.4 465.882 259.842C466.045 258.278 466.228 256.72 466.466 255.19C466.786 253.123 467.24 251.079 467.826 249.07C467.962 249.118 471.641 250.505 473.416 250.383C474.96 250.274 476.891 249.703 477.788 248.343C478.012 248.029 478.166 247.671 478.241 247.292C478.316 246.914 478.309 246.524 478.222 246.149C478.134 245.773 477.968 245.42 477.734 245.114C477.5 244.808 477.203 244.555 476.864 244.372C474.824 243.304 471.111 245.262 469.649 246.724C469.547 246.82 468.527 248.084 468.051 248.717L467.935 248.656C468.571 246.652 469.384 244.709 470.363 242.848C470.893 241.815 471.458 240.856 472.022 239.938C472.702 240.271 475.701 241.74 477.312 241.801C478.924 241.862 480.842 241.516 481.882 240.251C482.144 239.963 482.341 239.622 482.46 239.251C482.579 238.88 482.617 238.487 482.571 238.101C482.526 237.714 482.397 237.341 482.195 237.008C481.993 236.675 481.721 236.39 481.399 236.171C479.475 234.886 475.585 236.429 473.967 237.714C473.878 237.789 473.062 238.598 472.478 239.197C472.743 238.789 473.001 238.36 473.266 237.973C474.232 236.511 475.211 235.253 476.088 234.11C476.592 233.478 477.054 232.914 477.496 232.39C478.312 232.39 481.576 232.274 483.024 231.601C484.473 230.928 486.023 229.718 486.363 228.12C486.463 227.744 486.482 227.352 486.418 226.969C486.353 226.586 486.208 226.221 485.991 225.898C485.774 225.576 485.49 225.304 485.159 225.101C484.828 224.898 484.457 224.768 484.072 224.72C481.766 224.475 479.026 227.63 478.183 229.52C478.115 229.684 477.265 232.37 477.312 232.37H477.36C476.925 232.866 476.462 233.396 476 233.995C475.102 235.103 474.096 236.361 473.09 237.81C471.99 239.353 470.98 240.958 470.064 242.617C469.036 244.476 468.174 246.422 467.486 248.431V248.506C467.486 247.826 467.486 245.929 467.446 245.786C467.18 243.746 465.46 239.924 463.182 239.503C462.801 239.44 462.411 239.459 462.037 239.558C461.664 239.658 461.316 239.836 461.017 240.08C460.718 240.325 460.474 240.63 460.302 240.976C460.13 241.322 460.034 241.701 460.02 242.087C459.884 243.712 461.067 245.344 462.223 246.378C463.522 247.54 467.133 248.662 467.418 248.751C466.768 250.813 466.259 252.916 465.895 255.048C465.671 256.285 465.487 257.543 465.317 258.801C465.317 258.216 465.317 257.693 465.317 257.618C465.052 255.578 463.332 251.756 461.054 251.335C460.673 251.271 460.282 251.289 459.908 251.387C459.535 251.486 459.186 251.663 458.887 251.907C458.587 252.151 458.342 252.456 458.17 252.802C457.997 253.147 457.9 253.526 457.885 253.912C457.756 255.544 458.939 257.176 460.088 258.21C461.237 259.243 464.318 260.25 465.127 260.528L464.943 261.984C464.664 264.309 464.399 266.635 464.066 268.899C463.95 269.702 463.808 270.484 463.665 271.266C463.665 270.749 463.665 270.307 463.665 270.239C463.4 268.199 461.679 264.377 459.401 263.956C459.02 263.893 458.63 263.911 458.257 264.011C457.883 264.111 457.535 264.288 457.236 264.533C456.937 264.777 456.693 265.083 456.522 265.429C456.35 265.775 456.253 266.153 456.239 266.54C456.103 268.165 457.286 269.804 458.436 270.83C459.585 271.857 462.366 272.796 463.332 273.108C463.162 273.904 462.998 274.706 462.794 275.475C462.645 275.992 462.543 276.502 462.366 277.018C462.189 277.535 462.033 278.038 461.87 278.542C461.523 279.5 461.19 280.486 460.809 281.411C460.557 282.057 460.312 282.669 460.061 283.281C460.19 282.492 460.401 280.928 460.408 280.792C460.377 278.974 459.886 277.194 458.98 275.618C458.983 275.413 458.969 275.208 458.939 275.006C458.894 274.622 458.768 274.253 458.57 273.922C458.371 273.591 458.105 273.306 457.788 273.086C457.47 272.866 457.11 272.716 456.731 272.646C456.351 272.576 455.961 272.588 455.586 272.68C453.342 273.278 451.928 277.209 451.819 279.276C451.819 279.398 451.894 280.731 451.955 281.568C451.846 281.078 451.738 280.609 451.615 280.106C451.384 279.113 451.119 278.134 450.84 277.08C450.69 276.57 450.534 276.06 450.378 275.543C450.221 275.026 450.017 274.502 449.834 273.979C449.392 272.768 448.888 271.558 448.344 270.354C449.215 270.15 452.282 269.368 453.512 268.423C454.743 267.478 456.042 265.941 456.028 264.309C456.043 263.923 455.974 263.538 455.828 263.181C455.682 262.823 455.461 262.501 455.181 262.235C454.9 261.969 454.566 261.766 454.201 261.64C453.836 261.513 453.448 261.466 453.064 261.501C450.765 261.752 448.759 265.418 448.344 267.444C448.344 267.573 448.181 269.062 448.12 269.878C447.794 269.158 447.44 268.437 447.114 267.716C446.08 265.676 444.978 263.575 443.877 261.514L442.891 259.61C443.197 259.536 446.862 258.686 448.242 257.632C449.466 256.686 450.772 255.15 450.758 253.511C450.773 253.125 450.704 252.74 450.558 252.382C450.412 252.025 450.191 251.702 449.911 251.436C449.63 251.171 449.296 250.968 448.931 250.841C448.566 250.715 448.178 250.667 447.794 250.702C445.495 250.954 443.496 254.626 443.074 256.652C443.074 256.802 442.85 258.944 442.83 259.495C442.102 258.094 441.388 256.7 440.749 255.292C439.871 253.395 439.114 251.444 438.484 249.451C438.627 249.417 442.462 248.547 443.87 247.459C445.101 246.52 446.4 244.984 446.386 243.345C446.4 242.959 446.332 242.575 446.186 242.218C446.04 241.861 445.82 241.539 445.541 241.273C445.261 241.008 444.928 240.805 444.564 240.678C444.199 240.55 443.812 240.502 443.428 240.536C441.123 240.788 439.124 244.46 438.668 246.486C438.668 246.616 438.491 248.248 438.444 249.03H438.308C437.733 247.006 437.339 244.935 437.131 242.842C437.002 241.686 436.941 240.584 436.907 239.503C437.641 239.414 440.987 238.972 442.347 238.143C443.707 237.313 445.128 235.953 445.298 234.328C445.354 233.946 445.328 233.556 445.222 233.185C445.116 232.814 444.932 232.47 444.682 232.175C444.433 231.88 444.123 231.642 443.774 231.476C443.426 231.311 443.046 231.221 442.66 231.214C440.341 231.214 437.954 234.614 437.315 236.606C437.315 236.708 437.05 237.837 436.893 238.646C436.893 238.163 436.893 237.66 436.893 237.191C436.893 235.436 437.009 233.832 437.118 232.431C437.186 231.628 437.267 230.901 437.349 230.221C438.029 229.758 440.694 227.861 441.524 226.515C442.354 225.168 442.986 223.285 442.381 221.755C442.255 221.39 442.052 221.056 441.787 220.776C441.522 220.495 441.201 220.274 440.844 220.128C440.487 219.981 440.103 219.912 439.717 219.925C439.331 219.939 438.953 220.034 438.607 220.204C436.567 221.265 436.009 225.413 436.349 227.453C436.349 227.63 437.158 230.336 437.192 230.309H437.233C437.138 230.989 437.05 231.669 436.968 232.431C436.825 233.852 436.682 235.464 436.642 237.191C436.574 239.087 436.62 240.985 436.778 242.876C436.94 244.993 437.293 247.091 437.832 249.145V249.22C437.464 248.642 436.397 247.078 436.295 246.969C434.935 245.405 431.406 243.175 429.277 244.079C428.925 244.236 428.609 244.467 428.353 244.755C428.096 245.044 427.904 245.384 427.789 245.752C427.673 246.121 427.638 246.51 427.685 246.893C427.732 247.277 427.86 247.646 428.06 247.976C428.781 249.431 430.664 250.138 432.194 250.362Z" fill="#263238"/>
<path d="M479.135 288.531H40.1472" stroke="#263238" stroke-miterlimit="10"/>
<path d="M479.135 299.832H40.1472" stroke="#263238" stroke-miterlimit="10"/>
<path d="M479.135 312.256H40.1472" stroke="#263238" stroke-miterlimit="10"/>
<path d="M340.531 110.493C340.531 110.493 345.073 103.564 347.46 103.448C349.847 103.333 358.578 108.943 361.685 116.368C364.793 123.794 363.113 128.921 358.965 131.186C354.817 133.45 352.635 134.531 350.486 133.579C349.191 133.004 348.015 132.192 347.018 131.186C347.018 131.186 348.691 135.266 350.724 135.85C352.757 136.435 353.831 137.999 351.084 137.999C348.337 137.999 344.631 134.055 345.107 130.111C345.583 126.167 340.531 110.493 340.531 110.493Z" fill="#263238" stroke="#263238" stroke-miterlimit="10"/>
<path d="M286.538 250.92C286.538 250.92 264.187 275.475 262.929 276.889C261.962 277.922 260.909 278.871 259.78 279.725C259.78 279.725 243.569 275.162 240.421 274.842C237.272 274.523 229.092 281.738 227.202 284.24C226.152 285.552 225.353 287.046 224.842 288.646C226.413 289.122 244.358 289.122 248.295 289.122C252.232 289.122 265.608 287.232 266.71 286.756C267.811 286.28 292.992 272.755 292.992 272.755L292.359 251.505C292.359 251.505 289.054 250.24 286.538 250.92Z" fill="white" stroke="#263238" stroke-miterlimit="10"/>
<path d="M243.726 277.8C243.726 277.8 236.49 283.152 235.069 284.73C233.648 286.307 231.764 288.81 231.764 288.81" stroke="#263238" stroke-miterlimit="10"/>
<path d="M238.68 276.542C238.68 276.542 230.806 282.05 229.84 284.097C228.874 286.144 227.637 288.98 227.637 288.98" stroke="#263238" stroke-miterlimit="10"/>
<path d="M248.132 280.792C247.854 281.617 247.484 282.409 247.03 283.152C246.405 284.097 241.053 285.512 238.374 287.089C235.695 288.667 238.374 290.081 242.454 289.762C246.534 289.442 252.212 289.762 254.735 288.504C257.258 287.246 260.243 283.941 260.243 283.941" fill="white"/>
<path d="M248.132 280.792C247.854 281.617 247.484 282.409 247.03 283.152C246.405 284.097 241.053 285.512 238.374 287.089C235.695 288.667 238.374 290.081 242.454 289.762C246.534 289.442 252.212 289.762 254.735 288.504C257.258 287.246 260.243 283.941 260.243 283.941" stroke="#263238" stroke-miterlimit="10"/>
<path d="M289.68 240.183C289.68 240.183 285.899 239.244 285.6 240.659C285.301 242.073 283.084 250.417 284.029 251.539C284.974 252.661 290.639 254.687 291.428 254.531C292.216 254.374 289.68 240.183 289.68 240.183Z" fill="#FDB717" stroke="#263238" stroke-miterlimit="10"/>
<path d="M311.222 172.652C311.222 172.652 304.422 177.507 297.928 181.492C291.434 185.477 288.946 185.98 288.946 188.496C288.946 191.012 288.408 231.254 288.408 231.254C288.408 231.254 287.688 238.442 289.666 245.092C291.645 251.743 292.182 288.565 292.182 288.565H365.48L362.964 264.132C362.964 264.132 371.593 189.217 369.764 186.164C367.934 183.11 346.8 171.931 346.8 171.931L311.222 172.652Z" fill="white" stroke="#263238" stroke-miterlimit="10"/>
<path d="M292.182 288.531H365.48L362.964 264.098C362.964 264.098 363.644 258.502 364.507 250.315L340.326 250.628C340.326 250.628 335.478 223.496 336.736 213.976C337.994 204.456 345.358 172.115 345.358 172.115L341.224 172.652L328.984 212.18L299.52 209.46L311.018 174.25L309.76 174.073C309.76 174.073 296.84 201.559 293.053 213.595C290.972 220.218 289.388 226.562 288.381 230.935V231.2C288.381 231.2 287.66 238.388 289.639 245.038C291.618 251.688 292.182 288.531 292.182 288.531Z" fill="#263238" stroke="#263238" stroke-miterlimit="10"/>
<path d="M302.07 288.531C302.573 273.197 304.001 227.63 303.287 225.474C302.797 224.026 305.395 216.566 307.877 210.249L307.197 210.181C305.157 215.383 302.042 223.836 302.661 225.685C303.28 227.535 302.185 265.125 301.41 288.531H302.07Z" fill="#828282"/>
<path d="M309.162 226.44C309.162 224.067 311.794 215.37 313.242 210.759L312.562 210.691C311.093 215.37 308.482 223.972 308.482 226.44C308.482 228.908 307.122 268.6 306.374 288.551H307.054C307.768 268.552 309.162 228.908 309.162 226.44Z" fill="#828282"/>
<path d="M314.745 228.133C314.956 226.447 316.629 216.002 317.411 211.133L316.731 211.072C315.942 215.975 314.282 226.372 314.072 228.072C313.82 230.064 311.195 277.216 310.57 288.551H311.25C311.875 277.277 314.5 230.078 314.745 228.133Z" fill="#828282"/>
<path d="M323.109 211.636L322.436 211.575L317.057 288.531H317.737L323.109 211.636Z" fill="#828282"/>
<path d="M309.359 174.998C308.448 176.95 306.184 181.839 303.579 187.687C299.499 197.792 294.059 211.684 290.822 221.347C289.823 225.012 289.014 228.337 288.408 230.955V231.2C288.264 232.971 288.236 234.75 288.327 236.524C288.47 234.151 288.612 232.322 288.742 231.241C289.809 222.516 309.264 175.481 309.461 175.025L309.359 174.998Z" fill="#828282"/>
<path d="M298.826 224.522C299.01 223.434 301.057 217.437 303.729 209.868L303.049 209.8C300.397 217.328 298.364 223.292 298.18 224.407C297.745 227.004 296.514 268.729 295.95 288.531H296.63C297.16 268.777 298.411 227.038 298.826 224.522Z" fill="#828282"/>
<path d="M291.924 277.107C292.393 258.42 293.332 228.827 294.644 223.428C295.324 220.592 297.894 213.384 300.934 205.251L305.402 191.576C300.574 204.122 295.038 218.878 293.984 223.264C292.89 227.807 292.06 248.492 291.543 266.104C291.72 269.919 291.822 273.734 291.924 277.107Z" fill="#828282"/>
<path d="M348.772 250.519L348.092 250.526L350.091 288.531H350.771L348.772 250.519Z" fill="#828282"/>
<path d="M325.638 249.308C325.434 238.476 327.284 220.959 328.318 212.112L327.638 212.051C326.604 220.891 324.754 238.456 324.958 249.322C325.176 261.304 325.761 281.098 325.985 288.531H326.665C326.441 281.112 325.856 261.297 325.638 249.308Z" fill="#828282"/>
<path d="M354.504 250.444L353.824 250.451L357.585 288.531H358.272L354.504 250.444Z" fill="#828282"/>
<path d="M342.557 250.594L341.87 250.607L343.523 288.531H344.203L342.557 250.594Z" fill="#828282"/>
<path d="M336.246 224.176C336.238 222.266 336.333 220.356 336.532 218.457C336.497 216.96 336.565 215.463 336.736 213.976C337.008 211.936 337.566 208.774 338.28 205.136C340.075 193.576 342.659 180.275 344.264 172.271L343.584 172.366C340.864 186.021 335.39 214.594 335.6 224.203C335.845 235.457 337.824 278.487 338.32 288.544H339C338.477 278.528 336.491 235.43 336.246 224.176Z" fill="#828282"/>
<path d="M332.051 216.437C333.506 209.59 335.825 195.711 337.695 184.069L336.253 188.754C334.546 199.199 332.642 210.378 331.384 216.294C329.018 227.433 330.704 274.74 331.221 288.531H331.901C331.357 274.788 329.698 227.514 332.051 216.437Z" fill="#828282"/>
<path d="M326.006 183.185C326.006 183.185 329.508 195.425 330.46 194.949C331.412 194.473 348.269 173.189 348.432 171.734C348.595 170.279 343.026 163.465 343.026 163.465C341.856 162.981 340.625 162.659 339.368 162.506C338.096 162.506 313.439 166.96 312.807 167.756C312.174 168.552 310.42 172.842 309.148 174.916C307.877 176.99 298.812 186.204 299.921 186.361C301.029 186.517 312.963 182.39 312.963 182.39L317.043 194.725C317.043 194.725 322.81 189.543 323.768 188.272C324.727 187 326.006 183.185 326.006 183.185Z" fill="#FDB717" stroke="#263238" stroke-miterlimit="10"/>
<path d="M312.467 165.152C312.467 165.152 313.752 170.66 314.67 177.636C315.588 184.613 317.057 194.725 317.057 194.725C317.057 194.725 327.896 178.738 328.617 178.187C329.338 177.636 340.374 164.778 340.374 164.778L341.122 146.2C341.122 146.2 335.798 155.57 330.65 159.8C325.502 164.03 312.467 165.152 312.467 165.152Z" fill="white" stroke="#263238" stroke-miterlimit="10"/>
<path d="M330.65 159.8C330.65 159.8 325.455 167.77 321.477 171.496C317.499 175.222 314.677 177.616 314.677 177.616L312.8 167.756L330.65 159.8Z" fill="#263238" stroke="#263238" stroke-miterlimit="10"/>
<path d="M328.114 264.098L321.286 261.943L320.926 265.894L328.114 264.098Z" fill="white" stroke="#263238" stroke-miterlimit="10"/>
<path d="M322.728 257.686L322.123 265.499L320.878 281.683L320.341 288.599H301.24L300.703 281.683L299.458 265.499L298.853 257.686H322.728Z" fill="#FDB717" stroke="#263238" stroke-miterlimit="10"/>
<path d="M324.408 254.007H296.732V259.141H324.408V254.007Z" fill="white" stroke="#263238" stroke-miterlimit="10"/>
<path d="M321.837 251.77H299.744V253.892H321.837V251.77Z" fill="white" stroke="#263238" stroke-miterlimit="10"/>
<path d="M322.123 265.499H299.458L300.703 281.683H320.878" fill="white"/>
<path d="M322.123 265.499H299.458L300.703 281.683H320.878" stroke="#263238" stroke-miterlimit="10"/>
<path d="M346.44 215.771L360.094 246.16H383.629C383.629 246.16 373.565 200.172 373.205 197.112C372.844 194.052 373.748 186.694 371.409 185.436C369.07 184.178 362.964 182.199 362.964 182.199" fill="white"/>
<path d="M346.44 215.771L360.094 246.16H383.629C383.629 246.16 373.565 200.172 373.205 197.112C372.844 194.052 373.748 186.694 371.409 185.436C369.07 184.178 362.964 182.199 362.964 182.199" stroke="#263238" stroke-miterlimit="10"/>
<path d="M351.288 226.549C351.288 226.549 344.998 222.421 343.203 219.008L351.288 226.549Z" fill="white"/>
<path d="M351.288 226.549C351.288 226.549 344.998 222.421 343.203 219.008" stroke="#263238" stroke-miterlimit="10"/>
<path d="M361.168 251.702C361.168 251.702 342.482 266.798 340.51 267.512C338.538 268.226 336.376 268.954 336.376 268.954C336.376 268.954 329.732 265.717 328.114 264.098C326.495 262.48 310.685 268.41 310.685 268.41L305.116 273.442C305.116 273.442 305.837 275.237 307.272 275.237C308.706 275.237 313.392 271.47 313.392 271.47L320.192 271.109L310.848 277.392L308.332 282.608C308.332 282.608 310.311 284.58 311.93 282.064C312.613 280.875 313.46 279.788 314.446 278.834L323.231 276.57C323.231 276.57 318.886 280.983 317.988 281.52C317.091 282.057 312.548 284.396 313.398 285.382C314.078 286.192 314.806 286.022 315.88 285.661C316.955 285.301 320.96 284.24 320.96 284.24C320.96 284.24 325.448 284.6 326.706 284.6C327.964 284.6 332.459 281.724 332.459 281.724L339.823 277.413C339.823 277.413 366.595 268.43 371.443 265.56C376.292 262.691 384.023 257.292 383.683 255.32C383.343 253.348 361.168 251.702 361.168 251.702Z" fill="white" stroke="#263238" stroke-miterlimit="10"/>
<path d="M320.96 284.24C320.96 284.24 326.529 282.268 328.508 280.112" stroke="#263238" stroke-miterlimit="10"/>
<path d="M357.578 245.596L359.04 248.472L359.938 252.246C359.938 252.246 365.33 253.32 370.179 254.218C375.027 255.116 385.628 257.618 385.628 257.618C386.183 257.058 386.602 256.378 386.852 255.631C387.102 254.883 387.177 254.088 387.07 253.307C386.709 250.587 387.07 243.964 385.989 242.168C384.907 240.373 362.603 241.101 357.578 245.596Z" fill="#FDB717" stroke="#263238" stroke-miterlimit="10"/>
<path d="M360.182 248.513C360.182 248.513 365.201 245.378 375.088 245.222" stroke="#263238" stroke-miterlimit="10"/>
<path d="M380.453 248.356C381.283 248.54 382.065 248.751 382.772 248.982" stroke="#263238" stroke-miterlimit="10"/>
<path d="M371.321 247.105C371.321 247.105 374.619 247.316 378.066 247.894" stroke="#263238" stroke-miterlimit="10"/>
<path d="M305.32 148.73C304.303 148.728 303.308 149.029 302.462 149.593C301.616 150.157 300.956 150.959 300.566 151.898C300.176 152.838 300.073 153.872 300.27 154.869C300.468 155.867 300.957 156.783 301.676 157.503C302.394 158.223 303.31 158.713 304.308 158.912C305.305 159.111 306.339 159.009 307.279 158.621C308.219 158.232 309.022 157.573 309.587 156.727C310.152 155.882 310.454 154.887 310.454 153.87C310.454 152.508 309.913 151.202 308.951 150.238C307.988 149.274 306.682 148.731 305.32 148.73ZM305.32 157.624C304.577 157.625 303.851 157.406 303.233 156.995C302.615 156.583 302.133 155.997 301.847 155.312C301.562 154.626 301.487 153.871 301.631 153.142C301.775 152.414 302.132 151.744 302.657 151.219C303.181 150.693 303.85 150.335 304.579 150.189C305.307 150.044 306.062 150.118 306.748 150.402C307.434 150.686 308.021 151.167 308.434 151.784C308.847 152.402 309.067 153.128 309.067 153.87C309.067 154.865 308.672 155.818 307.97 156.522C307.267 157.226 306.314 157.622 305.32 157.624Z" stroke="#263238" stroke-miterlimit="10"/>
<path d="M300.757 132.886C300.757 132.886 301.811 147.458 302.661 151.681C303.511 155.904 312.582 167.946 314.486 168.79C316.389 169.53 318.5 169.53 320.402 168.79C322.3 168.157 334.975 160.126 336.24 157.175C337.504 154.224 339.408 149.6 339.408 149.6C339.408 149.6 344.896 148.328 345.528 145.16C345.901 142.784 345.972 140.372 345.739 137.979L346.372 130.376C346.372 130.376 343.203 117.708 334.968 115.382C326.733 113.057 314.901 117.069 310.046 121.298C305.191 125.528 300.757 132.886 300.757 132.886Z" fill="white" stroke="#263238" stroke-miterlimit="10"/>
<path d="M308.72 132.6C308.72 132.6 310.76 135.47 311.229 137.503" stroke="#263238" stroke-miterlimit="10"/>
<path d="M309.468 148.614C310.133 149.246 310.923 149.732 311.788 150.04C312.652 150.348 313.571 150.472 314.486 150.402" stroke="#263238" stroke-miterlimit="10"/>
<path d="M312.331 156.257C312.331 156.257 319.022 158.175 323.326 153.034" stroke="#263238" stroke-miterlimit="10"/>
<path d="M317.349 132.124C317.349 132.124 322.85 129.615 326.55 132.246" stroke="#263238" stroke-miterlimit="10"/>
<path d="M307.795 132.002C307.795 132.002 304.565 130.574 302.532 132.96" stroke="#263238" stroke-miterlimit="10"/>
<path d="M322.252 140.366C322.782 140.366 323.211 139.51 323.211 138.455C323.211 137.399 322.782 136.544 322.252 136.544C321.722 136.544 321.293 137.399 321.293 138.455C321.293 139.51 321.722 140.366 322.252 140.366Z" fill="#263238"/>
<path d="M306.959 137.741C306.959 138.795 306.53 139.652 306 139.652C305.47 139.652 305.041 138.795 305.041 137.741C305.041 136.687 305.47 135.83 306 135.83C306.53 135.83 306.959 136.68 306.959 137.741Z" fill="#263238"/>
<path d="M343.278 148.73C342.261 148.73 341.267 149.031 340.422 149.596C339.576 150.161 338.917 150.964 338.528 151.903C338.139 152.842 338.037 153.876 338.236 154.873C338.434 155.871 338.924 156.787 339.643 157.506C340.362 158.224 341.278 158.714 342.275 158.912C343.272 159.111 344.306 159.009 345.245 158.62C346.184 158.231 346.987 157.572 347.552 156.726C348.117 155.881 348.419 154.887 348.419 153.87C348.419 152.507 347.877 151.199 346.913 150.235C345.949 149.271 344.641 148.73 343.278 148.73ZM343.278 157.624C342.535 157.624 341.81 157.404 341.192 156.991C340.575 156.579 340.094 155.993 339.81 155.307C339.526 154.621 339.451 153.866 339.596 153.138C339.741 152.41 340.099 151.741 340.624 151.216C341.149 150.691 341.817 150.334 342.545 150.189C343.274 150.044 344.028 150.118 344.714 150.403C345.4 150.687 345.986 151.168 346.399 151.785C346.811 152.402 347.031 153.128 347.031 153.87C347.031 154.866 346.636 155.821 345.932 156.525C345.228 157.229 344.273 157.624 343.278 157.624Z" fill="white" stroke="#263238" stroke-miterlimit="10"/>
<path d="M327.155 120.21L300.757 132.886C300.757 132.886 292.312 126.766 292.312 120.843C292.312 114.92 306.252 102.483 319.131 101.626C332.01 100.769 335.607 103.53 339.198 106.27C342.788 109.011 354.192 118.51 352.716 125.494C351.24 132.478 345.746 137.952 345.746 137.952C345.746 137.952 345.535 133.94 343.21 134.994C340.884 136.048 341.306 139.223 339.619 139.012C337.933 138.802 336.899 135.612 336.899 135.612C336.899 135.612 326.312 126.337 327.155 120.21Z" fill="#263238" stroke="#263238" stroke-miterlimit="10"/>
<path d="M431.548 226.828H342.91V288.585H431.548V226.828Z" fill="#6E6E6E" stroke="#263238" stroke-linecap="round" stroke-linejoin="round"/>
<path d="M427.054 235.11H347.398V288.585H427.054V235.11Z" fill="#ABABAB" stroke="#263238" stroke-linecap="round" stroke-linejoin="round"/>
<path d="M400.18 261.848H374.272V288.585H400.18V261.848Z" fill="#6E6E6E" stroke="#263238" stroke-linecap="round" stroke-linejoin="round"/>
<path d="M347.398 235.11L342.91 226.828H431.548L427.054 235.11H347.398Z" fill="#D1D1D1" stroke="#263238" stroke-linecap="round" stroke-linejoin="round"/>
<path d="M250.26 294.039H210.161L205.938 244.514H246.038L250.26 294.039Z" fill="white" stroke="#263238" stroke-miterlimit="10"/>
<path d="M242.134 294.039H202.035L206.564 235.559H246.663L242.134 294.039Z" fill="white" stroke="#263238" stroke-miterlimit="10"/>
<path d="M210.888 245.82C210.561 245.833 210.236 245.756 209.95 245.596C209.699 245.438 209.511 245.197 209.42 244.916C209.305 244.574 209.259 244.214 209.284 243.855L210.297 243.664C210.282 243.88 210.294 244.097 210.331 244.31C210.356 244.471 210.424 244.621 210.528 244.746C210.636 244.85 210.78 244.908 210.929 244.908C211.079 244.908 211.223 244.85 211.33 244.746C211.421 244.621 211.473 244.472 211.48 244.317C211.512 244.082 211.464 243.842 211.344 243.637C211.215 243.44 211.062 243.26 210.888 243.1L210.14 242.42C209.94 242.237 209.777 242.018 209.658 241.774C209.534 241.497 209.487 241.192 209.522 240.89C209.528 240.672 209.578 240.457 209.67 240.258C209.761 240.06 209.891 239.881 210.052 239.734C210.397 239.45 210.836 239.305 211.283 239.326C211.535 239.314 211.786 239.361 212.017 239.462C212.199 239.543 212.352 239.675 212.459 239.843C212.567 240.011 212.643 240.198 212.684 240.394C212.729 240.617 212.747 240.846 212.738 241.074L211.738 241.244C211.756 241.067 211.756 240.89 211.738 240.713C211.726 240.579 211.674 240.451 211.589 240.346C211.541 240.299 211.483 240.262 211.42 240.239C211.357 240.215 211.289 240.205 211.222 240.21C211.145 240.206 211.069 240.22 210.998 240.249C210.928 240.279 210.865 240.323 210.814 240.38C210.71 240.497 210.65 240.646 210.644 240.802C210.62 240.983 210.651 241.168 210.732 241.332C210.829 241.489 210.948 241.631 211.086 241.754L211.82 242.434C212.066 242.654 212.273 242.913 212.432 243.202C212.6 243.534 212.668 243.907 212.629 244.276C212.607 244.562 212.516 244.837 212.364 245.079C212.215 245.313 212.009 245.505 211.766 245.636C211.493 245.771 211.192 245.834 210.888 245.82Z" fill="black"/>
<path d="M214.88 245.82C214.504 245.845 214.13 245.75 213.812 245.548C213.563 245.366 213.387 245.1 213.316 244.8C213.234 244.441 213.208 244.072 213.241 243.705L213.418 241.441C213.441 241.054 213.524 240.674 213.663 240.312C213.78 240.006 213.995 239.748 214.275 239.578C214.612 239.388 214.997 239.298 215.383 239.319C215.734 239.299 216.084 239.374 216.396 239.537C216.631 239.683 216.803 239.911 216.879 240.176C216.964 240.49 216.992 240.817 216.961 241.142L216.92 241.672H215.805L215.846 241.128C215.859 240.965 215.859 240.801 215.846 240.638C215.845 240.512 215.802 240.39 215.723 240.292C215.668 240.242 215.604 240.205 215.533 240.183C215.463 240.161 215.388 240.154 215.315 240.162C215.154 240.153 214.995 240.201 214.866 240.298C214.767 240.401 214.697 240.527 214.662 240.666C214.625 240.838 214.6 241.013 214.588 241.189L214.37 243.95C214.348 244.138 214.348 244.327 214.37 244.514C214.382 244.645 214.443 244.766 214.54 244.854C214.653 244.933 214.79 244.972 214.928 244.963C215.003 244.971 215.08 244.964 215.153 244.94C215.225 244.917 215.292 244.878 215.349 244.827C215.443 244.727 215.507 244.602 215.533 244.467C215.567 244.299 215.59 244.128 215.601 243.957L215.648 243.386H216.757V243.889C216.733 244.232 216.655 244.569 216.526 244.888C216.409 245.168 216.209 245.405 215.954 245.568C215.627 245.751 215.255 245.839 214.88 245.82Z" fill="black"/>
<path d="M217.076 245.732L218.838 239.387H220.075L220.85 245.732H219.783L219.64 244.27H218.538L218.164 245.732H217.076ZM218.715 243.528H219.572L219.348 240.87L218.715 243.528Z" fill="black"/>
<path d="M221.456 245.732L221.945 239.387H222.754L224.019 243.005L224.298 239.387H225.257L224.76 245.732H223.992L222.734 241.944L222.442 245.732H221.456Z" fill="black"/>
<path d="M227.644 245.732L228.14 239.387H229.289L229.085 242.046H230.377L230.581 239.387H231.744L231.248 245.732H230.092L230.309 242.869H229.017L228.8 245.732H227.644Z" fill="black"/>
<path d="M232.22 245.732L232.71 239.387H235.375L235.314 240.203H233.811L233.668 242.026H234.852L234.79 242.835H233.607L233.444 244.936H234.96L234.899 245.732H232.22Z" fill="black"/>
<path d="M235.572 245.732L236.069 239.387H237.585C237.949 239.376 238.312 239.427 238.66 239.537C238.929 239.626 239.154 239.813 239.292 240.06C239.441 240.373 239.496 240.723 239.448 241.067C239.432 241.298 239.389 241.526 239.319 241.747C239.266 241.94 239.171 242.119 239.04 242.27C238.907 242.42 238.739 242.534 238.551 242.604L239.197 245.725H238.034L237.49 242.821H236.96L236.735 245.725L235.572 245.732ZM237.014 242.1H237.374C237.561 242.108 237.747 242.073 237.918 241.998C238.058 241.937 238.17 241.825 238.231 241.686C238.306 241.511 238.35 241.325 238.36 241.135C238.402 240.89 238.359 240.638 238.238 240.421C238.156 240.324 238.05 240.25 237.931 240.207C237.811 240.164 237.683 240.153 237.558 240.176H237.136L237.014 242.1Z" fill="black"/>
<path d="M239.952 245.732L240.448 239.387H243.107L243.046 240.203H241.543L241.4 242.026H242.583L242.522 242.835H241.339L241.176 244.936H242.699L242.631 245.732H239.952Z" fill="black"/>
<path d="M212.962 290.108L213.391 284.621H212.378L212.446 283.764H215.608L215.546 284.621H214.547L214.125 290.108H212.962Z" fill="black"/>
<path d="M217.382 290.197C217.014 290.218 216.648 290.13 216.328 289.945C216.075 289.775 215.891 289.519 215.812 289.224C215.719 288.863 215.691 288.487 215.73 288.116L215.914 285.743C215.934 285.363 216.021 284.99 216.172 284.641C216.301 284.353 216.521 284.114 216.798 283.961C217.132 283.784 217.508 283.7 217.886 283.716C218.257 283.694 218.628 283.779 218.953 283.961C219.202 284.118 219.385 284.36 219.47 284.641C219.571 284.999 219.603 285.373 219.565 285.743L219.382 288.123C219.358 288.503 219.268 288.875 219.116 289.224C218.983 289.521 218.765 289.771 218.491 289.945C218.151 290.129 217.768 290.216 217.382 290.197ZM217.45 289.347C217.606 289.355 217.76 289.309 217.886 289.218C217.992 289.128 218.066 289.006 218.096 288.871C218.145 288.716 218.174 288.556 218.185 288.395L218.409 285.471C218.427 285.313 218.427 285.153 218.409 284.995C218.398 284.869 218.343 284.75 218.253 284.662C218.135 284.569 217.987 284.526 217.838 284.539C217.685 284.531 217.535 284.574 217.41 284.662C217.305 284.747 217.231 284.864 217.199 284.995C217.153 285.15 217.124 285.31 217.11 285.471L216.886 288.395C216.869 288.553 216.869 288.713 216.886 288.871C216.895 289.001 216.951 289.124 217.042 289.218C217.157 289.31 217.303 289.356 217.45 289.347Z" fill="black"/>
<path d="M221.979 290.108L222.476 283.764H224.339C224.656 283.751 224.971 283.823 225.25 283.975C225.478 284.117 225.647 284.337 225.726 284.594C225.824 284.908 225.857 285.239 225.821 285.566C225.807 285.918 225.707 286.261 225.529 286.566C225.381 286.811 225.16 287.004 224.896 287.116C224.609 287.239 224.298 287.299 223.985 287.293H223.36L223.142 290.108H221.979ZM223.421 286.477H223.863C224.033 286.483 224.202 286.452 224.359 286.389C224.482 286.329 224.576 286.224 224.624 286.096C224.686 285.923 224.722 285.743 224.733 285.559C224.751 285.374 224.751 285.187 224.733 285.002C224.725 284.937 224.704 284.875 224.67 284.82C224.636 284.765 224.59 284.718 224.536 284.682C224.374 284.602 224.193 284.567 224.012 284.58H223.577L223.421 286.477Z" fill="black"/>
<path d="M225.454 290.108L227.215 283.764H228.48L229.255 290.108H228.181L228.045 288.646H226.916L226.542 290.108H225.454ZM227.086 287.912H227.95L227.725 285.246L227.086 287.912Z" fill="black"/>
<path d="M230.52 290.108L230.71 287.688L229.724 283.764H230.806L231.397 286.28L232.329 283.764H233.383L231.812 287.688L231.622 290.108H230.52Z" fill="black"/>
<path d="M221.524 273.394C221.578 272.626 221.639 271.85 221.7 271.075H222.85C222.85 270.681 222.911 270.3 222.938 269.912H221.789L221.877 268.756H224.196C224.23 268.362 224.257 267.981 224.291 267.6H225.44C225.44 267.988 225.386 268.369 225.352 268.75H226.515C226.576 267.974 226.63 267.206 226.692 266.438H230.166C230.166 266.818 230.105 267.206 230.078 267.594H231.2C231.2 267.206 231.261 266.825 231.288 266.438H230.139L230.228 265.275H227.936C227.997 264.5 228.058 263.738 228.113 262.97H224.638C224.638 263.357 224.577 263.738 224.55 264.126H222.244C222.183 264.901 222.122 265.662 222.061 266.444H223.21C223.21 266.832 223.149 267.213 223.122 267.6H221.972C221.938 267.995 221.911 268.376 221.877 268.756H220.721C220.755 268.369 220.782 267.988 220.81 267.6H217.342C217.342 267.206 217.396 266.832 217.43 266.444H220.898L221.578 257.176H222.741C222.652 258.291 222.571 259.406 222.482 260.522V260.644H223.638C223.693 259.882 223.754 259.114 223.815 258.339H224.971C224.91 259.107 224.849 259.876 224.794 260.658H225.95C225.95 261.038 225.896 261.426 225.862 261.814H231.656C231.656 262.208 231.594 262.582 231.56 262.97H232.723L232.635 264.139H231.486C231.486 264.534 231.424 264.914 231.397 265.302H232.56C232.499 266.07 232.438 266.839 232.376 267.621H233.539C233.478 268.389 233.417 269.158 233.356 269.94H232.22C232.159 270.715 232.104 271.476 232.043 272.258H233.192L233.104 273.414H235.416C235.382 273.802 235.355 274.183 235.328 274.57H231.88L231.696 276.882H230.52C230.554 276.508 230.581 276.128 230.615 275.733H228.29C228.29 275.352 228.351 274.972 228.385 274.577H227.229C227.229 274.19 227.283 273.809 227.317 273.421H229.622L229.711 272.265H223.931L223.842 273.414H221.524V273.394ZM228.738 269.919C228.738 269.538 228.8 269.151 228.827 268.77H227.678C227.644 269.158 227.616 269.538 227.589 269.919H228.738C228.738 270.307 228.684 270.688 228.65 271.075H230.962C230.962 270.688 231.016 270.307 231.05 269.919H228.738ZM226.44 269.96H225.291C225.291 270.348 225.23 270.728 225.202 271.109H226.352C226.358 270.688 226.386 270.314 226.44 269.96ZM229.214 264.153H230.357C230.357 263.765 230.418 263.384 230.445 263.01H229.303C229.248 263.357 229.221 263.738 229.194 264.119L229.214 264.153Z" fill="#263238"/>
<path d="M212.085 260.644C212.298 257.924 212.507 255.227 212.711 252.552H220.81C220.597 255.245 220.388 257.942 220.184 260.644H212.085ZM213.785 253.708L213.336 259.488H219.116L219.565 253.708H213.785Z" fill="#263238"/>
<path d="M236.402 260.651H228.303C228.514 257.931 228.718 255.258 228.929 252.552H237.028C236.819 255.245 236.611 257.944 236.402 260.651ZM235.783 253.708H230.003L229.554 259.488H235.334L235.783 253.708Z" fill="#263238"/>
<path d="M211.48 268.763H219.579L218.96 276.862H210.868C211.049 274.169 211.253 271.47 211.48 268.763ZM218.28 269.96H212.5L212.051 275.74H217.831L218.28 269.96Z" fill="#263238"/>
<path d="M222.775 257.183C222.836 256.414 222.897 255.646 222.958 254.864H221.802C221.864 254.089 221.918 253.327 221.979 252.552H227.759C227.698 253.32 227.644 254.082 227.582 254.857H226.44C226.406 255.245 226.379 255.626 226.345 256.02H227.494C227.433 256.795 227.372 257.557 227.317 258.332H226.161C226.161 257.951 226.222 257.57 226.25 257.183H225.08C225.114 256.795 225.141 256.414 225.168 256.027H224.012C224.012 256.401 223.958 256.782 223.924 257.176H222.761L222.775 257.183ZM224.135 254.857H225.284C225.284 254.47 225.345 254.089 225.372 253.708H224.23C224.176 254.089 224.148 254.47 224.114 254.857H224.135Z" fill="#263238"/>
<path d="M217.688 262.97C217.688 263.35 217.634 263.731 217.6 264.126H219.912C219.912 264.513 219.858 264.894 219.824 265.282H216.356C216.294 266.057 216.24 266.825 216.179 267.6H211.548L211.732 265.295H212.874C212.874 265.676 212.82 266.05 212.786 266.438H215.111L215.376 262.97H217.688Z" fill="#263238"/>
<path d="M221.517 273.394C221.517 273.775 221.462 274.156 221.428 274.55H222.584C222.584 274.938 222.523 275.318 222.496 275.706H223.652C223.652 276.1 223.591 276.481 223.564 276.869H220.102C220.191 275.713 220.279 274.564 220.368 273.394H221.517Z" fill="#263238"/>
<path d="M215.376 262.97H213.064C213.03 263.357 213.003 263.738 212.976 264.126H211.82C211.881 263.357 211.936 262.596 211.997 261.82H215.465L215.376 262.97Z" fill="#263238"/>
<path d="M236.042 265.282H234.892C234.954 264.513 235.008 263.752 235.069 262.976H233.92C233.954 262.582 233.981 262.201 234.015 261.814H236.314L236.042 265.282Z" fill="#263238"/>
<path d="M217.695 262.97L217.784 261.82H220.096C220.062 262.201 220.034 262.575 220 262.97H217.695Z" fill="#263238"/>
<path d="M233.553 267.607L233.641 266.451H234.79C234.79 266.832 234.736 267.213 234.702 267.6H233.553V267.607Z" fill="#263238"/>
<path d="M234.6 268.763H235.742C235.742 269.151 235.688 269.525 235.654 269.912H234.512C234.6 269.532 234.6 269.158 234.6 268.763Z" fill="#263238"/>
<path d="M225.984 260.658L226.073 259.502H227.222C227.222 259.882 227.161 260.263 227.134 260.651H225.984V260.658Z" fill="#263238"/>
<path d="M221.68 271.075H220.524C220.558 270.694 220.585 270.314 220.619 269.919H221.768C221.734 270.307 221.707 270.694 221.68 271.082V271.075Z" fill="#263238"/>
<path d="M233.192 272.238C233.226 271.857 233.254 271.476 233.281 271.089H234.437C234.403 271.463 234.376 271.844 234.348 272.238H233.192Z" fill="#263238"/>
<path d="M232.662 264.132H233.811C233.811 264.513 233.757 264.894 233.723 265.288H232.56C232.56 264.901 232.621 264.513 232.648 264.126L232.662 264.132Z" fill="#263238"/>
<path d="M225.971 275.706H224.822C224.822 275.325 224.883 274.944 224.91 274.564H226.059C226.025 274.938 225.998 275.318 225.971 275.706Z" fill="#263238"/>
<path d="M228.29 275.713C228.29 276.094 228.228 276.474 228.201 276.862H227.052C227.052 276.481 227.106 276.107 227.14 275.713H228.29Z" fill="#263238"/>
<path d="M235.144 276.869H234.002C234.002 276.481 234.056 276.107 234.09 275.72H235.232C235.205 276.08 235.178 276.481 235.144 276.869Z" fill="#263238"/>
<path d="M226.692 266.444H225.542C225.542 266.064 225.597 265.683 225.631 265.295H226.78C226.78 265.676 226.719 266.064 226.692 266.444Z" fill="#263238"/>
<path d="M218.042 258.332H214.581C214.669 257.176 214.758 256.027 214.853 254.871H218.314C218.226 256.02 218.137 257.169 218.042 258.332Z" fill="#263238"/>
<path d="M230.799 258.332L231.064 254.864H234.532L234.26 258.332H230.799Z" fill="#263238"/>
<path d="M213.33 274.55L213.595 271.082H217.056L216.791 274.55H213.33Z" fill="#263238"/>
<path d="M216.288 249.805H211.222L210.786 255.401" stroke="#FDB717" stroke-miterlimit="10"/>
<path d="M234.729 249.805H239.802L239.367 255.401" stroke="#FDB717" stroke-miterlimit="10"/>
<path d="M214.01 279.269H208.937L209.372 273.673" stroke="#FDB717" stroke-miterlimit="10"/>
<path d="M232.451 279.269H237.517L237.952 273.673" stroke="#FDB717" stroke-miterlimit="10"/>
<path d="M162.697 232.682C162.697 232.682 168.137 226.386 169.102 225.916C170.068 225.447 182.804 219.218 182.804 219.218L179.255 237.245L159.752 246.31L162.697 232.682Z" fill="white" stroke="#263238" stroke-miterlimit="10"/>
<path d="M205.389 199.992L188.071 196.788C186.66 196.528 185.305 197.46 185.044 198.87L177.384 240.28C177.123 241.691 178.056 243.046 179.466 243.307L196.784 246.51C198.195 246.771 199.55 245.839 199.811 244.429L207.471 203.019C207.732 201.608 206.8 200.253 205.389 199.992Z" fill="white" stroke="#263238" stroke-miterlimit="10"/>
<path d="M190.278 225.141L190.584 223.523L191.311 223.666C191.366 223.387 191.413 223.122 191.468 222.856L190.74 222.714C190.788 222.442 190.842 222.17 190.89 221.898L192.358 222.176C192.413 221.904 192.46 221.639 192.508 221.374L193.242 221.51C193.195 221.782 193.14 222.047 193.093 222.312L193.827 222.448L194.126 220.837H194.222L196.33 221.231C196.275 221.503 196.228 221.768 196.173 222.04L196.901 222.176C196.955 221.904 197.003 221.639 197.057 221.374L196.323 221.238C196.377 220.966 196.425 220.701 196.479 220.422L195.01 220.143L195.316 218.532L193.12 218.144C193.066 218.416 193.018 218.681 192.964 218.953L191.508 218.674L191.202 220.293L191.923 220.429C191.876 220.701 191.821 220.966 191.774 221.238L191.046 221.102C190.992 221.374 190.944 221.639 190.89 221.911L190.162 221.768C190.21 221.496 190.257 221.231 190.312 220.959L188.115 220.544C188.163 220.272 188.217 220.007 188.265 219.735L190.461 220.15L191.685 213.683L192.42 213.819C192.27 214.594 192.127 215.376 191.978 216.152V216.24L192.705 216.376L193.011 214.771L193.746 214.907L193.44 216.526L194.174 216.662C194.12 216.927 194.072 217.192 194.018 217.471L197.683 218.151C197.635 218.423 197.581 218.688 197.533 218.953L198.268 219.096C198.213 219.375 198.166 219.64 198.111 219.912L197.384 219.776C197.329 220.048 197.282 220.313 197.234 220.585L197.962 220.728L197.656 222.346L198.39 222.489C198.288 223.02 198.193 223.557 198.084 224.101L197.356 223.965L197.05 225.583L197.785 225.726C197.737 225.998 197.69 226.263 197.635 226.535L199.097 226.814C199.05 227.086 198.995 227.351 198.948 227.623L196.751 227.202L196.445 228.82L195.711 228.684C195.765 228.419 195.813 228.154 195.867 227.875L194.398 227.596C194.446 227.331 194.5 227.059 194.548 226.787L193.82 226.651C193.875 226.379 193.922 226.114 193.97 225.842L195.432 226.114C195.486 225.842 195.534 225.576 195.582 225.311L191.93 224.631C191.876 224.896 191.828 225.162 191.774 225.434L190.305 225.155L190.278 225.141ZM195.133 223.55C195.187 223.285 195.235 223.013 195.289 222.748L194.562 222.605C194.507 222.877 194.46 223.142 194.405 223.407L195.14 223.55C195.085 223.815 195.038 224.087 194.983 224.352L196.445 224.631C196.493 224.359 196.547 224.094 196.595 223.829L195.133 223.55ZM193.664 223.278L192.943 223.135C192.889 223.407 192.841 223.672 192.787 223.938L193.514 224.074C193.562 223.808 193.616 223.543 193.664 223.278ZM195.901 219.504L196.629 219.64C196.683 219.368 196.731 219.103 196.778 218.838L196.058 218.702C196.003 218.96 195.956 219.232 195.901 219.504Z" fill="#263238"/>
<path d="M185.368 214.989C185.726 213.103 186.082 211.219 186.436 209.338L191.563 210.31C191.202 212.194 190.883 214.071 190.488 215.961L185.368 214.989ZM187.02 210.283C186.762 211.643 186.51 213.003 186.259 214.322L189.91 215.002C190.169 213.642 190.42 212.282 190.679 210.963L187.02 210.283Z" fill="#263238"/>
<path d="M200.756 217.906L195.629 216.92C195.99 215.03 196.343 213.153 196.697 211.262L201.824 212.235C201.464 214.139 201.11 216.016 200.756 217.906ZM200.94 212.922L197.282 212.242C197.023 213.602 196.769 214.948 196.52 216.281L200.178 216.961C200.432 215.614 200.686 214.268 200.94 212.922Z" fill="#263238"/>
<path d="M184.28 220.66L189.4 221.632C189.047 223.516 188.686 225.4 188.333 227.283L183.206 226.318C183.6 224.434 183.94 222.55 184.28 220.66ZM188.516 222.306L184.858 221.626C184.6 222.986 184.346 224.33 184.096 225.658L187.748 226.338C188.027 224.992 188.278 223.652 188.537 222.306H188.516Z" fill="#263238"/>
<path d="M192.44 213.819L192.746 212.201L192.018 212.065C192.12 211.521 192.222 210.99 192.324 210.453L195.983 211.133L195.677 212.745L194.949 212.609C194.902 212.881 194.847 213.146 194.8 213.418L195.52 213.554L195.214 215.172L194.487 215.03C194.541 214.764 194.589 214.499 194.643 214.227L193.909 214.091L194.058 213.282L193.331 213.146C193.276 213.411 193.229 213.676 193.174 213.948L192.44 213.812V213.819ZM193.48 212.337L194.208 212.473C194.262 212.201 194.31 211.936 194.358 211.67L193.637 211.534L193.48 212.337Z" fill="#263238"/>
<path d="M188.72 217.308C188.673 217.573 188.618 217.838 188.571 218.117L190.033 218.396C189.985 218.661 189.931 218.926 189.883 219.198L187.687 218.783L187.381 220.402L184.45 219.844L184.756 218.239L185.484 218.375L185.334 219.171L186.803 219.45C186.952 218.647 187.109 217.838 187.258 217.029L188.727 217.308H188.72Z" fill="#263238"/>
<path d="M190.278 225.141C190.23 225.406 190.176 225.678 190.128 225.95L190.856 226.086C190.808 226.358 190.754 226.624 190.706 226.896L191.434 227.032C191.386 227.31 191.332 227.576 191.284 227.841L189.094 227.426C189.244 226.624 189.394 225.821 189.55 225.005L190.278 225.141Z" fill="#263238"/>
<path d="M187.258 217.029L185.796 216.75C185.742 217.022 185.694 217.287 185.64 217.559L184.912 217.416L185.218 215.812L187.408 216.226C187.36 216.492 187.306 216.764 187.258 217.029Z" fill="#263238"/>
<path d="M200.144 221.143L199.417 221.007C199.519 220.47 199.614 219.932 199.716 219.395L198.988 219.252C199.043 218.98 199.09 218.715 199.138 218.45L200.6 218.722C200.444 219.531 200.294 220.32 200.144 221.143Z" fill="#263238"/>
<path d="M188.727 217.308C188.775 217.042 188.822 216.777 188.877 216.505L190.339 216.784C190.284 217.042 190.237 217.314 190.182 217.586L188.72 217.308H188.727Z" fill="#263238"/>
<path d="M198.376 222.489C198.424 222.224 198.472 221.952 198.526 221.68L199.254 221.823C199.206 222.088 199.152 222.353 199.104 222.625L198.37 222.489H198.376Z" fill="#263238"/>
<path d="M198.954 223.441L199.682 223.577C199.628 223.842 199.58 224.108 199.532 224.38L198.805 224.237C198.852 223.972 198.907 223.72 198.954 223.441Z" fill="#263238"/>
<path d="M194.16 216.662L194.31 215.859L195.044 215.995C194.99 216.26 194.942 216.526 194.888 216.798L194.16 216.662Z" fill="#263238"/>
<path d="M190.584 223.523L189.856 223.387C189.904 223.115 189.958 222.85 190.006 222.578L190.74 222.72C190.686 222.992 190.631 223.264 190.584 223.53V223.523Z" fill="#263238"/>
<path d="M197.764 225.76C197.812 225.488 197.86 225.223 197.914 224.951L198.642 225.094C198.594 225.352 198.54 225.617 198.492 225.896L197.758 225.753L197.764 225.76Z" fill="#263238"/>
<path d="M198.098 219.926L198.825 220.062C198.778 220.327 198.73 220.592 198.676 220.871L197.948 220.728L198.098 219.912V219.926Z" fill="#263238"/>
<path d="M192.902 227.31L192.175 227.174C192.222 226.909 192.277 226.644 192.324 226.372L193.052 226.508C193.004 226.773 192.95 227.038 192.902 227.31Z" fill="#263238"/>
<path d="M194.371 227.589C194.317 227.861 194.269 228.126 194.215 228.398L193.487 228.262C193.542 227.997 193.589 227.732 193.644 227.453L194.371 227.596V227.589Z" fill="#263238"/>
<path d="M198.614 229.235L197.88 229.092C197.928 228.827 197.982 228.562 198.03 228.296L198.757 228.432C198.71 228.698 198.662 228.963 198.614 229.235Z" fill="#263238"/>
<path d="M194.126 220.844L193.399 220.708C193.453 220.436 193.501 220.17 193.555 219.905L194.283 220.041C194.228 220.306 194.181 220.578 194.126 220.844Z" fill="#263238"/>
<path d="M189.332 214.071L187.143 213.656C187.292 212.847 187.442 212.044 187.598 211.235L189.788 211.65C189.638 212.452 189.482 213.262 189.332 214.071Z" fill="#263238"/>
<path d="M197.404 215.594C197.554 214.785 197.71 213.982 197.86 213.18L200.049 213.595C199.9 214.397 199.743 215.2 199.594 216.009L197.404 215.594Z" fill="#263238"/>
<path d="M185.001 224.978C185.15 224.169 185.3 223.366 185.456 222.557L187.646 222.972C187.496 223.774 187.34 224.584 187.19 225.393L185.001 224.978Z" fill="#263238"/>
<path d="M188.931 207.828L185.722 207.216L184.98 211.126" stroke="#FDB717" stroke-miterlimit="10"/>
<path d="M200.6 210.038L203.803 210.644L203.068 214.547" stroke="#FDB717" stroke-miterlimit="10"/>
<path d="M185.035 228.398L181.832 227.786L182.566 223.883" stroke="#FDB717" stroke-miterlimit="10"/>
<path d="M196.704 230.608L199.913 231.214L200.654 227.31" stroke="#FDB717" stroke-miterlimit="10"/>
<path d="M206.89 206.271L207.488 203.014C207.552 202.678 207.549 202.334 207.479 202C207.408 201.665 207.273 201.348 207.079 201.067C206.886 200.786 206.638 200.545 206.351 200.36C206.064 200.175 205.744 200.048 205.408 199.988L188.088 196.785C187.411 196.66 186.712 196.809 186.144 197.199C185.577 197.589 185.188 198.189 185.062 198.866L184.457 202.123L206.89 206.271Z" fill="#263238" stroke="#263238" stroke-miterlimit="10"/>
<path d="M177.779 238.265L177.405 240.271C177.344 240.609 177.349 240.956 177.422 241.292C177.496 241.628 177.634 241.946 177.831 242.228C178.028 242.51 178.278 242.75 178.568 242.935C178.858 243.119 179.181 243.245 179.52 243.304L196.84 246.507C197.175 246.569 197.52 246.564 197.854 246.492C198.188 246.421 198.504 246.284 198.785 246.09C199.066 245.896 199.306 245.649 199.492 245.362C199.677 245.075 199.804 244.755 199.866 244.419L200.24 242.379L177.779 238.265Z" fill="#263238" stroke="#263238" stroke-miterlimit="10"/>
<path d="M172.149 230.35C172.149 230.35 178.214 231.254 180.084 231.601C181.954 231.948 189.455 229.684 190.094 230.874C190.733 232.064 189.802 233.594 188.054 234.797C186.306 236.001 179.214 237.245 179.214 237.245C177.689 239.687 175.377 241.534 172.659 242.481C168.327 243.841 161.493 243.637 161.493 243.637" fill="white"/>
<path d="M172.149 230.35C172.149 230.35 178.214 231.254 180.084 231.601C181.954 231.948 189.455 229.684 190.094 230.874C190.733 232.064 189.802 233.594 188.054 234.797C186.306 236.001 179.214 237.245 179.214 237.245C177.689 239.687 175.377 241.534 172.659 242.481C168.327 243.841 161.493 243.637 161.493 243.637" stroke="#263238" stroke-miterlimit="10"/>
<path d="M73.1408 312.256H175.141C175.386 308.931 176.263 291.339 169.81 267.424C162.629 240.808 162.629 215.064 162.629 215.064C162.629 215.064 167.491 204.082 161.364 194.997C155.237 185.912 147.186 183.335 147.186 183.335C147.186 183.335 103.074 169.653 94.826 170.707C94.826 170.707 74.1268 188.238 72.4404 189.298C70.754 190.359 66.1028 197.533 66.1028 201.756C66.1028 205.979 74.3376 265.329 75.3984 272.932C76.3776 279.915 73.5896 307.884 73.1408 312.256Z" fill="#FDB717" stroke="#263238" stroke-miterlimit="10"/>
<path d="M87.2303 208.284C87.2303 208.284 95.4652 240.387 104.128 252.001" stroke="#263238" stroke-miterlimit="10"/>
<path d="M95.88 241.23C95.88 241.23 101.157 252.212 107.073 257.285" stroke="#263238" stroke-miterlimit="10"/>
<path d="M170.163 116.28C170.163 116.28 169.952 129.88 168.66 131.519C167.368 133.158 165.342 135.646 165.458 137.013C165.573 138.38 168.484 146.826 168.633 148.002C168.783 149.178 163.914 151.47 163.914 151.47C163.914 151.47 155.958 167.334 155.142 168.518C154.326 169.701 152.422 169.517 150.239 169.075C148.056 168.633 144.119 166.124 144.119 166.124L136.456 180.513C136.456 180.513 124.093 170.374 118.524 166.58C112.955 162.785 106.08 158.896 106.08 158.896L113.268 148.825C113.268 148.825 116.62 144.507 117.504 137.204C118.388 129.9 120.333 120.122 135.64 112.628C150.946 105.135 165.995 113.132 170.163 116.28Z" fill="white" stroke="#263238" stroke-miterlimit="10"/>
<path d="M158.916 115.933C158.916 115.933 159.698 122.611 158.59 124.311C157.481 126.011 148.002 127.378 147.968 128.52C147.934 129.662 147.968 135.415 146.241 135.272C144.514 135.13 144.099 135.415 143.623 134.939C143.147 134.463 144.099 129.662 140.114 130.404C136.129 131.145 132.444 137.122 132.518 140.604C132.593 144.085 135.735 146.608 135.735 146.608C135.735 146.608 135.402 148.274 128.84 150.416C122.278 152.558 114.526 151.014 113.234 148.838C111.942 146.662 108.127 118.667 107.318 111.221C106.508 103.775 112.69 90.0456 123.495 86.8292C134.3 83.6128 146.989 85.3808 146.989 85.3808C146.989 85.3808 153.517 81.5048 159.229 83.7896C164.941 86.0744 166.24 92.854 166.24 92.854C166.24 92.854 176.861 92.48 179.71 99.3752C182.56 106.27 180.452 113.907 176.732 117.191C173.012 120.476 166.586 117.089 163.744 115.947C162.989 115.591 162.166 115.406 161.331 115.403C160.497 115.401 159.673 115.582 158.916 115.933Z" fill="#263238" stroke="#263238" stroke-miterlimit="10"/>
<path d="M168.64 131.498C168.64 131.498 165.539 127.806 162.112 131.539" stroke="#263238" stroke-miterlimit="10"/>
<path d="M163.88 136.388C163.662 137.455 163.037 138.23 162.479 138.122C161.922 138.013 161.636 137.047 161.847 135.98C162.058 134.912 162.69 134.137 163.248 134.246C163.805 134.354 164.064 135.32 163.88 136.388Z" fill="#263238"/>
<path d="M159.12 155.292C159.12 155.292 156.652 156.142 154.618 152.857" stroke="#263238" stroke-miterlimit="10"/>
<path d="M144.112 166.104C142.516 164.543 141.194 162.725 140.202 160.725C138.842 157.774 137.482 155.006 137.482 155.006C137.482 155.006 137.632 165.777 138.04 168.545C138.382 170.537 138.889 172.498 139.556 174.406L144.112 166.104Z" fill="#263238" stroke="#263238" stroke-miterlimit="10"/>
<path d="M100.735 163.003C100.735 163.003 103.176 158.488 104.496 158.304C105.815 158.12 126.684 163.377 131.39 166.015C136.095 168.654 140.794 175.229 140.794 175.229L100.735 163.003Z" fill="white" stroke="#263238" stroke-miterlimit="10"/>
<path d="M99.9599 161.31C99.9599 161.31 111.806 164.322 124.406 168.11C137.006 171.897 142.276 175.821 143.031 176.95C143.786 178.078 147.166 183.342 147.166 183.342C147.166 183.342 136.632 181.302 116.885 176.759C97.1379 172.217 93.1871 171.68 93.1871 171.68C93.1871 171.68 99.0419 162.812 99.9599 161.31Z" fill="#FDB717" stroke="#263238" stroke-miterlimit="10"/>
<path d="M122.502 215.254C122.502 215.254 130.104 258.774 130.737 263.833C131.369 268.892 130.104 282.193 130.737 292.556C131.216 299.221 132.334 305.825 134.076 312.276H171.476C171.163 310.522 168.076 292.937 167.491 283.914C166.852 274.394 166.641 238.292 165.376 229.425C164.111 220.558 164.56 215.043 164.56 215.043C164.56 215.043 167.28 200.892 164.138 194.133C160.997 187.374 148.294 185.293 145.778 185.048" fill="#FDB717"/>
<path d="M122.502 215.254C122.502 215.254 130.104 258.774 130.737 263.833C131.369 268.892 130.104 282.193 130.737 292.556C131.216 299.221 132.334 305.825 134.076 312.276H171.476C171.163 310.522 168.076 292.937 167.491 283.914C166.852 274.394 166.641 238.292 165.376 229.425C164.111 220.558 164.56 215.043 164.56 215.043C164.56 215.043 167.28 200.892 164.138 194.133C160.997 187.374 148.294 185.293 145.778 185.048" stroke="#263238" stroke-miterlimit="10"/>
<path d="M140.4 191.372C140.4 191.372 129.88 199.281 127.221 215.098L140.4 191.372Z" fill="#FDB717"/>
<path d="M140.4 191.372C140.4 191.372 129.88 199.281 127.221 215.098" stroke="#263238" stroke-miterlimit="10"/>
</svg>
