<svg width="84" height="84" viewBox="0 0 84 84" fill="none" xmlns="http://www.w3.org/2000/svg">
<path d="M49.5 39.5V39.525M24.9325 32.945C23.836 32.1022 22.9939 30.9727 22.4992 29.6813C22.0045 28.3899 21.8765 26.9868 22.1293 25.6272C22.3822 24.2675 23.006 23.0043 23.9319 21.9771C24.8578 20.9498 26.0497 20.1986 27.3759 19.8064C28.702 19.4141 30.1108 19.3962 31.4465 19.7546C32.7822 20.113 33.9928 20.8337 34.9445 21.8371C35.8962 22.8405 36.552 24.0875 36.8393 25.4403C37.1266 26.793 37.0343 28.1989 36.5725 29.5025M52 22V31.5075C55.0941 33.2978 57.4497 36.1311 58.645 39.5H61.9975C62.6606 39.5 63.2965 39.7634 63.7653 40.2322C64.2341 40.7011 64.4975 41.3369 64.4975 42V47C64.4975 47.663 64.2341 48.2989 63.7653 48.7678C63.2965 49.2366 62.6606 49.5 61.9975 49.5H58.6425C57.8025 51.875 56.375 54 54.4975 55.6825V60.75C54.4975 61.7445 54.1024 62.6984 53.3992 63.4016C52.6959 64.1049 51.7421 64.5 50.7475 64.5C49.753 64.5 48.7991 64.1049 48.0959 63.4016C47.3926 62.6984 46.9975 61.7445 46.9975 60.75V59.2925C46.1714 59.4309 45.3352 59.5003 44.4975 59.5H34.4975C33.6599 59.5003 32.8237 59.4309 31.9975 59.2925V60.75C31.9975 61.7445 31.6024 62.6984 30.8992 63.4016C30.1959 64.1049 29.2421 64.5 28.2475 64.5C27.253 64.5 26.2991 64.1049 25.5959 63.4016C24.8926 62.6984 24.4975 61.7445 24.4975 60.75V55.6825C22.2324 53.6574 20.6357 50.9922 19.9187 48.0396C19.2018 45.0871 19.3983 41.9864 20.4824 39.148C21.5665 36.3097 23.4869 33.8674 25.9896 32.1446C28.4923 30.4217 31.4592 29.4995 34.4975 29.5H40.7475L51.9975 22H52Z" stroke="#354052" stroke-width="2" stroke-linecap="round" stroke-linejoin="round"/>
</svg>
