<svg width="84" height="84" viewBox="0 0 84 84" fill="none" xmlns="http://www.w3.org/2000/svg">
<path d="M39.5 22H44.5M42 54.5V54.525M27 24.5C27 23.1739 27.5268 21.9021 28.4645 20.9645C29.4021 20.0268 30.6739 19.5 32 19.5H52C53.3261 19.5 54.5979 20.0268 55.5355 20.9645C56.4732 21.9021 57 23.1739 57 24.5V59.5C57 60.8261 56.4732 62.0979 55.5355 63.0355C54.5979 63.9732 53.3261 64.5 52 64.5H32C30.6739 64.5 29.4021 63.9732 28.4645 63.0355C27.5268 62.0979 27 60.8261 27 59.5V24.5Z" stroke="#3B3E44" stroke-width="2" stroke-linecap="round" stroke-linejoin="round"/>
</svg>
