<svg width="610" height="674" viewBox="0 0 610 674" fill="none" xmlns="http://www.w3.org/2000/svg">
<path d="M595 533.751V587H15C15 587 39.6093 543.252 95.2887 509.921C95.2887 509.921 105.566 510.947 104.923 504.052C104.279 497.159 100.427 488.823 104.923 492.671C109.419 496.518 109.419 506.577 111.345 502.189C113.272 497.8 110.704 488.16 113.915 491.698C117.127 495.237 120.338 502.114 122.908 498.355C125.477 494.596 175.577 480.491 179.43 479.848C183.285 479.208 181.257 470.984 182.335 470.779C187.781 469.75 182.372 478.565 188.289 476.001C194.204 473.436 211.547 473.276 219.255 468.547C226.962 463.819 368.913 450.354 472.967 473.115C577.02 495.876 595 533.751 595 533.751Z" fill="#8CB9F6"/>
<path d="M276.854 336.883C276.541 336.883 276.229 336.737 276.033 336.463C273.312 332.655 268.31 321.512 267.797 316.369C267.282 311.231 270.212 298.956 270.335 298.438C270.462 297.898 270.996 297.572 271.549 297.693C272.09 297.824 272.423 298.367 272.295 298.905C272.265 299.03 269.32 311.368 269.8 316.169C270.28 320.944 275.129 331.737 277.674 335.293C277.996 335.746 277.891 336.373 277.439 336.697C277.26 336.822 277.057 336.883 276.854 336.883Z" fill="#1D191F"/>
<path d="M291.159 450.392L284.535 449.915C291.719 447.995 296.175 436.445 298.955 428.506C299.477 427.022 299.976 425.598 300.477 424.292C302.954 417.847 303.172 397.798 303.041 390.093C302.003 386.462 299.239 377.628 297.302 374.747C296.461 373.501 296.172 372.108 296.462 370.721C297.076 367.806 300.053 365.925 302.682 364.265C303.52 363.736 304.735 362.967 305.241 362.499C305.828 358.78 310.166 357.619 313.378 356.761C314.383 356.492 315.337 356.237 316.099 355.954C319.213 353.097 332.832 327.084 335.828 313.121C338.359 301.321 334.073 297.168 334.028 297.126L337.959 292.546C338.695 293.157 345.043 298.97 341.736 314.385C339.164 326.369 324.269 359.174 318.596 361.458C317.458 361.913 316.179 362.256 314.939 362.586C313.767 362.901 311.881 363.406 311.166 363.852C310.791 366.279 308.417 367.779 305.914 369.361C304.935 369.979 303.227 371.059 302.568 371.771C305.418 376.379 308.6 387.539 308.963 388.83L309.075 389.586C309.13 392.428 309.518 417.608 306.117 426.452C305.635 427.706 305.157 429.072 304.658 430.496C301.544 439.386 301.43 447.646 291.159 450.392ZM305.18 363.097C305.18 363.098 305.18 363.1 305.18 363.102C305.18 363.102 305.18 363.098 305.18 363.097Z" fill="#3885EF"/>
<path d="M403.226 390.178C398.462 387.841 386.103 385.422 378.705 383.858C375.541 383.188 372.808 382.61 370.76 382.087C366.375 380.971 363.335 382.207 360.653 383.299C359.672 383.698 358.745 384.075 357.808 384.311C354.047 385.244 351.497 381.561 349.64 378.865C349.445 378.58 349.205 378.233 348.976 377.91C348.956 377.92 348.936 377.93 348.918 377.941C346.566 379.314 343.342 381.189 340.298 380.297C338.85 379.873 337.697 378.894 336.963 377.465C336.035 375.652 335.593 373.777 335.203 372.121C334.633 369.707 334.225 368.178 333.034 367.228C328.929 363.948 328.944 362.406 328.85 361.936L331.936 356.916C331.942 356.942 334.416 360.606 336.807 362.517C339.684 364.816 340.426 367.962 341.082 370.739C341.4 372.088 341.701 373.366 342.222 374.473C343.179 374.302 345.098 373.182 345.87 372.73C346.98 372.084 347.781 371.617 348.628 371.409C351.347 370.723 353.021 373.128 354.619 375.446C355.191 376.279 356.194 377.736 356.84 378.307C357.278 378.156 357.798 377.946 358.37 377.712C361.384 376.484 365.935 374.628 372.253 376.243C374.18 376.734 376.857 377.298 379.957 377.955C388.097 379.679 395.941 381.955 401.378 384.622L403.226 390.178Z" fill="#3885EF"/>
<path d="M437.462 422.859C437.272 422.859 437.083 422.805 436.911 422.696C425.681 415.382 400.379 413.323 400.125 413.302C399.571 413.259 399.157 412.776 399.202 412.222C399.246 411.668 399.743 411.217 400.284 411.299C401.343 411.38 426.35 413.415 438.013 421.011C438.479 421.315 438.609 421.939 438.307 422.404C438.112 422.697 437.79 422.859 437.462 422.859Z" fill="#1D191F"/>
<path d="M428.424 403.092C427.775 403.092 427.007 402.964 426.108 402.707C422.521 401.684 403.554 391.494 402.747 391.063C402.257 390.8 402.074 390.19 402.339 389.7C402.605 389.213 403.217 389.032 403.704 389.292C410.462 392.928 423.957 400.004 426.663 400.776C428.177 401.207 428.766 401.073 428.928 401.014C429.031 400.566 429.432 400.235 429.909 400.235C430.465 400.235 430.916 400.684 430.916 401.24C430.916 401.631 430.724 402.193 430.191 402.596C429.751 402.926 429.163 403.092 428.424 403.092ZM428.902 401.236V401.238V401.236Z" fill="#1D191F"/>
<path d="M438.971 389.673C438.971 389.673 429.405 398.975 429.405 399.98C429.405 400.985 436.201 407.019 436.706 409.029C437.208 411.04 441.741 408.526 443 409.029C444.258 409.533 444.006 413.052 440.482 413.806C436.958 414.56 437.21 423.611 438.469 424.868C439.728 426.125 450.552 431.655 456.594 437.941C462.636 444.226 465.909 450.51 468.426 451.515C470.944 452.52 473.461 453.274 474.216 448.247C474.97 443.219 475.727 432.41 469.181 424.616C462.635 416.824 459.867 416.068 457.853 416.068C455.84 416.068 452.566 416.32 453.825 413.554C455.083 410.788 457.853 408.274 456.845 406.012C455.838 403.751 448.035 388.92 438.971 389.673Z" fill="#1D191F"/>
<path d="M473.957 455.2C471.883 455.2 470.679 453.996 470.293 453.222C470.047 452.726 470.247 452.123 470.744 451.873C471.241 451.63 471.834 451.824 472.088 452.307C472.166 452.448 472.856 453.578 474.979 453.054C477.87 452.333 480.133 451.507 480.779 448.064C481.504 444.193 480.96 433.866 476.379 426.4C474.054 422.61 470.928 419.679 468.416 417.323C465.698 414.774 463.547 412.76 463.394 410.61C463.339 409.832 463.32 409.042 463.301 408.233C463.231 405.422 463.16 402.515 461.485 399.173C459.209 394.627 453.792 388.677 448.662 386.581C443.952 384.659 441.824 385.505 439.903 390.064C439.686 390.573 439.098 390.813 438.583 390.601C438.072 390.384 437.831 389.795 438.046 389.283C440.4 383.701 443.699 382.381 449.426 384.72C455.202 387.081 460.88 393.466 463.287 398.274C465.161 402.019 465.241 405.295 465.312 408.184C465.331 408.961 465.352 409.719 465.404 410.468C465.502 411.831 467.491 413.697 469.794 415.857C472.394 418.295 475.629 421.328 478.098 425.348C483.252 433.748 483.457 444.72 482.76 448.432C481.897 453.033 478.684 454.201 475.47 455.005C474.918 455.141 474.418 455.2 473.957 455.2Z" fill="#1D191F"/>
<path d="M294.751 297.689C289.808 297.689 280.858 297.04 276.17 292.706C273.647 290.373 272.406 288.506 271.311 286.858C270.365 285.435 269.548 284.207 268.054 282.813C264.187 279.205 265.778 275.015 265.85 274.838C266.053 274.319 266.639 274.069 267.155 274.27C267.67 274.473 267.924 275.053 267.726 275.569C267.677 275.696 266.587 278.689 269.431 281.344C271.095 282.898 272.015 284.282 272.988 285.745C274.072 287.374 275.193 289.06 277.538 291.23C282.374 295.703 293.103 295.757 296.292 295.654C296.85 295.63 297.313 296.075 297.328 296.63C297.344 297.186 296.907 297.648 296.351 297.665C295.885 297.679 295.346 297.689 294.751 297.689Z" fill="#1D191F"/>
<path d="M302.151 306.641C292.27 306.641 282.624 304.801 277.493 302.792C266.83 298.616 267.146 294.145 267.496 292.874C267.635 292.369 267.807 291.935 267.965 291.536C268.376 290.501 268.53 290.115 267.903 289.174C266.463 287.018 267.63 282.351 267.767 281.825C267.906 281.29 268.454 280.962 268.995 281.107C269.534 281.248 269.855 281.797 269.714 282.333C269.252 284.103 268.904 287.049 269.579 288.058C270.792 289.876 270.307 291.096 269.838 292.277C269.702 292.617 269.554 292.982 269.438 293.409C268.97 295.104 270.99 298.087 278.227 300.919C286.941 304.336 309.101 307.263 322.231 300.95C343.528 290.709 345.034 286.915 344.989 285.997C344.945 285.125 344.842 284.188 344.74 283.222C344.443 280.442 344.105 277.293 345.056 274.846C346.244 271.789 347.424 268.754 346.207 264.958C345.347 262.263 345.154 258.237 344.966 254.344C344.851 251.976 344.745 249.739 344.495 248.038C343.782 243.244 342.271 239.787 341.657 239.278C341.231 238.922 341.174 238.289 341.529 237.862C341.887 237.436 342.521 237.382 342.947 237.731C344.415 238.952 345.9 243.781 346.486 247.741C346.753 249.542 346.863 251.827 346.979 254.245C347.159 258.008 347.345 261.899 348.129 264.342C349.563 268.814 348.191 272.339 346.983 275.449C346.162 277.562 346.458 280.33 346.745 283.007C346.853 284.011 346.955 284.988 347 285.894C347.112 288.148 344.757 292.348 323.106 302.759C317.225 305.587 309.622 306.641 302.151 306.641Z" fill="#1D191F"/>
<path d="M392.749 308.373C387.614 308.373 381.927 307.229 379.338 306.635C375.294 305.711 374.485 300.407 373.896 296.537C373.68 295.116 373.352 292.97 372.954 292.632C370.549 291.031 370.163 289.628 370.163 285.945C370.163 284.04 369.069 282.587 367.805 280.903C367.025 279.865 366.218 278.793 365.571 277.5C364.163 274.689 359.283 260.948 360.472 256.986C361.299 254.214 357.923 247.976 352.357 245.809C346.312 243.456 334.23 235.989 333.719 235.671C333.247 235.379 333.101 234.759 333.393 234.287C333.689 233.815 334.313 233.674 334.779 233.962C334.903 234.039 347.212 241.651 353.087 243.936C359.434 246.406 363.58 253.614 362.4 257.564C361.539 260.43 365.602 273.071 367.371 276.602C367.936 277.731 368.687 278.731 369.414 279.696C370.77 281.502 372.175 283.37 372.175 285.945C372.175 289.374 372.51 289.921 374.077 290.963C375.193 291.708 375.485 293.606 375.883 296.234C376.414 299.719 377.076 304.056 379.783 304.676C389.099 306.808 399.628 307.373 400.746 303.582C401.68 300.412 401.277 295.375 400.924 290.932C400.666 287.702 400.423 284.653 400.715 282.61C401.153 279.538 395.438 258.166 392.022 245.397C390.363 239.195 389.054 234.297 388.644 232.346C387.433 226.614 352.269 201.204 343.264 197.538C335.506 194.383 323.937 190.255 312.795 190.572C312.498 190.602 312.209 190.458 312.013 190.237C310.024 188.01 307.487 185.52 306.496 184.947C306.338 185.113 306.101 185.369 305.882 185.603C303.478 188.197 297.86 194.274 289.812 193.248C282.871 192.364 278.848 190.753 276.947 189.942C276.914 190.741 276.774 191.736 276.05 192.458C276.002 192.507 275.946 192.552 275.888 192.59C275.718 192.701 271.594 195.276 260.31 194.257C249.363 193.264 243.334 192.715 232.837 182.235C229.904 179.305 226.484 175.723 222.864 171.93C214.426 163.092 204.865 153.075 201.211 151.25C197.04 149.167 189.523 148.328 186.819 148.085C186.519 151.256 184.971 160.534 177.104 163.642C177.123 164.887 177.662 168.575 182.49 174.88C183.198 175.805 184.097 176.989 185.143 178.371C193.268 189.096 212.296 214.214 218.337 216.801C220.287 217.636 223.523 218.796 227.27 220.138C237.448 223.784 250.114 228.323 253.894 232.098C257.086 235.285 259.844 247.413 262.276 258.114C263.699 264.372 265.169 270.841 266.039 271.883C267.339 273.442 270.017 274.803 272.169 275.897C274.357 277.009 275.621 277.677 276.174 278.507C276.481 278.969 276.356 279.592 275.894 279.901C275.433 280.205 274.807 280.085 274.498 279.622C274.211 279.191 272.573 278.358 271.257 277.689C268.939 276.512 266.056 275.047 264.493 273.171C263.368 271.822 262.229 266.988 260.312 258.559C258.177 249.164 255.252 236.294 252.47 233.518C249.009 230.061 236.05 225.418 226.588 222.029C222.812 220.676 219.55 219.508 217.542 218.648C211.012 215.853 192.453 191.357 183.535 179.585C182.49 178.208 181.596 177.026 180.889 176.102C174.242 167.421 175.059 163.137 175.174 162.679C175.259 162.347 175.504 162.08 175.826 161.97C184.438 159.053 184.872 147.095 184.877 146.974C184.886 146.701 185.004 146.443 185.206 146.259C185.408 146.075 185.67 145.986 185.948 145.996C186.381 146.024 196.621 146.712 202.11 149.452C206.079 151.433 215.351 161.147 224.319 170.542C227.932 174.327 231.344 177.901 234.259 180.813C244.239 190.779 249.671 191.272 260.489 192.253C270.015 193.123 274.013 191.31 274.689 190.956C274.925 190.614 274.937 189.912 274.944 189.437C274.953 188.874 274.972 187.556 276.174 187.556C276.49 187.556 276.763 187.673 277.419 187.956C279.084 188.673 282.982 190.352 290.064 191.251C297.071 192.133 302.207 186.6 304.401 184.235C305.121 183.46 305.425 183.139 305.764 182.971C306.35 182.679 307.423 182.143 313.199 188.551C324.542 188.345 336.2 192.494 344.019 195.677C353.091 199.367 389.115 224.845 390.61 231.931C391.01 233.83 392.312 238.706 393.965 244.877C399.018 263.773 403.163 279.677 402.706 282.893C402.443 284.716 402.678 287.657 402.928 290.77C403.297 295.387 403.713 300.622 402.675 304.149C401.722 307.406 397.467 308.373 392.749 308.373Z" fill="#1D191F"/>
<path d="M289.685 201.72C286.425 201.72 283.313 201.19 280.552 200.24C270.5 196.78 270.612 193.392 270.735 192.748C270.843 192.199 271.377 191.847 271.916 191.951C272.435 192.05 272.783 192.531 272.726 193.047C272.743 193.22 273.128 195.558 281.209 198.339C290.187 201.43 303.182 199.719 311.987 188.934C312.34 188.501 312.974 188.44 313.406 188.789C313.837 189.14 313.901 189.774 313.55 190.205C306.826 198.435 297.803 201.718 289.685 201.72Z" fill="#1D191F"/>
<path d="M201.668 122.195L77.1421 100.408L192.27 104.43L201.668 122.195Z" fill="#3885EF"/>
<path d="M181.172 104.042V98.3955L77.1421 100.408L181.172 104.042Z" fill="#033881"/>
<path d="M187.917 98.265L166.425 87L77.1421 100.408L187.917 98.265Z" fill="#3885EF"/>
<path d="M176.16 163.926C175.876 163.926 175.595 163.806 175.396 163.577C175.243 163.398 159.966 145.677 155.4 142.092C154.471 141.364 153.498 140.571 152.486 139.746C148.384 136.405 143.732 132.619 139.015 130.62C132.755 127.971 124.754 115.125 124.417 114.58C124.124 114.108 124.271 113.488 124.743 113.196C125.213 112.903 125.835 113.049 126.129 113.523C126.209 113.65 134.129 126.364 139.8 128.767C144.782 130.877 149.551 134.761 153.758 138.187C154.762 139.003 155.725 139.788 156.643 140.51C161.365 144.215 176.29 161.53 176.923 162.264C177.286 162.686 177.238 163.321 176.817 163.683C176.626 163.846 176.391 163.926 176.16 163.926Z" fill="#1D191F"/>
<path d="M145.655 112.245L79.8282 100.408L148.051 120.891L145.655 112.245Z" fill="#033881"/>
<path d="M158.083 123.902L182.535 131.244L184.213 119.177L155.142 113.949C155.142 113.949 155.786 117.708 156.153 119.198C156.521 120.686 158.083 123.902 158.083 123.902Z" fill="#033881"/>
<path d="M280.88 191.331C280.788 191.331 280.696 191.319 280.6 191.291C280.065 191.136 279.759 190.579 279.912 190.046C279.931 189.978 281.803 183.356 279.945 178.767C279.736 178.253 279.986 177.666 280.501 177.458C281.014 177.246 281.602 177.498 281.812 178.014C283.933 183.252 281.932 190.306 281.845 190.605C281.72 191.044 281.317 191.331 280.88 191.331Z" fill="#1D191F"/>
<path d="M303.298 187.827C302.987 187.827 302.681 187.683 302.485 187.412C299.731 183.629 295.141 177.005 295.318 175.143C295.372 174.588 295.897 174.171 296.415 174.239C296.97 174.291 297.375 174.782 297.324 175.334C297.394 176.378 300.903 181.814 304.114 186.231C304.441 186.681 304.342 187.309 303.891 187.636C303.71 187.764 303.504 187.827 303.298 187.827Z" fill="#1D191F"/>
<path d="M415.808 344.229C415.579 344.229 415.336 344.203 415.09 344.149C412.31 343.533 401.431 332.401 399.399 329.693C397.504 327.17 394.706 325.623 393.673 325.152C393.044 325.845 391.827 328.25 391.653 330.427C391.448 332.999 391.053 335.518 389.551 336.541C389.071 336.871 388.247 337.187 387.094 336.839C384.006 335.907 384.481 333.039 385.138 329.069L385.364 327.675C385.881 324.406 387.731 320.935 388.835 318.86C389.111 318.337 389.419 317.763 389.569 317.431C388.772 316.08 385.491 310.708 383.261 307.067C382.972 306.593 383.121 305.975 383.594 305.685C384.062 305.398 384.688 305.544 384.978 306.018C386.029 307.732 391.279 316.309 391.537 316.825C391.857 317.466 391.568 318.008 390.61 319.806C389.563 321.768 387.816 325.052 387.352 327.991L387.122 329.399C386.441 333.53 386.408 334.534 387.675 334.916C388.153 335.06 388.337 334.935 388.414 334.883C389.327 334.259 389.567 331.255 389.645 330.267C389.873 327.401 391.521 324.121 392.735 323.319C393.284 322.958 393.745 323.034 393.976 323.109C395.042 323.465 398.688 325.397 401.009 328.488C403.676 332.039 413.833 341.812 415.525 342.187C415.715 342.227 416.04 342.272 416.13 342.093C416.308 341.755 416.174 340.539 414.63 339.138C412.639 337.334 406.053 328.79 406.628 326.713C406.752 326.26 407.099 325.934 407.557 325.843C408.499 325.658 409.445 326.338 414.812 331.077C417.57 333.513 421.739 337.194 422.803 337.407C423.384 337.523 423.768 337.572 424.02 337.589C423.899 337.35 423.683 336.992 423.302 336.47C422.463 335.317 420.804 333.5 419.201 331.742C416.88 329.196 414.687 326.791 413.913 325.362C413.651 324.873 413.833 324.263 414.322 323.999C414.807 323.743 415.421 323.918 415.687 324.407C416.342 325.621 418.651 328.153 420.689 330.386C422.403 332.268 424.024 334.042 424.93 335.285C425.843 336.539 426.597 337.836 425.954 338.84C425.3 339.857 423.841 339.663 422.407 339.376C420.917 339.077 418.037 336.61 413.473 332.58C412.258 331.506 410.789 330.21 409.61 329.236C411.182 331.877 414.186 336.02 415.979 337.647C417.9 339.39 418.677 341.55 417.914 343.019C417.516 343.798 416.74 344.229 415.808 344.229Z" fill="#1D191F"/>
<path d="M425.995 335.823C424.589 335.823 422.821 335.183 421.918 334.676C421.435 334.403 421.263 333.79 421.538 333.306C421.811 332.823 422.426 332.651 422.911 332.926C424.203 333.655 425.957 333.92 426.343 333.783C426.385 333.736 426.416 333.696 426.423 333.683C426.409 333.684 426.38 333.085 424.504 331.332C421.771 328.774 417.481 323.181 415.762 320.893C415.482 320.52 415.466 319.874 415.765 319.516C416.972 318.066 427.237 322.86 427.34 322.911C427.447 322.966 427.517 322.968 427.538 322.966C427.557 322.9 427.571 322.148 426.251 321.068C424.66 319.768 415.696 316.483 402.271 312.276L402.031 312.199C399.187 311.309 397.982 307.272 397.853 306.813C397.704 306.279 398.015 305.725 398.549 305.574C399.098 305.428 399.641 305.737 399.792 306.268C400.062 307.221 401.098 309.798 402.631 310.281L402.873 310.355C412.82 313.472 425.175 317.591 427.524 319.511C429.758 321.336 429.817 323.114 429.189 324.083C428.611 324.972 427.479 325.227 426.435 324.708C425.399 324.189 421.541 322.659 418.964 321.773C420.913 324.291 423.888 328.003 425.877 329.861C427.701 331.568 428.459 332.747 428.418 333.802C428.383 334.71 427.753 335.212 427.515 335.403C427.143 335.704 426.604 335.823 425.995 335.823Z" fill="#1D191F"/>
<path d="M266.475 104.042C266.475 104.042 254.03 107.249 252.35 114.052C250.672 120.855 252.35 127.894 257.721 127.224C263.092 126.553 270.14 121.86 274.838 122.195C279.538 122.53 278.531 124.294 276.852 127.267C275.174 130.24 278.194 135.268 286.585 132.92C294.976 130.575 295.311 126.217 301.353 127.892C307.395 129.568 301.882 143.31 303.295 145.323C304.709 147.333 304.966 150.016 308.195 145.323C311.424 140.63 316.121 134.261 321.157 135.938C326.192 137.614 316.457 147.335 311.423 149.346C306.388 151.356 306.388 151.356 306.388 151.356C306.388 151.356 304.375 165.427 301.353 167.441C301.353 167.441 321.492 164.764 329.212 157.725C336.932 150.686 330.219 150.686 331.561 147C332.903 143.312 340.623 143.047 340.623 138.487C340.623 133.928 339.616 134.598 332.567 131.247C325.519 127.896 327.532 126.218 328.539 124.543C329.546 122.867 330.552 119.85 324.846 118.174C319.14 116.499 305.635 112.476 308.193 108.789C310.749 105.103 311.95 97.7275 303.293 98.3994C294.636 99.0714 286.355 104.662 281.433 104.046C276.518 103.424 271.926 102.051 266.475 104.042Z" fill="#1D191F"/>
<path d="M282.895 179.847C282.819 179.847 282.741 179.839 282.661 179.82C282.089 179.682 281.317 179.514 280.394 179.313C274.532 178.036 262.341 175.38 255.849 170.779C247.903 165.15 249.342 151.155 250.766 146.693C252.124 142.432 255.414 127.153 255.445 126.998C255.503 126.732 255.666 126.501 255.895 126.357C256.13 126.213 256.408 126.17 256.671 126.234C257 126.314 257.179 126.321 257.269 126.323C257.372 126.272 257.481 126.238 257.598 126.224C259.886 125.937 262.614 124.833 265.253 123.762C268.774 122.336 272.109 120.985 274.91 121.19C276.45 121.3 278.305 121.591 278.997 122.874C279.724 124.227 278.85 125.776 277.742 127.739C277.213 128.675 277.344 129.859 278.065 130.776C279.465 132.565 282.55 133.002 286.315 131.95C289.744 130.992 291.794 129.667 293.442 128.601C295.831 127.059 297.718 125.838 301.623 126.92C306.453 128.26 305.347 135.166 304.538 140.208C304.266 141.916 303.89 144.255 304.133 144.764C304.389 145.125 304.619 145.53 304.836 145.908C305.046 146.28 305.364 146.84 305.529 146.941C305.484 146.906 306.009 146.719 307.364 144.75C310.191 140.637 315.459 132.971 321.475 134.982C322.788 135.417 323.53 136.357 323.567 137.624C323.683 141.599 316.203 148.514 311.794 150.275L307.239 152.094C306.632 154.515 304.013 164.698 302.231 167.923C302.137 168.093 302.024 168.315 301.889 168.579C300.767 170.777 298.434 175.35 293.931 177.717C293.442 177.976 292.834 177.786 292.571 177.295C292.312 176.804 292.5 176.196 292.994 175.937C296.927 173.869 299.067 169.68 300.093 167.666C300.24 167.379 300.364 167.138 300.466 166.95C302.323 163.59 305.373 151.235 305.404 151.112C305.481 150.796 305.707 150.539 306.008 150.417L311.043 148.407C314.915 146.86 321.63 140.404 321.548 137.683C321.539 137.411 321.477 137.102 320.832 136.886C316.814 135.549 312.778 140.421 309.017 145.887C307.477 148.125 306.39 148.96 305.356 148.929C304.203 148.881 303.605 147.827 303.076 146.898C302.892 146.571 302.696 146.222 302.464 145.894C301.776 144.915 302.017 143.159 302.542 139.887C303.229 135.594 304.173 129.715 301.075 128.856C298.043 128.012 296.793 128.821 294.525 130.287C292.762 131.426 290.57 132.842 286.847 133.882C280.261 135.726 277.392 133.19 276.469 132.012C275.243 130.452 275.047 128.392 275.965 126.765C276.582 125.67 277.415 124.197 277.212 123.821C277.186 123.772 276.895 123.343 274.755 123.19C272.415 123.018 269.149 124.343 265.999 125.619C263.313 126.708 260.536 127.833 258.036 128.186C257.808 128.283 257.577 128.332 257.206 128.326C256.468 131.735 253.882 143.507 252.676 147.295C251.422 151.219 250.059 164.209 257.003 169.131C263.162 173.494 275.084 176.092 280.813 177.34C281.755 177.545 282.539 177.717 283.12 177.856C283.661 177.986 283.994 178.528 283.866 179.07C283.765 179.538 283.351 179.847 282.895 179.847ZM256.979 126.545C256.979 126.547 256.979 126.547 256.977 126.547C256.979 126.545 256.979 126.545 256.979 126.545ZM256.98 126.541C256.98 126.541 256.98 126.543 256.979 126.543C256.98 126.543 256.98 126.541 256.98 126.541ZM257.024 126.498C257.01 126.512 256.996 126.526 256.98 126.541C256.994 126.526 257.01 126.512 257.024 126.498Z" fill="#1D191F"/>
<path d="M253.303 142.022C253.143 142.022 252.983 141.984 252.834 141.906C247.619 139.157 244.629 133.716 243.568 129.54C243.248 128.276 242.817 125.993 243.542 124.906C244.065 124.119 244.961 123.72 245.988 123.824C247.64 123.978 249.98 125.499 251.596 129.302C253.517 133.827 255.127 135.921 255.146 135.942C255.487 136.379 255.407 137.011 254.97 137.353C254.53 137.693 253.899 137.615 253.559 137.181C253.487 137.089 251.78 134.889 249.744 130.088C248.384 126.888 246.627 125.902 245.801 125.826C245.397 125.786 245.258 125.963 245.218 126.022C244.644 127.286 246.693 136.393 253.772 140.128C254.265 140.386 254.452 140.994 254.193 141.485C254.012 141.828 253.663 142.022 253.303 142.022Z" fill="#1D191F"/>
<path d="M294.36 139.249C294.181 139.249 294.004 139.232 293.832 139.194C292.971 139.011 292.359 138.395 292.152 137.502C291.881 136.329 289.361 134.643 287.661 133.82C287.162 133.578 286.952 132.976 287.193 132.476C287.437 131.976 288.038 131.767 288.539 132.009C289.367 132.408 293.534 134.53 294.117 137.051C294.151 137.206 294.193 137.214 294.252 137.226C294.546 137.294 295.082 137.077 295.382 136.676C295.635 136.341 295.652 135.978 295.431 135.566C294.125 133.12 293.207 131.738 292.091 131.45C291.552 131.311 291.23 130.762 291.37 130.224C291.509 129.687 292.054 129.357 292.599 129.503C294.619 130.028 295.833 132.044 297.208 134.622C297.797 135.73 297.719 136.919 296.989 137.886C296.349 138.735 295.327 139.249 294.36 139.249Z" fill="#1D191F"/>
<path d="M258.225 132.251C258.117 132.251 258.011 132.233 257.907 132.198C256.646 131.778 255.881 131.094 255.633 130.16C255.254 128.731 256.342 127.465 256.469 127.325C256.841 126.913 257.478 126.878 257.891 127.248C258.303 127.618 258.34 128.248 257.975 128.662C257.797 128.863 257.504 129.36 257.582 129.648C257.627 129.816 257.844 129.993 258.182 130.148C259.105 129.722 261.407 128.792 264.06 128.689C264.658 128.665 265.102 128.326 265.38 127.681C265.7 126.931 265.635 126.121 265.507 125.791C265.053 125.852 264.587 125.59 264.424 125.147C264.239 124.637 264.462 124.081 264.966 123.88C265.651 123.605 266.353 123.746 266.859 124.246C267.805 125.182 267.786 127.049 267.287 128.328C266.722 129.778 265.574 130.643 264.137 130.698C261.212 130.815 258.722 132.118 258.696 132.132C258.552 132.211 258.389 132.251 258.225 132.251Z" fill="#1D191F"/>
<path d="M260.743 138.244C259.359 137.722 258.515 137.406 257.625 137.211C257.187 137.1 256.739 137.001 256.208 136.916C255.678 136.817 255.096 136.76 254.35 136.562C255.087 135.272 256.667 134.721 258.159 135.067C259.639 135.435 260.838 136.73 260.743 138.244Z" fill="#1D191F"/>
<path d="M279.036 141.015C279.658 140.171 280.59 139.631 281.584 139.339C282.584 139.032 283.679 139.006 284.721 139.232C285.745 139.503 286.75 139.924 287.51 140.642C288.303 141.303 288.889 142.17 289.217 143.144C288.221 142.805 287.418 142.407 286.602 142.11C285.804 141.786 285.022 141.569 284.241 141.39C283.464 141.18 282.659 141.114 281.81 141.043C280.955 140.994 280.068 140.994 279.036 141.015Z" fill="#1D191F"/>
<path d="M266.621 152.99C266.557 152.99 266.494 152.985 266.428 152.971C266.291 152.945 263.048 152.307 261.16 151.418C260.505 151.109 260.061 150.595 259.879 149.932C259.47 148.449 260.538 146.76 260.757 146.437L265.726 136.665C265.771 136.577 265.83 136.493 265.898 136.422C266.939 135.347 267.939 135.219 268.591 135.292C270.156 135.479 271.079 136.976 271.18 137.146C271.297 137.346 271.342 137.578 271.305 137.806C271.293 137.88 270.18 145.202 270.059 148.253C269.906 152.087 267.012 152.92 266.889 152.953C266.8 152.978 266.71 152.99 266.621 152.99ZM267.445 137.719L262.487 147.454C262.095 148.055 261.701 148.972 261.821 149.399C261.835 149.449 261.854 149.521 262.021 149.599C263.387 150.245 265.738 150.771 266.538 150.939C266.969 150.734 267.967 150.057 268.042 148.172C268.155 145.397 269.012 139.513 269.252 137.905C269.04 137.648 268.697 137.327 268.344 137.287C268.064 137.259 267.779 137.401 267.445 137.719Z" fill="#1D191F"/>
<path d="M254.352 140.956C255.336 140.647 255.765 140.836 256.73 141.215C259.341 142.237 260.249 146.142 259.693 147.559C259.136 148.978 257.325 147.372 254.713 146.349C253.866 146.017 253.776 146.285 253.065 146.078L254.352 140.956Z" fill="#3885EF"/>
<path d="M274.96 150.675C274.668 152.488 277.878 151.986 281.64 152.592C285.403 153.198 288.292 154.684 288.584 152.87C288.876 151.057 286.463 146.631 282.701 146.025C278.938 145.419 275.254 148.861 274.96 150.675Z" fill="#3885EF"/>
<path d="M265.55 160.574C267.821 159.878 269.747 159.52 271.601 158.949C272.54 158.709 273.399 158.338 274.313 157.98C275.238 157.612 276.081 157.09 277.189 156.551C276.979 157.718 276.379 158.847 275.476 159.658C274.598 160.498 273.499 161.106 272.352 161.451C271.194 161.764 270.003 161.896 268.84 161.75C267.684 161.616 266.538 161.286 265.55 160.574Z" fill="#1D191F"/>
<path d="M309.747 244.576C309.747 254.181 305.719 261.969 291.272 261.969C281.07 261.969 274.943 254.181 274.943 244.576C274.943 234.971 279.035 227.184 291.272 227.184C303.347 227.184 309.747 234.971 309.747 244.576Z" fill="#3885EF"/>
<path d="M289.49 246.725C289.374 246.725 289.268 246.723 289.167 246.718C288.596 246.688 287.534 246.633 287.237 245.759C286.957 244.938 287.632 244.363 288.124 243.945C288.306 243.789 288.663 243.485 288.79 243.294C288.76 243.276 288.711 243.235 288.64 243.186C287.331 242.271 278.599 242.558 270.914 243.361C270.365 243.419 269.866 243.019 269.809 242.467C269.749 241.915 270.151 241.42 270.706 241.363C273.439 241.076 287.211 239.74 289.793 241.538C290.454 242 290.807 242.554 290.834 243.186C290.864 243.78 290.596 244.275 290.253 244.684C291.09 244.624 292.23 244.488 293.562 244.329C299.382 243.634 309.118 242.471 317.721 244.743C318.258 244.886 318.578 245.436 318.438 245.973C318.295 246.509 317.749 246.831 317.207 246.688C308.977 244.513 299.479 245.646 293.8 246.325C291.886 246.553 290.443 246.725 289.49 246.725Z" fill="#1D191F"/>
<path d="M148.972 129.234C148.582 129.234 148.21 129.007 148.045 128.625C147.058 126.322 147.038 121.917 147.044 121.027L144.662 112.666C144.564 112.333 144.649 111.975 144.882 111.718C145.112 111.462 145.456 111.34 145.802 111.401L154.228 112.875C154.629 112.946 156.648 113.526 157.022 118.091C157.191 120.143 157.823 121.536 158.936 123.388C159.223 123.864 159.068 124.482 158.59 124.767C158.116 125.05 157.497 124.899 157.21 124.421C155.97 122.358 155.215 120.688 155.017 118.256C154.769 115.259 153.804 114.839 153.795 114.835L147.04 113.658L149.022 120.619C149.05 120.714 149.064 120.811 149.062 120.912C149.038 122.242 149.144 126.076 149.9 127.835C150.118 128.345 149.883 128.936 149.372 129.154C149.24 129.208 149.106 129.234 148.972 129.234Z" fill="#1D191F"/>
<path d="M185.893 148.005C185.715 148.005 185.54 147.96 185.378 147.864C183.083 146.498 162.88 134.377 160.171 129.378C159.995 129.057 160.009 128.666 160.209 128.359C160.214 128.348 161.03 127.029 161.2 125.054C161.249 124.501 161.755 124.086 162.29 124.139C162.845 124.186 163.253 124.674 163.207 125.228C163.062 126.879 162.558 128.162 162.221 128.859C165.173 132.972 180.525 142.634 186.409 146.137C186.887 146.421 187.044 147.038 186.759 147.515C186.569 147.829 186.235 148.005 185.893 148.005Z" fill="#1D191F"/>
<path d="M288.171 492.208C288.171 492.208 287.218 477.536 286.375 476.816C285.531 476.095 275.597 477.462 273.547 476.442C271.498 475.423 270.361 481.018 269.036 481.71C267.713 482.403 264.939 479.672 266.832 476.18C268.725 472.689 260.948 466.415 258.99 466.568C257.033 466.721 244.634 471.819 235.03 472.373C225.425 472.926 217.807 471.162 215.159 472.55C212.511 473.937 210.075 475.503 213.754 479.738C217.433 483.973 225.964 492.35 237.196 492.456C248.426 492.562 251.045 490.784 252.488 489.098C253.931 487.412 256.064 484.494 257.485 487.529C258.905 490.564 259.031 494.682 261.651 495.462C264.269 496.238 282.311 500.334 288.171 492.208Z" fill="#1D191F"/>
<path d="M271.371 507.152C268.49 507.152 265.757 506.841 263.558 506.296C259.093 505.187 256.295 502.914 253.826 500.91C253.162 500.368 252.509 499.837 251.843 499.347C250.593 498.429 247.579 498.761 244.1 499.141C240.197 499.57 235.337 500.101 230.213 499.29C219.494 497.59 210.168 489.925 207.559 486.688C204.354 482.717 205.662 479.225 207.279 475.989C208.774 472.994 211.255 472.723 212.362 472.99C212.903 473.124 213.232 473.669 213.098 474.208C212.964 474.741 212.434 475.074 211.893 474.945C211.712 474.911 210.187 474.666 209.082 476.887C207.599 479.856 206.66 482.372 209.129 485.428C211.862 488.819 220.946 495.786 230.528 497.304C235.384 498.076 240.094 497.557 243.879 497.142C247.941 496.698 251.154 496.344 253.039 497.729C253.731 498.24 254.407 498.788 255.097 499.349C257.516 501.313 260.016 503.343 264.045 504.344C269.502 505.7 278.415 505.426 283.873 502.626C288.93 500.026 289.756 497.604 287.273 492.656C287.025 492.161 287.226 491.557 287.724 491.307C288.212 491.058 288.822 491.255 289.075 491.756C292.039 497.66 290.799 501.329 284.792 504.412C281.03 506.345 276.012 507.152 271.371 507.152Z" fill="#1D191F"/>
<path d="M262.669 473.435C262.301 473.435 261.946 473.232 261.769 472.882C261.525 472.394 261.713 471.805 262.188 471.546C262.334 471.454 266.87 468.36 271.816 448.004C271.949 447.466 272.489 447.146 273.034 447.264C273.574 447.396 273.905 447.94 273.776 448.48C268.529 470.072 263.659 473.059 263.123 473.33C262.977 473.402 262.824 473.435 262.669 473.435Z" fill="#1D191F"/>
<path d="M283.095 480.443C282.568 480.443 282.125 480.033 282.092 479.5C281.617 471.935 291.629 450.966 292.055 450.077C292.295 449.572 292.9 449.365 293.399 449.603C293.899 449.842 294.113 450.443 293.873 450.945C293.771 451.159 283.662 472.329 284.102 479.373C284.137 479.927 283.714 480.405 283.16 480.439C283.139 480.443 283.118 480.443 283.095 480.443Z" fill="#1D191F"/>
<path d="M290.947 451.67C284.342 451.67 272.474 448.161 266.78 444.843C260.842 441.385 262.638 428.562 264.22 417.248C264.415 415.854 264.606 414.489 264.777 413.175C265.479 407.801 265.297 397.448 265.117 387.433C264.907 375.6 264.709 364.425 265.804 359.78C267.826 351.2 285.296 319.156 286.039 317.799C286.301 317.309 286.917 317.128 287.404 317.397C287.892 317.663 288.073 318.273 287.805 318.76C287.626 319.092 269.723 351.922 267.764 360.241C266.727 364.64 266.934 376.209 267.132 387.396C267.312 397.486 267.496 407.916 266.776 413.435C266.602 414.755 266.411 416.128 266.216 417.528C264.794 427.685 263.024 440.327 267.795 443.107C273.719 446.555 287.654 450.465 292.783 449.521C295.292 449.066 303.853 446.604 308.638 434.064C312.524 423.872 313.606 390.162 313.606 386.658C313.606 385.729 311.947 382.939 310.735 380.902C308.323 376.845 307.211 374.843 308.228 373.711C309.052 372.792 310.466 373.436 311.001 373.678C313.34 374.739 315.497 376.473 317.071 377.739C317.45 378.043 317.876 378.385 318.25 378.668C318.225 378.578 318.203 378.482 318.173 378.378C317.74 376.789 317.253 375.383 316.864 374.254C316.015 371.808 315.549 370.459 316.342 369.552C316.772 369.061 317.439 368.905 318.335 369.084C320.976 369.61 322.414 369.403 323.467 368.353C324.825 366.901 348.685 328.322 350.382 320.091C352.288 310.84 352.122 300.569 350.01 297.194C347.546 293.256 344.551 289.261 344.519 289.219C344.187 288.775 344.278 288.144 344.723 287.813C345.166 287.481 345.797 287.568 346.133 288.014C346.162 288.054 349.207 292.117 351.717 296.13C354.482 300.547 354.108 311.98 352.352 320.495C350.596 329.02 326.383 368.283 324.891 369.773C322.944 371.717 320.421 371.544 317.98 371.061C318.088 371.636 318.444 372.665 318.768 373.596C319.168 374.753 319.667 376.195 320.117 377.847C320.472 379.147 320.741 380.465 319.818 381.067C318.809 381.722 317.747 380.862 315.81 379.305C314.237 378.039 312.276 376.463 310.17 375.506C310.128 375.489 310.092 375.471 310.054 375.456C310.499 376.555 311.648 378.494 312.47 379.876C314.432 383.174 315.621 385.274 315.621 386.658C315.621 387.006 314.838 423.459 310.519 434.78C305.361 448.304 295.916 450.997 293.147 451.502C292.509 451.617 291.77 451.67 290.947 451.67Z" fill="#1D191F"/>
<path d="M382.398 419.927C381.513 419.927 380.701 419.894 379.988 419.838C375.816 419.519 361.311 414.765 348.515 410.571C340.835 408.054 333.578 405.675 329.965 404.725C320.188 402.157 314.082 394.644 313.827 394.327C313.481 393.893 313.55 393.261 313.985 392.915C314.418 392.568 315.049 392.635 315.4 393.07C315.457 393.142 321.364 400.386 330.476 402.782C334.15 403.746 341.433 406.135 349.144 408.663C361.202 412.615 376.21 417.534 380.141 417.838C386.025 418.291 395.989 417.044 399.354 411.763C402.742 406.444 403.161 393.624 402.257 390.457L402.136 390.024C401.058 386.21 398.533 377.276 390.32 374.542C380.03 371.116 362.066 366.197 360.152 366.523C359.754 366.622 359.316 367.6 359.053 368.183C358.65 369.078 358.234 370.001 357.269 370.022C356.25 370.013 355.734 368.965 355.501 368.508C355.139 367.786 354.776 366.921 354.407 366.041C353.847 364.704 352.681 361.922 352.036 361.768C351.396 362.256 350.542 363.339 349.791 364.294C348.181 366.343 347.101 367.682 345.882 367.263C344.82 366.898 344.82 365.549 344.82 365.042C344.82 363.745 345.058 362.514 345.27 361.429C345.816 358.608 345.835 357.635 343.963 356.934C339.505 355.265 338.528 347.886 338.528 345.183C338.528 344.627 338.978 344.177 339.534 344.177C340.091 344.177 340.541 344.627 340.541 345.183C340.541 346.94 341.242 353.767 344.671 355.052C348.292 356.409 347.736 359.278 347.247 361.809C347.065 362.754 346.875 363.728 346.84 364.719C347.279 364.23 347.804 363.563 348.207 363.053C349.116 361.896 349.975 360.806 350.761 360.214C351.469 359.686 352.13 359.71 352.562 359.826C354.167 360.262 355.139 362.58 356.262 365.263C356.579 366.015 356.888 366.756 357.196 367.398C357.201 367.385 357.208 367.372 357.213 367.359C357.679 366.325 358.317 364.907 359.679 364.568C362.243 363.942 384.168 370.378 390.954 372.635C400.18 375.707 403.007 385.713 404.069 389.481L404.189 389.904C405.222 393.511 404.848 406.884 401.051 412.844C397.452 418.492 388.318 419.927 382.398 419.927Z" fill="#1D191F"/>
<path d="M516.784 485.643C516.174 485.643 515.805 485.594 515.722 485.58C515.172 485.495 514.795 484.983 514.88 484.434C514.965 483.886 515.492 483.505 516.023 483.594C516.156 483.61 528.115 485.044 538.773 464.802C547.912 447.436 548.339 442.211 548.211 440.916C547.866 441.15 547.437 441.55 547.042 441.916C546.122 442.77 544.977 443.833 543.464 444.444C541.458 445.25 519.879 463.585 515.463 482.823C515.341 483.365 514.805 483.709 514.258 483.578C513.715 483.455 513.376 482.915 513.501 482.375C518.133 462.199 540.347 443.529 542.713 442.579C543.881 442.109 544.832 441.223 545.672 440.444C546.548 439.631 547.305 438.928 548.218 438.749C548.809 438.636 549.384 438.858 549.756 439.358C552.145 442.562 545.018 457.263 540.555 465.738C530.899 484.078 520.164 485.643 516.784 485.643Z" fill="#1D191F"/>
<path d="M518.324 483.267C518.037 483.267 517.754 483.145 517.554 482.909C517.196 482.482 517.251 481.848 517.676 481.491C517.813 481.376 531.427 469.84 537.324 457.325C537.561 456.825 538.162 456.609 538.663 456.844C539.167 457.08 539.383 457.679 539.145 458.181C533.056 471.1 519.545 482.548 518.973 483.029C518.783 483.19 518.554 483.267 518.324 483.267Z" fill="#1D191F"/>
<path d="M515.939 459.026C515.909 459.026 515.882 459.024 515.854 459.023C515.299 458.977 514.885 458.49 514.934 457.939C516.308 441.425 524.372 424.404 538.907 407.34C539.517 406.625 539.938 406.133 540.11 405.887C540.388 405.484 540.715 404.862 541.066 404.203C542.243 401.991 543.196 400.244 544.575 400.634C545.773 400.966 546.315 402.402 545.952 409.33C545.222 423.271 535.744 450.098 535.344 451.234C535.158 451.758 534.577 452.034 534.058 451.846C533.533 451.659 533.26 451.084 533.444 450.562C533.543 450.287 543.226 422.873 543.942 409.224C544.119 405.833 544.041 404.102 543.93 403.228C543.556 403.814 543.123 404.624 542.843 405.149C542.452 405.887 542.078 406.583 541.765 407.033C541.576 407.307 541.115 407.854 540.44 408.647C526.183 425.382 518.277 442.024 516.94 458.106C516.895 458.628 516.455 459.026 515.939 459.026Z" fill="#1D191F"/>
<path d="M516.448 468.919C516.356 468.919 516.259 468.906 516.165 468.878C515.631 468.723 515.325 468.164 515.483 467.631C521.348 447.601 535.005 422.427 535.143 422.173C535.41 421.689 536.022 421.51 536.509 421.77C536.998 422.036 537.179 422.646 536.913 423.135C536.775 423.385 523.221 448.374 517.415 468.197C517.285 468.635 516.885 468.919 516.448 468.919Z" fill="#1D191F"/>
<path d="M510.41 483.608C510.158 483.608 509.906 483.514 509.711 483.327C509.017 482.658 492.736 466.745 494.633 446.924C496.287 429.642 500.506 413.231 503.845 411.086C504.491 410.672 505.055 410.729 505.411 410.852C507.409 411.54 507.825 414.481 508.351 418.209C508.744 421.002 509.193 424.168 510.333 426.84C513.14 433.426 519.889 463.561 516.267 479.885C516.148 480.427 515.626 480.769 515.066 480.649C514.524 480.53 514.181 479.991 514.301 479.45C517.836 463.526 511.227 434.07 508.482 427.63C507.237 424.711 506.769 421.405 506.357 418.49C506.03 416.174 505.625 413.319 504.869 412.811C503.003 413.997 498.484 427.821 496.638 447.116C494.833 465.981 510.944 481.721 511.107 481.877C511.509 482.262 511.521 482.9 511.135 483.299C510.937 483.506 510.674 483.608 510.41 483.608Z" fill="#1D191F"/>
<path d="M511.728 481.227C511.344 481.227 510.977 481.005 510.81 480.632C502.196 461.435 500.712 434.472 500.698 434.202C500.668 433.648 501.096 433.174 501.649 433.148C501.668 433.146 501.685 433.146 501.703 433.146C502.236 433.146 502.68 433.563 502.707 434.101C502.721 434.367 504.191 460.963 512.648 479.812C512.875 480.319 512.648 480.915 512.14 481.141C512.004 481.2 511.865 481.227 511.728 481.227Z" fill="#1D191F"/>
<path d="M510.544 431.535C510.013 431.535 509.57 431.124 509.539 430.589C507.993 404.102 518.989 381.24 524.272 370.251C525.54 367.619 526.538 365.54 526.872 364.422C528.038 360.517 529.532 359.864 530.552 359.996C532.068 360.196 534.125 362.021 534.49 375.482C534.946 392.46 530.007 422.152 529.958 422.451C529.866 422.999 529.351 423.369 528.798 423.276C528.252 423.184 527.88 422.664 527.972 422.118C528.021 421.822 532.931 392.317 532.477 375.538C532.14 363.012 530.274 361.991 530.255 361.983C530.167 362.052 529.478 362.738 528.803 364.995C528.423 366.268 527.444 368.305 526.087 371.123C520.878 381.955 510.034 404.503 511.547 430.471C511.58 431.025 511.156 431.502 510.601 431.533C510.582 431.535 510.563 431.535 510.544 431.535Z" fill="#1D191F"/>
<path d="M515.461 454.731C514.955 454.731 514.518 454.351 514.461 453.835C514.129 450.822 515.212 446.232 517.178 437.899C518.17 433.704 519.402 428.481 520.793 422.026C524.855 403.211 527.179 377.146 527.202 376.886C527.249 376.334 527.748 375.933 528.294 375.972C528.849 376.021 529.257 376.509 529.208 377.063C529.184 377.323 526.849 403.514 522.763 422.451C521.367 428.924 520.133 434.157 519.138 438.361C517.222 446.476 516.167 450.946 516.462 453.616C516.523 454.168 516.123 454.665 515.572 454.726C515.536 454.729 515.497 454.731 515.461 454.731Z" fill="#1D191F"/>
<path d="M531.055 490.675C530.622 490.675 530.222 490.394 530.092 489.96C529.93 489.43 530.231 488.868 530.765 488.706C531.441 488.501 532.13 488.29 532.816 488.074C532.715 488.019 532.623 487.953 532.535 487.873C532.31 487.668 531.959 487.204 532.128 486.409C532.319 485.527 532.99 484.517 533.64 483.536C533.708 483.435 533.78 483.325 533.854 483.211C530.085 484.622 524.86 486.176 521.251 484.619C520.74 484.399 520.505 483.806 520.726 483.298C520.948 482.787 521.539 482.549 522.049 482.773C525.481 484.256 531.558 481.935 533.554 481.174C534.258 480.903 535.571 480.398 536.269 481.275C536.975 482.153 536.28 483.199 535.32 484.647C534.997 485.131 534.625 485.696 534.372 486.17C534.945 486.036 535.725 485.794 536.356 485.598C538.025 485.077 539.916 484.489 541.503 484.489C541.508 484.489 541.515 484.489 541.522 484.489C542.65 484.491 542.967 485.027 543.033 485.475C543.17 486.414 543.262 487.032 531.347 490.632C531.25 490.661 531.151 490.675 531.055 490.675Z" fill="#1D191F"/>
<path d="M507.025 483.009C506.87 483.009 506.71 482.973 506.56 482.895C506.392 482.806 502.372 480.684 499.148 477.212C497.512 475.448 496.294 475.014 495.756 475.17C495.537 475.232 495.402 475.422 495.348 475.726C495.209 476.507 494.722 476.8 494.445 476.901C493.489 477.262 492.545 476.502 491.455 475.621C491.37 475.555 491.278 475.481 491.18 475.403C491.192 475.524 491.201 475.646 491.211 475.759C491.389 477.783 491.658 480.844 489.478 481.843C488.979 482.074 488.374 481.857 488.143 481.35C487.91 480.844 488.131 480.247 488.636 480.016C489.527 479.608 489.325 477.307 489.205 475.932C489.073 474.432 488.988 473.441 489.817 472.968C490.723 472.456 491.649 473.196 492.717 474.054C492.953 474.245 493.282 474.507 493.562 474.708C493.87 473.986 494.447 473.455 495.186 473.239C496.081 472.977 497.961 472.97 500.628 475.844C503.606 479.058 507.456 481.091 507.494 481.112C507.988 481.37 508.179 481.978 507.918 482.469C507.739 482.813 507.39 483.009 507.025 483.009Z" fill="#1D191F"/>
<path d="M158.283 481.781C156.643 481.781 154.843 481.679 152.922 481.42C145.022 480.354 133.517 476.282 123.563 462.944C107.072 440.838 106.433 422.845 106.16 415.161C106.119 414.003 106.089 413.085 106.007 412.43C105.578 408.975 106.03 404.865 108.036 404.002C108.567 403.773 109.626 403.596 110.758 404.966C111.611 405.999 111.811 407.213 112.004 408.386C112.371 410.616 112.787 413.142 117.717 415.998C128.002 421.959 162.297 443.947 171.783 476.586C171.938 477.121 171.63 477.678 171.097 477.833C170.558 477.989 170.003 477.68 169.848 477.147C160.574 445.227 126.828 423.605 116.707 417.738C110.952 414.403 110.413 411.114 110.019 408.711C109.848 407.676 109.714 406.858 109.207 406.244C108.969 405.956 108.805 405.865 108.762 405.855C108.419 406.055 107.529 408.322 108.009 412.179C108.096 412.875 108.132 413.854 108.176 415.087C108.442 422.581 109.064 440.136 125.18 461.738C134.685 474.477 145.608 478.378 153.098 479.41C161.245 480.528 167.225 478.604 167.282 478.585C167.802 478.408 168.379 478.694 168.555 479.224C168.73 479.752 168.444 480.319 167.915 480.495C167.712 480.566 163.961 481.781 158.283 481.781Z" fill="#1D191F"/>
<path d="M167.819 478.247C167.762 478.247 167.704 478.243 167.649 478.233C167.002 478.123 151.627 475.373 135.063 460.615C118.481 445.839 113.524 425.75 113.475 425.55C113.346 425.01 113.68 424.468 114.221 424.338C114.765 424.22 115.306 424.543 115.434 425.083C115.481 425.278 120.308 444.774 136.405 459.114C152.508 473.463 167.835 476.224 167.99 476.25C168.539 476.344 168.906 476.865 168.812 477.41C168.725 477.901 168.299 478.247 167.819 478.247Z" fill="#1D191F"/>
<path d="M177.663 477.9C177.187 477.9 176.766 477.559 176.676 477.077C176.575 476.53 176.937 476.005 177.483 475.905C177.674 475.87 196.54 471.934 197.323 436.888C198.187 398.216 190.309 379.697 185.519 374.852C184.505 373.828 183.631 373.33 183.191 373.503C181.329 374.246 181.17 382.759 181.077 387.847C180.95 394.658 177.669 401.209 173.129 410.276C171.582 413.368 169.827 416.872 168.016 420.758C161.216 435.359 164.865 460.545 164.902 460.799C164.983 461.348 164.604 461.86 164.053 461.94C163.514 462.028 162.991 461.644 162.911 461.094C162.751 460.04 159.131 435.064 166.188 419.911C168.009 416.001 169.772 412.483 171.326 409.378C175.747 400.548 178.942 394.167 179.061 387.81C179.228 378.79 179.555 372.79 182.441 371.638C184.404 370.852 186.32 372.805 186.95 373.441C193.668 380.236 200.105 402.506 199.336 436.935C198.512 473.738 178.688 477.735 177.844 477.889C177.783 477.894 177.724 477.9 177.663 477.9Z" fill="#1D191F"/>
<path d="M154.172 486.853C154.16 486.853 154.148 486.853 154.138 486.853C148.203 486.648 148 485.595 147.889 485.031C147.75 484.309 148.203 483.71 149.24 483.251C151.149 482.402 152.517 482.482 153.828 482.55C154.899 482.609 155.915 482.665 157.349 482.22C160.013 481.397 160.426 480.395 160.43 480.387C160.552 479.845 161.101 479.543 161.624 479.659C162.167 479.781 162.499 480.352 162.377 480.894C162.301 481.232 161.73 482.972 157.944 484.14C156.162 484.691 154.857 484.618 153.719 484.559C152.931 484.514 152.253 484.479 151.481 484.628C152.289 484.731 153.26 484.809 154.207 484.84C154.762 484.859 155.196 485.325 155.179 485.88C155.158 486.424 154.713 486.853 154.172 486.853Z" fill="#1D191F"/>
<path d="M184.653 481.059C184.382 481.059 184.111 480.95 183.911 480.734C183.535 480.326 183.561 479.689 183.97 479.312C184.625 478.71 185.258 477.991 185.684 477.399C185.649 477.439 185.618 477.475 185.585 477.512C184.867 478.352 183.785 479.625 182.41 478.909C180.697 478.022 180.178 476.053 180.125 475.833C179.995 475.293 180.327 474.751 180.87 474.619C181.416 474.494 181.953 474.822 182.085 475.362C182.174 475.716 182.577 476.73 183.342 477.128C183.345 477.038 183.791 476.517 184.057 476.208C184.792 475.352 186.02 473.911 187.48 474.925C187.923 475.228 188.188 475.694 188.226 476.232C188.337 477.848 186.242 479.962 185.335 480.795C185.142 480.97 184.896 481.059 184.653 481.059Z" fill="#1D191F"/>
<path d="M177.544 473.494C177.404 473.494 177.264 473.464 177.128 473.405C176.622 473.176 176.396 472.581 176.624 472.074C176.78 471.728 192.241 436.893 187.315 395.131C187.247 394.579 187.643 394.081 188.196 394.017C188.735 393.928 189.248 394.347 189.313 394.897C194.31 437.233 178.62 472.551 178.46 472.904C178.293 473.273 177.928 473.494 177.544 473.494Z" fill="#1D191F"/>
<path d="M163.276 456.935C162.912 456.935 162.558 456.737 162.381 456.39C162.247 456.131 149.088 430.028 153.334 390.897C156.015 366.182 161.452 351.149 165.051 341.204C167.065 335.63 168.396 331.95 168.031 329.663C167.842 328.48 166.265 318.071 169.148 316.781C169.733 316.516 170.662 316.488 171.74 317.811C174.772 321.526 183.911 349.653 183.377 372.869C183.363 373.423 182.93 373.86 182.346 373.851C181.791 373.838 181.351 373.378 181.362 372.822C181.899 349.425 172.514 321.945 170.177 319.078C170.067 318.945 169.977 318.849 169.906 318.783C169.386 319.891 169.184 324.127 170.02 329.343C170.467 332.144 169.064 336.019 166.945 341.883C163.379 351.74 157.99 366.637 155.336 391.11C151.157 429.607 164.039 455.214 164.17 455.468C164.423 455.963 164.229 456.567 163.735 456.82C163.589 456.9 163.431 456.935 163.276 456.935Z" fill="#1D191F"/>
<path d="M163.605 434.359C163.062 434.359 162.614 433.929 162.598 433.384C162.588 433.033 162.381 424.563 165.66 406.278C168.915 388.141 172.616 344.64 172.653 344.202C172.7 343.648 173.197 343.259 173.739 343.285C174.294 343.332 174.704 343.818 174.657 344.371C174.621 344.808 170.911 388.403 167.64 406.631C164.403 424.673 164.608 433.239 164.61 433.323C164.625 433.878 164.189 434.34 163.633 434.358C163.624 434.359 163.613 434.359 163.605 434.359Z" fill="#1D191F"/>
<path d="M138.747 433.024C138.465 433.024 138.187 432.908 137.987 432.679C137.841 432.514 123.417 415.781 119.874 393.334C116.332 370.907 114.864 363.406 112.583 360.168C111.257 358.284 111.203 356.242 112.451 355.084C113.14 354.44 115.88 352.74 122.101 357.813C130.297 364.501 149.598 389.061 154.459 405.089C154.621 405.619 154.32 406.181 153.786 406.343C153.26 406.506 152.693 406.205 152.531 405.671C147.854 390.258 128.654 365.758 120.826 359.372C116.906 356.176 114.487 355.94 113.821 356.556C113.425 356.926 113.437 357.888 114.23 359.011C116.763 362.607 118.208 369.88 121.862 393.022C125.319 414.904 139.364 431.198 139.505 431.361C139.87 431.779 139.828 432.413 139.406 432.779C139.216 432.943 138.983 433.024 138.747 433.024Z" fill="#1D191F"/>
<path d="M160.931 451.399C160.642 451.399 160.353 451.276 160.155 451.037C160.073 450.936 151.656 440.784 140.506 424.593C129.266 408.27 123.264 378.968 123.013 377.728C122.904 377.185 123.257 376.654 123.801 376.544C124.347 376.435 124.877 376.787 124.987 377.331C125.048 377.63 131.159 407.473 142.165 423.454C153.26 439.563 161.621 449.651 161.704 449.752C162.061 450.177 162.002 450.813 161.572 451.169C161.386 451.321 161.16 451.399 160.931 451.399Z" fill="#1D191F"/>
<path d="M131.522 370.269C131.09 370.269 130.69 369.988 130.557 369.552C130.493 369.339 124.152 348.057 122.18 334.203C121.704 330.849 121.25 328.093 120.882 325.852C119.912 319.95 119.548 317.74 120.708 316.616C121.494 315.857 122.624 316.074 122.994 316.149C126.265 316.79 153.777 337.773 160.419 361.989C160.567 362.524 160.251 363.078 159.713 363.225C159.171 363.373 158.621 363.057 158.475 362.52C152.176 339.553 125.614 318.714 122.606 318.122C122.201 318.043 122.071 318.09 122.069 318.089C121.728 318.594 122.257 321.806 122.869 325.527C123.239 327.781 123.693 330.548 124.173 333.922C126.122 347.628 132.421 368.767 132.484 368.978C132.644 369.511 132.34 370.071 131.807 370.231C131.714 370.256 131.618 370.269 131.522 370.269Z" fill="#1D191F"/>
<path d="M153.677 400.303C153.201 400.303 152.778 399.963 152.688 399.479C152.67 399.378 150.751 389.271 142.935 377.914C134.863 366.182 129.975 339.99 129.772 338.882C129.671 338.333 130.033 337.811 130.58 337.71C131.133 337.621 131.651 337.974 131.752 338.517C131.801 338.786 136.765 365.397 144.596 376.777C152.67 388.514 154.593 398.692 154.671 399.119C154.771 399.664 154.407 400.191 153.861 400.29C153.799 400.296 153.738 400.303 153.677 400.303Z" fill="#1D191F"/>
<path d="M165.561 343.759C165.549 343.759 165.535 343.759 165.524 343.759C164.968 343.739 164.535 343.27 164.554 342.716C164.914 333.121 163.726 326.782 160.32 320.104L159.933 319.345C153.209 306.165 145.342 290.332 144.184 284.856C143.436 281.326 142.28 279.971 141.725 279.949C141.725 279.949 141.723 279.947 141.722 279.947C141.607 279.947 140.162 280.069 138.396 285.896C135.416 295.72 142.442 332.34 142.515 332.71C142.619 333.255 142.262 333.783 141.717 333.889C141.179 333.984 140.642 333.639 140.536 333.092C140.24 331.565 133.346 295.61 136.467 285.314C137.971 280.353 139.686 277.937 141.704 277.937C141.739 277.937 141.776 277.938 141.812 277.938C144.417 278.051 145.651 282.06 146.155 284.439C147.407 290.358 157.811 310.754 161.727 318.432L162.115 319.193C165.691 326.202 166.941 332.819 166.569 342.791C166.546 343.334 166.1 343.759 165.561 343.759Z" fill="#1D191F"/>
<path d="M158.359 359.85C157.837 359.85 157.398 359.449 157.356 358.921C157.347 358.793 156.375 346.046 155.419 337.924C154.487 330.003 144.945 314.843 144.848 314.691C144.55 314.222 144.693 313.6 145.163 313.303C145.623 313.01 146.249 313.144 146.552 313.618C146.955 314.255 156.434 329.321 157.419 337.688C158.38 345.854 159.357 358.64 159.368 358.767C159.409 359.32 158.994 359.803 158.439 359.847C158.411 359.85 158.383 359.85 158.359 359.85Z" fill="#1D191F"/>
</svg>
