<svg width="580" height="500" viewBox="0 0 580 500" fill="none" xmlns="http://www.w3.org/2000/svg">
<path d="M580 446.751V500H0C0 500 24.6093 456.252 80.2887 422.921C80.2887 422.921 90.566 423.947 89.9227 417.052C89.2794 410.159 85.4265 401.823 89.9227 405.671C94.419 409.518 94.4189 419.577 96.3454 415.189C98.2718 410.8 95.7038 401.16 98.9152 404.698C102.127 408.237 105.338 415.114 107.908 411.355C110.477 407.596 160.577 393.491 164.43 392.848C168.285 392.208 166.257 383.984 167.335 383.779C172.781 382.75 167.372 391.565 173.289 389.001C179.204 386.436 196.547 386.276 204.255 381.547C211.962 376.819 353.913 363.354 457.967 386.115C562.02 408.876 580 446.751 580 446.751Z" fill="#8CB9F6"/>
<path d="M261.854 249.883C261.541 249.883 261.229 249.737 261.033 249.463C258.312 245.655 253.31 234.512 252.797 229.369C252.282 224.231 255.212 211.956 255.335 211.438C255.462 210.898 255.996 210.572 256.549 210.693C257.09 210.824 257.423 211.367 257.295 211.905C257.265 212.03 254.32 224.368 254.8 229.169C255.28 233.944 260.129 244.737 262.674 248.293C262.996 248.746 262.891 249.373 262.439 249.697C262.26 249.822 262.057 249.883 261.854 249.883Z" fill="#1D191F"/>
<path d="M276.159 363.392L269.535 362.915C276.719 360.995 281.175 349.445 283.955 341.506C284.477 340.022 284.976 338.598 285.477 337.292C287.954 330.847 288.172 310.798 288.041 303.093C287.003 299.462 284.239 290.628 282.302 287.747C281.461 286.501 281.172 285.108 281.462 283.721C282.076 280.806 285.053 278.925 287.682 277.265C288.52 276.736 289.735 275.967 290.241 275.499C290.828 271.78 295.166 270.619 298.378 269.761C299.383 269.492 300.337 269.237 301.099 268.954C304.213 266.097 317.832 240.084 320.828 226.121C323.359 214.321 319.073 210.168 319.028 210.126L322.959 205.546C323.695 206.157 330.043 211.97 326.736 227.385C324.164 239.369 309.269 272.174 303.596 274.458C302.458 274.913 301.179 275.256 299.939 275.586C298.767 275.901 296.881 276.406 296.166 276.852C295.791 279.279 293.417 280.779 290.914 282.361C289.935 282.979 288.227 284.059 287.568 284.771C290.418 289.379 293.6 300.539 293.963 301.83L294.075 302.586C294.13 305.428 294.518 330.608 291.117 339.452C290.635 340.706 290.157 342.072 289.658 343.496C286.544 352.386 286.43 360.646 276.159 363.392ZM290.18 276.097C290.18 276.098 290.18 276.1 290.18 276.102C290.18 276.102 290.18 276.098 290.18 276.097Z" fill="#3885EF"/>
<path d="M388.226 303.178C383.462 300.841 371.103 298.422 363.705 296.858C360.541 296.188 357.808 295.61 355.76 295.087C351.375 293.971 348.335 295.207 345.653 296.299C344.672 296.698 343.745 297.075 342.808 297.311C339.047 298.244 336.497 294.561 334.64 291.865C334.445 291.58 334.205 291.233 333.976 290.91C333.956 290.92 333.936 290.93 333.918 290.941C331.566 292.314 328.342 294.189 325.298 293.297C323.85 292.873 322.697 291.894 321.963 290.465C321.035 288.652 320.593 286.777 320.203 285.121C319.633 282.707 319.225 281.178 318.034 280.228C313.929 276.948 313.944 275.406 313.85 274.936L316.936 269.916C316.942 269.942 319.416 273.606 321.807 275.517C324.684 277.816 325.426 280.962 326.082 283.739C326.4 285.088 326.701 286.366 327.222 287.473C328.179 287.302 330.098 286.182 330.87 285.73C331.98 285.084 332.781 284.617 333.628 284.409C336.347 283.723 338.021 286.128 339.619 288.446C340.191 289.279 341.194 290.736 341.84 291.307C342.278 291.156 342.798 290.946 343.37 290.712C346.384 289.484 350.935 287.628 357.253 289.243C359.18 289.734 361.857 290.298 364.957 290.955C373.097 292.679 380.941 294.955 386.378 297.622L388.226 303.178Z" fill="#3885EF"/>
<path d="M422.462 335.859C422.272 335.859 422.083 335.805 421.911 335.696C410.681 328.382 385.379 326.323 385.125 326.302C384.571 326.259 384.157 325.776 384.202 325.222C384.246 324.668 384.743 324.217 385.284 324.299C386.343 324.38 411.35 326.415 423.013 334.011C423.479 334.315 423.609 334.939 423.307 335.404C423.112 335.697 422.79 335.859 422.462 335.859Z" fill="#1D191F"/>
<path d="M413.424 316.092C412.775 316.092 412.007 315.964 411.108 315.707C407.521 314.684 388.554 304.494 387.747 304.063C387.257 303.8 387.074 303.19 387.339 302.7C387.605 302.213 388.217 302.032 388.704 302.292C395.462 305.928 408.957 313.004 411.663 313.776C413.177 314.207 413.766 314.073 413.928 314.014C414.031 313.566 414.432 313.235 414.909 313.235C415.465 313.235 415.916 313.684 415.916 314.24C415.916 314.631 415.724 315.193 415.191 315.596C414.751 315.926 414.163 316.092 413.424 316.092ZM413.902 314.236V314.238V314.236Z" fill="#1D191F"/>
<path d="M423.971 302.673C423.971 302.673 414.405 311.975 414.405 312.98C414.405 313.985 421.201 320.019 421.706 322.029C422.208 324.04 426.741 321.526 428 322.029C429.258 322.533 429.006 326.052 425.482 326.806C421.958 327.56 422.21 336.611 423.469 337.868C424.728 339.125 435.552 344.655 441.594 350.941C447.636 357.226 450.909 363.51 453.426 364.515C455.944 365.52 458.461 366.274 459.216 361.247C459.97 356.219 460.727 345.41 454.181 337.616C447.635 329.824 444.867 329.068 442.853 329.068C440.84 329.068 437.566 329.32 438.825 326.554C440.083 323.788 442.853 321.274 441.845 319.012C440.838 316.751 433.035 301.92 423.971 302.673Z" fill="#1D191F"/>
<path d="M458.957 368.2C456.883 368.2 455.679 366.996 455.293 366.222C455.047 365.726 455.247 365.123 455.744 364.873C456.241 364.63 456.834 364.824 457.088 365.307C457.166 365.448 457.856 366.578 459.979 366.054C462.87 365.333 465.133 364.507 465.779 361.064C466.504 357.193 465.96 346.866 461.379 339.4C459.054 335.61 455.928 332.679 453.416 330.323C450.698 327.774 448.547 325.76 448.394 323.61C448.339 322.832 448.32 322.042 448.301 321.233C448.231 318.422 448.16 315.515 446.485 312.173C444.209 307.627 438.792 301.677 433.662 299.581C428.952 297.659 426.824 298.505 424.903 303.064C424.686 303.573 424.098 303.813 423.583 303.601C423.072 303.384 422.831 302.795 423.046 302.283C425.4 296.701 428.699 295.381 434.426 297.72C440.202 300.081 445.88 306.466 448.287 311.274C450.161 315.019 450.241 318.295 450.312 321.184C450.331 321.961 450.352 322.719 450.404 323.468C450.502 324.831 452.491 326.697 454.794 328.857C457.394 331.295 460.629 334.328 463.098 338.348C468.252 346.748 468.457 357.72 467.76 361.432C466.897 366.033 463.684 367.201 460.47 368.005C459.918 368.141 459.418 368.2 458.957 368.2Z" fill="#1D191F"/>
<path d="M279.751 210.689C274.808 210.689 265.858 210.04 261.17 205.706C258.647 203.373 257.406 201.506 256.311 199.858C255.365 198.435 254.548 197.207 253.054 195.813C249.187 192.205 250.778 188.015 250.85 187.838C251.053 187.319 251.639 187.069 252.155 187.27C252.67 187.473 252.924 188.053 252.726 188.569C252.677 188.696 251.587 191.689 254.431 194.344C256.095 195.898 257.015 197.282 257.988 198.745C259.072 200.374 260.193 202.06 262.538 204.23C267.374 208.703 278.103 208.757 281.292 208.654C281.85 208.63 282.313 209.075 282.328 209.63C282.344 210.186 281.907 210.648 281.351 210.665C280.885 210.679 280.346 210.689 279.751 210.689Z" fill="#1D191F"/>
<path d="M287.151 219.641C277.27 219.641 267.624 217.801 262.493 215.792C251.83 211.616 252.146 207.145 252.496 205.874C252.635 205.369 252.807 204.935 252.965 204.536C253.376 203.501 253.53 203.115 252.903 202.174C251.463 200.018 252.63 195.351 252.767 194.825C252.906 194.29 253.454 193.962 253.995 194.107C254.534 194.248 254.855 194.797 254.714 195.333C254.252 197.103 253.904 200.049 254.579 201.058C255.792 202.876 255.307 204.096 254.838 205.277C254.702 205.617 254.554 205.982 254.438 206.409C253.97 208.104 255.99 211.087 263.227 213.919C271.941 217.336 294.101 220.263 307.231 213.95C328.528 203.709 330.034 199.915 329.989 198.997C329.945 198.125 329.842 197.188 329.74 196.222C329.443 193.442 329.105 190.293 330.056 187.846C331.244 184.789 332.424 181.754 331.207 177.958C330.347 175.263 330.154 171.237 329.966 167.344C329.851 164.976 329.745 162.739 329.495 161.038C328.782 156.244 327.271 152.787 326.657 152.278C326.231 151.922 326.174 151.289 326.529 150.862C326.887 150.436 327.521 150.382 327.947 150.731C329.415 151.952 330.9 156.781 331.486 160.741C331.753 162.542 331.863 164.827 331.979 167.245C332.159 171.008 332.345 174.899 333.129 177.342C334.563 181.814 333.191 185.339 331.983 188.449C331.162 190.562 331.458 193.33 331.745 196.007C331.853 197.011 331.955 197.988 332 198.894C332.112 201.148 329.757 205.348 308.106 215.759C302.225 218.587 294.622 219.641 287.151 219.641Z" fill="#1D191F"/>
<path d="M377.749 221.373C372.614 221.373 366.927 220.229 364.338 219.635C360.294 218.711 359.485 213.407 358.896 209.537C358.68 208.116 358.352 205.97 357.954 205.632C355.549 204.031 355.163 202.628 355.163 198.945C355.163 197.04 354.069 195.587 352.805 193.903C352.025 192.865 351.218 191.793 350.571 190.5C349.163 187.689 344.283 173.948 345.472 169.986C346.299 167.214 342.923 160.976 337.357 158.809C331.312 156.456 319.23 148.989 318.719 148.671C318.247 148.379 318.101 147.759 318.393 147.287C318.689 146.815 319.313 146.674 319.779 146.962C319.903 147.039 332.212 154.651 338.087 156.936C344.434 159.406 348.58 166.614 347.4 170.564C346.539 173.43 350.602 186.071 352.371 189.602C352.936 190.731 353.687 191.731 354.414 192.696C355.77 194.502 357.175 196.37 357.175 198.945C357.175 202.374 357.51 202.921 359.077 203.963C360.193 204.708 360.485 206.606 360.883 209.234C361.414 212.719 362.076 217.056 364.783 217.676C374.099 219.808 384.628 220.373 385.746 216.582C386.68 213.412 386.277 208.375 385.924 203.932C385.666 200.702 385.423 197.653 385.715 195.61C386.153 192.538 380.438 171.166 377.022 158.397C375.363 152.195 374.054 147.297 373.644 145.346C372.433 139.614 337.269 114.204 328.264 110.538C320.506 107.383 308.937 103.255 297.795 103.572C297.498 103.602 297.209 103.458 297.013 103.237C295.024 101.01 292.487 98.5197 291.496 97.9467C291.338 98.1134 291.101 98.3686 290.882 98.603C288.478 101.197 282.86 107.274 274.812 106.248C267.871 105.364 263.848 103.753 261.947 102.942C261.914 103.741 261.774 104.736 261.05 105.458C261.002 105.507 260.946 105.552 260.888 105.59C260.718 105.701 256.594 108.276 245.31 107.257C234.363 106.264 228.334 105.715 217.837 95.2346C214.904 92.3055 211.484 88.7235 207.864 84.9297C199.426 76.0919 189.865 66.0753 186.211 64.2505C182.04 62.1669 174.523 61.3283 171.819 61.0852C171.519 64.2557 169.971 73.5344 162.104 76.6423C162.123 77.8873 162.662 81.5751 167.49 87.8796C168.198 88.805 169.097 89.9893 170.143 91.3714C178.268 102.096 197.296 127.214 203.337 129.801C205.287 130.636 208.523 131.796 212.27 133.138C222.448 136.784 235.114 141.323 238.894 145.098C242.086 148.285 244.844 160.413 247.276 171.114C248.699 177.372 250.169 183.841 251.039 184.883C252.339 186.442 255.017 187.803 257.169 188.897C259.357 190.009 260.621 190.677 261.174 191.507C261.481 191.969 261.356 192.592 260.894 192.901C260.433 193.205 259.807 193.085 259.498 192.622C259.211 192.191 257.573 191.358 256.257 190.689C253.939 189.512 251.056 188.047 249.493 186.171C248.368 184.822 247.229 179.988 245.312 171.559C243.177 162.164 240.252 149.294 237.47 146.518C234.009 143.061 221.05 138.418 211.588 135.029C207.812 133.676 204.55 132.508 202.542 131.648C196.012 128.853 177.453 104.357 168.535 92.585C167.49 91.2081 166.596 90.0257 165.889 89.102C159.242 80.4205 160.059 76.1371 160.174 75.6787C160.259 75.3471 160.504 75.0796 160.826 74.9703C169.438 72.0533 169.872 60.0955 169.877 59.9739C169.886 59.7013 170.004 59.4427 170.206 59.2586C170.408 59.0746 170.67 58.986 170.948 58.9964C171.381 59.0242 181.621 59.7118 187.11 62.4516C191.079 64.4327 200.351 74.1473 209.319 83.5424C212.932 87.3275 216.344 90.9008 219.259 93.8126C229.239 103.779 234.671 104.272 245.489 105.253C255.015 106.123 259.013 104.31 259.689 103.956C259.925 103.614 259.937 102.912 259.944 102.437C259.953 101.874 259.972 100.556 261.174 100.556C261.49 100.556 261.763 100.673 262.419 100.956C264.084 101.673 267.982 103.352 275.064 104.251C282.071 105.133 287.207 99.5996 289.401 97.2348C290.121 96.4604 290.425 96.1392 290.764 95.9708C291.35 95.6791 292.423 95.1426 298.199 101.551C309.542 101.345 321.2 105.494 329.019 108.677C338.091 112.367 374.115 137.845 375.61 144.931C376.01 146.83 377.312 151.706 378.965 157.877C384.018 176.773 388.163 192.677 387.706 195.893C387.443 197.716 387.678 200.657 387.928 203.77C388.297 208.387 388.713 213.622 387.675 217.149C386.722 220.406 382.467 221.373 377.749 221.373Z" fill="#1D191F"/>
<path d="M274.685 114.72C271.425 114.72 268.313 114.19 265.552 113.24C255.5 109.78 255.612 106.392 255.735 105.748C255.843 105.199 256.377 104.847 256.916 104.951C257.435 105.05 257.783 105.531 257.726 106.047C257.743 106.22 258.128 108.558 266.209 111.339C275.187 114.43 288.182 112.719 296.987 101.934C297.34 101.501 297.974 101.44 298.406 101.789C298.837 102.14 298.901 102.774 298.55 103.205C291.826 111.435 282.803 114.718 274.685 114.72Z" fill="#1D191F"/>
<path d="M186.668 35.1953L62.1421 13.4082L177.27 17.4295L186.668 35.1953Z" fill="#3885EF"/>
<path d="M166.172 17.042V11.3955L62.1421 13.4079L166.172 17.042Z" fill="#033881"/>
<path d="M172.917 11.265L151.425 0L62.1421 13.4076L172.917 11.265Z" fill="#3885EF"/>
<path d="M161.16 76.9257C160.876 76.9257 160.595 76.8059 160.396 76.5768C160.243 76.3979 144.966 58.6772 140.4 55.0918C139.471 54.3643 138.498 53.5708 137.486 52.746C133.384 49.4054 128.732 45.6186 124.015 43.6201C117.755 40.9705 109.754 28.1255 109.417 27.5803C109.124 27.108 109.271 26.488 109.743 26.1963C110.213 25.9029 110.835 26.0488 111.129 26.5228C111.209 26.6496 119.129 39.3644 124.8 41.7675C129.782 43.8771 134.551 47.7611 138.758 51.1868C139.762 52.0029 140.725 52.7877 141.643 53.51C146.365 57.2153 161.29 74.5296 161.923 75.264C162.286 75.686 162.238 76.3215 161.817 76.6826C161.626 76.8458 161.391 76.9257 161.16 76.9257Z" fill="#1D191F"/>
<path d="M130.655 25.2446L64.8282 13.4082L133.051 33.8913L130.655 25.2446Z" fill="#033881"/>
<path d="M143.083 36.9016L167.535 44.2444L169.213 32.1772L140.142 26.9492C140.142 26.9492 140.786 30.7083 141.153 32.1981C141.521 33.6861 143.083 36.9016 143.083 36.9016Z" fill="#033881"/>
<path d="M265.88 104.331C265.788 104.331 265.696 104.319 265.6 104.291C265.065 104.136 264.759 103.579 264.912 103.046C264.931 102.978 266.803 96.3561 264.945 91.7671C264.736 91.2531 264.986 90.6663 265.501 90.458C266.014 90.2462 266.602 90.4979 266.812 91.0136C268.933 96.252 266.932 103.306 266.845 103.605C266.72 104.044 266.317 104.331 265.88 104.331Z" fill="#1D191F"/>
<path d="M288.298 100.827C287.987 100.827 287.681 100.683 287.485 100.412C284.731 96.6285 280.141 90.0046 280.318 88.1433C280.372 87.5877 280.897 87.171 281.415 87.2387C281.97 87.2908 282.375 87.7821 282.324 88.3342C282.394 89.3778 285.903 94.8141 289.114 99.2312C289.441 99.6809 289.342 100.309 288.891 100.636C288.71 100.764 288.504 100.827 288.298 100.827Z" fill="#1D191F"/>
<path d="M400.808 257.229C400.579 257.229 400.336 257.203 400.09 257.149C397.31 256.533 386.431 245.401 384.399 242.693C382.504 240.17 379.706 238.623 378.673 238.152C378.044 238.845 376.827 241.25 376.653 243.427C376.448 245.999 376.053 248.518 374.551 249.541C374.071 249.871 373.247 250.187 372.094 249.839C369.006 248.907 369.481 246.039 370.138 242.069L370.364 240.675C370.881 237.406 372.731 233.935 373.835 231.86C374.111 231.337 374.419 230.763 374.569 230.431C373.772 229.08 370.491 223.708 368.261 220.067C367.972 219.593 368.121 218.975 368.594 218.685C369.062 218.398 369.688 218.544 369.978 219.018C371.029 220.732 376.279 229.309 376.537 229.825C376.857 230.466 376.568 231.008 375.61 232.806C374.563 234.768 372.816 238.052 372.352 240.991L372.122 242.399C371.441 246.53 371.408 247.534 372.675 247.916C373.153 248.06 373.337 247.935 373.414 247.883C374.327 247.259 374.567 244.255 374.645 243.267C374.873 240.401 376.521 237.121 377.735 236.319C378.284 235.958 378.745 236.034 378.976 236.109C380.042 236.465 383.688 238.397 386.009 241.488C388.676 245.039 398.833 254.812 400.525 255.187C400.715 255.227 401.04 255.272 401.13 255.093C401.308 254.755 401.174 253.539 399.63 252.138C397.639 250.334 391.053 241.79 391.628 239.713C391.752 239.26 392.099 238.934 392.557 238.843C393.499 238.658 394.445 239.338 399.812 244.077C402.57 246.513 406.739 250.194 407.803 250.407C408.384 250.523 408.768 250.572 409.02 250.589C408.899 250.35 408.683 249.992 408.302 249.47C407.463 248.317 405.804 246.5 404.201 244.742C401.88 242.196 399.687 239.791 398.913 238.362C398.651 237.873 398.833 237.263 399.322 236.999C399.807 236.743 400.421 236.918 400.687 237.407C401.342 238.621 403.651 241.153 405.689 243.386C407.403 245.268 409.024 247.042 409.93 248.285C410.843 249.539 411.597 250.836 410.954 251.84C410.3 252.857 408.841 252.663 407.407 252.376C405.917 252.077 403.037 249.61 398.473 245.58C397.258 244.506 395.789 243.21 394.61 242.236C396.182 244.877 399.186 249.02 400.979 250.647C402.9 252.39 403.677 254.55 402.914 256.019C402.516 256.798 401.74 257.229 400.808 257.229Z" fill="#1D191F"/>
<path d="M410.995 248.823C409.589 248.823 407.821 248.183 406.918 247.676C406.435 247.403 406.263 246.79 406.538 246.306C406.811 245.823 407.426 245.651 407.911 245.926C409.203 246.655 410.957 246.92 411.343 246.783C411.385 246.736 411.416 246.696 411.423 246.683C411.409 246.684 411.38 246.085 409.504 244.332C406.771 241.774 402.481 236.181 400.762 233.893C400.482 233.52 400.466 232.874 400.765 232.516C401.972 231.066 412.237 235.86 412.34 235.911C412.447 235.966 412.517 235.968 412.538 235.966C412.557 235.9 412.571 235.148 411.251 234.068C409.66 232.768 400.696 229.483 387.271 225.276L387.031 225.199C384.187 224.309 382.982 220.272 382.853 219.813C382.704 219.279 383.015 218.725 383.549 218.574C384.098 218.428 384.641 218.737 384.792 219.268C385.062 220.221 386.098 222.798 387.631 223.281L387.873 223.355C397.82 226.472 410.175 230.591 412.524 232.511C414.758 234.336 414.817 236.114 414.189 237.083C413.611 237.972 412.479 238.227 411.435 237.708C410.399 237.189 406.541 235.659 403.964 234.773C405.913 237.291 408.888 241.003 410.877 242.861C412.701 244.568 413.459 245.747 413.418 246.802C413.383 247.71 412.753 248.212 412.515 248.403C412.143 248.704 411.604 248.823 410.995 248.823Z" fill="#1D191F"/>
<path d="M251.475 17.0424C251.475 17.0424 239.03 20.2493 237.35 27.0521C235.672 33.8549 237.35 40.8939 242.721 40.2237C248.092 39.5535 255.14 34.8603 259.838 35.1954C264.538 35.5305 263.531 37.2945 261.852 40.267C260.174 43.2395 263.194 48.2679 271.585 45.9205C279.976 43.5747 280.311 39.2166 286.353 40.8922C292.395 42.5677 286.882 56.3105 288.295 58.3228C289.709 60.3335 289.966 63.016 293.195 58.3228C296.424 53.6296 301.121 47.2608 306.157 48.9381C311.192 50.6136 301.457 60.3351 296.423 62.3457C291.388 64.3564 291.388 64.3564 291.388 64.3564C291.388 64.3564 289.375 78.4273 286.353 80.4414C286.353 80.4414 306.492 77.7641 314.212 70.7252C321.932 63.6862 315.219 63.6862 316.561 60.0001C317.903 56.3122 325.623 56.0465 325.623 51.487C325.623 46.9275 324.616 47.5977 317.567 44.2467C310.519 40.8956 312.532 39.2183 313.539 37.5428C314.546 35.8673 315.552 32.8496 309.846 31.174C304.14 29.4985 290.635 25.4756 293.193 21.7894C295.749 18.1033 296.95 10.7275 288.293 11.3994C279.636 12.0714 271.355 17.6623 266.433 17.0459C261.518 16.4243 256.926 15.0508 251.475 17.0424Z" fill="#1D191F"/>
<path d="M267.895 92.8474C267.819 92.8474 267.741 92.8387 267.661 92.8196C267.089 92.6824 266.317 92.514 265.394 92.3126C259.532 91.0365 247.341 88.3799 240.849 83.7787C232.903 78.1496 234.342 64.1552 235.766 59.6929C237.124 55.432 240.414 40.1526 240.445 39.9981C240.503 39.7324 240.666 39.5015 240.895 39.3573C241.13 39.2132 241.408 39.1699 241.671 39.2341C242 39.314 242.179 39.321 242.269 39.3227C242.372 39.2723 242.481 39.2376 242.598 39.2237C244.886 38.9372 247.614 37.8329 250.253 36.7616C253.774 35.3361 257.109 33.9852 259.91 34.1901C261.45 34.2995 263.305 34.5913 263.997 35.8744C264.724 37.2269 263.85 38.7757 262.742 40.7395C262.213 41.6753 262.344 42.8594 263.065 43.7762C264.465 45.5646 267.55 46.0022 271.315 44.95C274.744 43.9915 276.794 42.6667 278.442 41.6006C280.831 40.0588 282.718 38.8383 286.623 39.92C291.453 41.2604 290.347 48.1656 289.538 53.2078C289.266 54.9163 288.89 57.2551 289.133 57.7638C289.389 58.125 289.619 58.5295 289.836 58.908C290.046 59.2796 290.364 59.8405 290.529 59.9412C290.484 59.9065 291.009 59.7189 292.364 57.7499C295.191 53.6367 300.459 45.971 306.475 47.9816C307.788 48.4174 308.53 49.3567 308.567 50.6242C308.683 54.5986 301.203 61.5142 296.794 63.2748L292.239 65.0944C291.632 67.5148 289.013 77.6982 287.231 80.9225C287.137 81.0927 287.024 81.3149 286.889 81.5788C285.767 83.777 283.434 88.3504 278.931 90.717C278.442 90.9757 277.834 90.7864 277.571 90.2951C277.312 89.8037 277.5 89.1959 277.994 88.9372C281.927 86.8693 284.067 82.6797 285.093 80.6656C285.24 80.3791 285.364 80.1377 285.466 79.9502C287.323 76.5905 290.373 64.235 290.404 64.1117C290.481 63.7957 290.707 63.5387 291.008 63.4172L296.043 61.4066C299.915 59.8596 306.63 53.404 306.548 50.6832C306.539 50.4106 306.477 50.1016 305.832 49.8863C301.814 48.5493 297.778 53.4213 294.017 58.8872C292.477 61.1252 291.39 61.9604 290.356 61.9292C289.203 61.8806 288.605 60.8267 288.076 59.8977C287.892 59.5713 287.696 59.2223 287.464 58.8942C286.776 57.9149 287.017 56.1595 287.542 52.8865C288.229 48.5944 289.173 42.7154 286.075 41.8559C283.043 41.0121 281.793 41.8212 279.525 43.2866C277.762 44.4256 275.57 45.8424 271.847 46.8824C265.261 48.7264 262.392 46.1897 261.469 45.0125C260.243 43.4516 260.047 41.3923 260.965 39.7654C261.582 38.6698 262.415 37.1974 262.212 36.8206C262.186 36.772 261.895 36.3432 259.755 36.1904C257.415 36.0185 254.149 37.3433 250.999 38.6194C248.313 39.7081 245.536 40.8333 243.036 41.1857C242.808 41.283 242.577 41.3316 242.206 41.3264C241.468 44.7347 238.882 56.5068 237.676 60.2954C236.422 64.2194 235.059 77.2086 242.003 82.131C248.162 86.4943 260.084 89.0918 265.813 90.3402C266.755 90.5451 267.539 90.717 268.12 90.8559C268.661 90.9861 268.994 91.5278 268.866 92.0695C268.765 92.5383 268.351 92.8474 267.895 92.8474ZM241.979 39.5449C241.979 39.5467 241.979 39.5466 241.977 39.5466C241.979 39.5449 241.979 39.5449 241.979 39.5449ZM241.98 39.5414C241.98 39.5414 241.98 39.5431 241.979 39.5431C241.98 39.5431 241.98 39.5414 241.98 39.5414ZM242.024 39.498C242.01 39.5119 241.996 39.5258 241.98 39.5414C241.994 39.5258 242.01 39.5119 242.024 39.498Z" fill="#1D191F"/>
<path d="M238.303 55.0221C238.143 55.0221 237.983 54.9838 237.834 54.9057C232.619 52.1571 229.629 46.7156 228.568 42.5398C228.248 41.2758 227.817 38.9925 228.542 37.9056C229.065 37.1191 229.961 36.7197 230.988 36.8239C232.64 36.9784 234.98 38.4994 236.596 42.3019C238.517 46.8267 240.127 48.9207 240.146 48.9415C240.487 49.3791 240.407 50.0111 239.97 50.3531C239.53 50.6934 238.899 50.6153 238.559 50.1812C238.487 50.0892 236.78 47.8893 234.744 43.0884C233.384 39.8884 231.627 38.9023 230.801 38.8259C230.397 38.786 230.258 38.963 230.218 39.022C229.644 40.2861 231.693 49.393 238.772 53.1277C239.265 53.3865 239.452 53.9941 239.193 54.4855C239.012 54.8275 238.663 55.0221 238.303 55.0221Z" fill="#1D191F"/>
<path d="M279.36 52.2491C279.181 52.2491 279.004 52.2318 278.832 52.1936C277.971 52.0113 277.359 51.3949 277.152 50.5024C276.881 49.3287 274.361 47.6428 272.661 46.8198C272.162 46.5784 271.952 45.9759 272.193 45.4758C272.437 44.9758 273.038 44.7674 273.539 45.0088C274.367 45.4081 278.534 47.5299 279.117 50.051C279.151 50.2055 279.193 50.2142 279.252 50.2264C279.546 50.2941 280.082 50.077 280.382 49.6759C280.635 49.3408 280.652 48.978 280.431 48.5665C279.125 46.12 278.207 44.7379 277.091 44.4497C276.552 44.3108 276.23 43.7621 276.37 43.2238C276.509 42.6873 277.054 42.3575 277.599 42.5033C279.619 43.0277 280.833 45.0435 282.208 47.6219C282.797 48.7297 282.719 49.919 281.989 50.8862C281.349 51.7352 280.327 52.2491 279.36 52.2491Z" fill="#1D191F"/>
<path d="M243.225 45.2506C243.117 45.2506 243.011 45.2331 242.907 45.1984C241.646 44.7782 240.881 44.0941 240.633 43.16C240.254 41.731 241.342 40.4653 241.469 40.3246C241.841 39.9131 242.478 39.8784 242.891 40.2482C243.303 40.618 243.34 41.2484 242.975 41.6616C242.797 41.863 242.504 42.3596 242.582 42.6478C242.627 42.8162 242.844 42.9933 243.182 43.1478C244.105 42.7224 246.407 41.7918 249.06 41.6894C249.658 41.6651 250.102 41.3265 250.38 40.6806C250.7 39.9305 250.635 39.1214 250.507 38.7915C250.053 38.8522 249.587 38.5901 249.424 38.1474C249.239 37.6369 249.462 37.0812 249.966 36.8798C250.651 36.6055 251.353 36.7461 251.859 37.2462C252.805 38.182 252.786 40.0486 252.287 41.3282C251.722 42.778 250.574 43.6427 249.137 43.6982C246.212 43.8146 243.722 45.1185 243.696 45.1324C243.552 45.2105 243.389 45.2506 243.225 45.2506Z" fill="#1D191F"/>
<path d="M245.743 51.2444C244.359 50.7217 243.515 50.4058 242.625 50.2113C242.187 50.1002 241.739 50.0011 241.208 49.9161C240.678 49.8171 240.096 49.7598 239.35 49.5619C240.087 48.2718 241.667 47.7214 243.159 48.0669C244.639 48.435 245.838 49.7303 245.743 51.2444Z" fill="#1D191F"/>
<path d="M264.036 54.0149C264.658 53.1711 265.59 52.631 266.584 52.3393C267.584 52.032 268.679 52.0061 269.721 52.2318C270.745 52.5026 271.75 52.9245 272.51 53.6416C273.303 54.3031 273.889 55.1696 274.217 56.1436C273.221 55.805 272.418 55.4074 271.602 55.1105C270.804 54.7858 270.022 54.5688 269.241 54.39C268.464 54.1799 267.659 54.1139 266.81 54.0427C265.955 53.9941 265.068 53.9941 264.036 54.0149Z" fill="#1D191F"/>
<path d="M251.621 65.9897C251.557 65.9897 251.494 65.9845 251.428 65.9706C251.291 65.9446 248.048 65.3074 246.16 64.4184C245.505 64.1093 245.061 63.5954 244.879 62.9321C244.47 61.4493 245.538 59.7599 245.757 59.4369L250.726 49.6651C250.771 49.5765 250.83 49.4932 250.898 49.422C251.939 48.3472 252.939 48.2187 253.591 48.2917C255.156 48.4792 256.079 49.9758 256.18 50.146C256.297 50.3457 256.342 50.5783 256.305 50.8058C256.293 50.8805 255.18 58.2025 255.059 61.2531C254.906 65.0869 252.012 65.9202 251.889 65.9532C251.8 65.9775 251.71 65.9897 251.621 65.9897ZM252.445 50.719L247.487 60.4544C247.095 61.0552 246.701 61.9719 246.821 62.399C246.835 62.4494 246.854 62.5206 247.021 62.5987C248.387 63.2446 250.738 63.7708 251.538 63.9392C251.969 63.7343 252.967 63.0572 253.042 61.1715C253.155 58.3969 254.012 52.5126 254.252 50.9048C254.04 50.6478 253.697 50.3266 253.344 50.2866C253.064 50.2589 252.779 50.4013 252.445 50.719Z" fill="#1D191F"/>
<path d="M239.352 53.9559C240.336 53.6469 240.765 53.8361 241.73 54.2146C244.341 55.2373 245.249 59.1422 244.693 60.559C244.136 61.9776 242.325 60.3716 239.713 59.3489C238.866 59.0172 238.776 59.2846 238.065 59.078L239.352 53.9559Z" fill="#3885EF"/>
<path d="M259.96 63.6751C259.668 65.4878 262.878 64.9859 266.64 65.5919C270.403 66.1978 273.292 67.6842 273.584 65.8697C273.876 64.057 271.463 59.6312 267.701 59.0252C263.938 58.4193 260.254 61.8607 259.96 63.6751Z" fill="#3885EF"/>
<path d="M250.55 73.5743C252.821 72.878 254.747 72.5203 256.601 71.9491C257.54 71.7095 258.399 71.3379 259.313 70.9802C260.238 70.6121 261.081 70.0895 262.189 69.5513C261.979 70.7181 261.379 71.8467 260.476 72.6575C259.598 73.4979 258.499 74.1056 257.352 74.4511C256.194 74.7637 255.003 74.8956 253.84 74.7498C252.684 74.6161 251.538 74.2862 250.55 73.5743Z" fill="#1D191F"/>
<path d="M294.747 157.576C294.747 167.181 290.719 174.969 276.272 174.969C266.07 174.969 259.943 167.181 259.943 157.576C259.943 147.971 264.035 140.184 276.272 140.184C288.347 140.184 294.747 147.971 294.747 157.576Z" fill="#3885EF"/>
<path d="M274.49 159.725C274.374 159.725 274.268 159.723 274.167 159.718C273.596 159.688 272.534 159.633 272.237 158.759C271.957 157.938 272.632 157.363 273.124 156.945C273.306 156.789 273.663 156.485 273.79 156.294C273.76 156.276 273.711 156.235 273.64 156.186C272.331 155.271 263.599 155.558 255.914 156.361C255.365 156.419 254.866 156.019 254.809 155.467C254.749 154.915 255.151 154.42 255.706 154.363C258.439 154.076 272.211 152.74 274.793 154.538C275.454 155 275.807 155.554 275.834 156.186C275.864 156.78 275.596 157.275 275.253 157.684C276.09 157.624 277.23 157.488 278.562 157.329C284.382 156.634 294.118 155.471 302.721 157.743C303.258 157.886 303.578 158.436 303.438 158.973C303.295 159.509 302.749 159.831 302.207 159.688C293.977 157.513 284.479 158.646 278.8 159.325C276.886 159.553 275.443 159.725 274.49 159.725Z" fill="#1D191F"/>
<path d="M133.972 42.2341C133.582 42.2341 133.21 42.0068 133.045 41.6248C132.058 39.3225 132.038 34.9174 132.044 34.0267L129.662 25.6664C129.564 25.3331 129.649 24.9755 129.882 24.7185C130.112 24.4615 130.456 24.3399 130.802 24.4007L139.228 25.8748C139.629 25.946 141.648 26.5259 142.022 31.0907C142.191 33.143 142.823 34.5355 143.936 36.3881C144.223 36.8639 144.068 37.4819 143.59 37.7667C143.116 38.0497 142.497 37.8987 142.21 37.4212C140.97 35.3585 140.215 33.6881 140.017 31.2556C139.769 28.2587 138.804 27.8386 138.795 27.8351L132.04 26.6579L134.022 33.6187C134.05 33.7142 134.064 33.8114 134.062 33.9121C134.038 35.2421 134.144 39.0759 134.9 40.8347C135.118 41.3452 134.883 41.9356 134.372 42.1543C134.24 42.2082 134.106 42.2341 133.972 42.2341Z" fill="#1D191F"/>
<path d="M170.893 61.0048C170.715 61.0048 170.54 60.9597 170.378 60.8642C168.083 59.4977 147.88 47.3766 145.171 42.3778C144.995 42.0566 145.009 41.666 145.209 41.3586C145.214 41.3482 146.03 40.0286 146.2 38.0545C146.249 37.5006 146.755 37.0856 147.29 37.1395C147.845 37.1863 148.253 37.6743 148.207 38.2281C148.062 39.8794 147.558 41.1625 147.221 41.8587C150.173 45.972 165.525 55.6345 171.409 59.1366C171.887 59.4213 172.044 60.0377 171.759 60.5152C171.569 60.8295 171.235 61.0048 170.893 61.0048Z" fill="#1D191F"/>
<path d="M273.171 405.208C273.171 405.208 272.218 390.536 271.375 389.816C270.531 389.095 260.597 390.462 258.547 389.442C256.498 388.423 255.361 394.018 254.036 394.71C252.713 395.403 249.939 392.672 251.832 389.18C253.725 385.689 245.948 379.415 243.99 379.568C242.033 379.721 229.634 384.819 220.03 385.373C210.425 385.926 202.807 384.162 200.159 385.55C197.511 386.937 195.075 388.503 198.754 392.738C202.433 396.973 210.964 405.35 222.196 405.456C233.426 405.562 236.045 403.784 237.488 402.098C238.931 400.412 241.064 397.494 242.485 400.529C243.905 403.564 244.031 407.682 246.651 408.462C249.269 409.238 267.311 413.334 273.171 405.208Z" fill="#1D191F"/>
<path d="M256.371 420.152C253.49 420.152 250.757 419.841 248.558 419.296C244.093 418.187 241.295 415.914 238.826 413.91C238.162 413.368 237.509 412.837 236.843 412.347C235.593 411.429 232.579 411.761 229.1 412.141C225.197 412.57 220.337 413.101 215.213 412.29C204.494 410.59 195.168 402.925 192.559 399.688C189.354 395.717 190.662 392.225 192.279 388.989C193.774 385.994 196.255 385.723 197.362 385.99C197.903 386.124 198.232 386.669 198.098 387.208C197.964 387.741 197.434 388.074 196.893 387.945C196.712 387.911 195.187 387.666 194.082 389.887C192.599 392.856 191.66 395.372 194.129 398.428C196.862 401.819 205.946 408.786 215.528 410.304C220.384 411.076 225.094 410.557 228.879 410.142C232.941 409.698 236.154 409.344 238.039 410.729C238.731 411.24 239.407 411.788 240.097 412.349C242.516 414.313 245.016 416.343 249.045 417.344C254.502 418.7 263.415 418.426 268.873 415.626C273.93 413.026 274.756 410.604 272.273 405.656C272.025 405.161 272.226 404.557 272.724 404.307C273.212 404.058 273.822 404.255 274.075 404.756C277.039 410.66 275.799 414.329 269.792 417.412C266.03 419.345 261.012 420.152 256.371 420.152Z" fill="#1D191F"/>
<path d="M247.669 386.435C247.301 386.435 246.946 386.232 246.769 385.882C246.525 385.394 246.713 384.805 247.188 384.546C247.334 384.454 251.87 381.36 256.816 361.004C256.949 360.466 257.489 360.146 258.034 360.264C258.574 360.396 258.905 360.94 258.776 361.48C253.529 383.072 248.659 386.059 248.123 386.33C247.977 386.402 247.824 386.435 247.669 386.435Z" fill="#1D191F"/>
<path d="M268.095 393.443C267.568 393.443 267.125 393.033 267.092 392.5C266.617 384.935 276.629 363.966 277.055 363.077C277.295 362.572 277.9 362.365 278.399 362.603C278.899 362.842 279.113 363.443 278.873 363.945C278.771 364.159 268.662 385.329 269.102 392.373C269.137 392.927 268.714 393.405 268.16 393.439C268.139 393.443 268.118 393.443 268.095 393.443Z" fill="#1D191F"/>
<path d="M275.947 364.67C269.342 364.67 257.474 361.161 251.78 357.843C245.842 354.385 247.638 341.562 249.22 330.248C249.415 328.854 249.606 327.489 249.777 326.175C250.479 320.801 250.297 310.448 250.117 300.433C249.907 288.6 249.709 277.425 250.804 272.78C252.826 264.2 270.296 232.156 271.039 230.799C271.301 230.309 271.917 230.128 272.404 230.397C272.892 230.663 273.073 231.273 272.805 231.76C272.626 232.092 254.723 264.922 252.764 273.241C251.727 277.64 251.934 289.209 252.132 300.396C252.312 310.486 252.496 320.916 251.776 326.435C251.602 327.755 251.411 329.128 251.216 330.528C249.794 340.685 248.024 353.327 252.795 356.107C258.719 359.555 272.654 363.465 277.783 362.521C280.292 362.066 288.853 359.604 293.638 347.064C297.524 336.872 298.606 303.162 298.606 299.658C298.606 298.729 296.947 295.939 295.735 293.902C293.323 289.845 292.211 287.843 293.228 286.711C294.052 285.792 295.466 286.436 296.001 286.678C298.34 287.739 300.497 289.473 302.071 290.739C302.45 291.043 302.876 291.385 303.25 291.668C303.225 291.578 303.203 291.482 303.173 291.378C302.74 289.789 302.253 288.383 301.864 287.254C301.015 284.808 300.549 283.459 301.342 282.552C301.772 282.061 302.439 281.905 303.335 282.084C305.976 282.61 307.414 282.403 308.467 281.353C309.825 279.901 333.685 241.322 335.382 233.091C337.288 223.84 337.122 213.569 335.01 210.194C332.546 206.256 329.551 202.261 329.519 202.219C329.187 201.775 329.278 201.144 329.723 200.813C330.166 200.481 330.797 200.568 331.133 201.014C331.162 201.054 334.207 205.117 336.717 209.13C339.482 213.547 339.108 224.98 337.352 233.495C335.596 242.02 311.383 281.283 309.891 282.773C307.944 284.717 305.421 284.544 302.98 284.061C303.088 284.636 303.444 285.665 303.768 286.596C304.168 287.753 304.667 289.195 305.117 290.847C305.472 292.147 305.741 293.465 304.818 294.067C303.809 294.722 302.747 293.862 300.81 292.305C299.237 291.039 297.276 289.463 295.17 288.506C295.128 288.489 295.092 288.471 295.054 288.456C295.499 289.555 296.648 291.494 297.47 292.876C299.432 296.174 300.621 298.274 300.621 299.658C300.621 300.006 299.838 336.459 295.519 347.78C290.361 361.304 280.916 363.997 278.147 364.502C277.509 364.617 276.77 364.67 275.947 364.67Z" fill="#1D191F"/>
<path d="M367.398 332.927C366.513 332.927 365.701 332.894 364.988 332.838C360.816 332.519 346.311 327.765 333.515 323.571C325.835 321.054 318.578 318.675 314.965 317.725C305.188 315.157 299.082 307.644 298.827 307.327C298.481 306.893 298.55 306.261 298.985 305.915C299.418 305.568 300.049 305.635 300.4 306.07C300.457 306.142 306.364 313.386 315.476 315.782C319.15 316.746 326.433 319.135 334.144 321.663C346.202 325.615 361.21 330.534 365.141 330.838C371.025 331.291 380.989 330.044 384.354 324.763C387.742 319.444 388.161 306.624 387.257 303.457L387.136 303.024C386.058 299.21 383.533 290.276 375.32 287.542C365.03 284.116 347.066 279.197 345.152 279.523C344.754 279.622 344.316 280.6 344.053 281.183C343.65 282.078 343.234 283.001 342.269 283.022C341.25 283.013 340.734 281.965 340.501 281.508C340.139 280.786 339.776 279.921 339.407 279.041C338.847 277.704 337.681 274.922 337.036 274.768C336.396 275.256 335.542 276.339 334.791 277.294C333.181 279.343 332.101 280.682 330.882 280.263C329.82 279.898 329.82 278.549 329.82 278.042C329.82 276.745 330.058 275.514 330.27 274.429C330.816 271.608 330.835 270.635 328.963 269.934C324.505 268.265 323.528 260.886 323.528 258.183C323.528 257.627 323.978 257.177 324.534 257.177C325.091 257.177 325.541 257.627 325.541 258.183C325.541 259.94 326.242 266.767 329.671 268.052C333.292 269.409 332.736 272.278 332.247 274.809C332.065 275.754 331.875 276.728 331.84 277.719C332.279 277.23 332.804 276.563 333.207 276.053C334.116 274.896 334.975 273.806 335.761 273.214C336.469 272.686 337.13 272.71 337.562 272.826C339.167 273.262 340.139 275.58 341.262 278.263C341.579 279.015 341.888 279.756 342.196 280.398C342.201 280.385 342.208 280.372 342.213 280.359C342.679 279.325 343.317 277.907 344.679 277.568C347.243 276.942 369.168 283.378 375.954 285.635C385.18 288.707 388.007 298.713 389.069 302.481L389.189 302.904C390.222 306.511 389.848 319.884 386.051 325.844C382.452 331.492 373.318 332.927 367.398 332.927Z" fill="#1D191F"/>
<path d="M501.784 398.643C501.174 398.643 500.805 398.594 500.722 398.58C500.172 398.495 499.795 397.983 499.88 397.434C499.965 396.886 500.492 396.505 501.023 396.594C501.156 396.61 513.115 398.044 523.773 377.802C532.912 360.436 533.339 355.211 533.211 353.916C532.866 354.15 532.437 354.55 532.042 354.916C531.122 355.77 529.977 356.833 528.464 357.444C526.458 358.25 504.879 376.585 500.463 395.823C500.341 396.365 499.805 396.709 499.258 396.578C498.715 396.455 498.376 395.915 498.501 395.375C503.133 375.199 525.347 356.529 527.713 355.579C528.881 355.109 529.832 354.223 530.672 353.444C531.548 352.631 532.305 351.928 533.218 351.749C533.809 351.636 534.384 351.858 534.756 352.358C537.145 355.562 530.018 370.263 525.555 378.738C515.899 397.078 505.164 398.643 501.784 398.643Z" fill="#1D191F"/>
<path d="M503.324 396.267C503.037 396.267 502.754 396.145 502.554 395.909C502.196 395.482 502.251 394.848 502.676 394.491C502.813 394.376 516.427 382.84 522.324 370.325C522.561 369.825 523.162 369.609 523.663 369.844C524.167 370.08 524.383 370.679 524.145 371.181C518.056 384.1 504.545 395.548 503.973 396.029C503.783 396.19 503.554 396.267 503.324 396.267Z" fill="#1D191F"/>
<path d="M500.939 372.026C500.909 372.026 500.882 372.024 500.854 372.023C500.299 371.977 499.885 371.49 499.934 370.939C501.308 354.425 509.372 337.404 523.907 320.34C524.517 319.625 524.938 319.133 525.11 318.887C525.388 318.484 525.715 317.862 526.066 317.203C527.243 314.991 528.196 313.244 529.575 313.634C530.773 313.966 531.315 315.402 530.952 322.33C530.222 336.271 520.744 363.098 520.344 364.234C520.158 364.758 519.577 365.034 519.058 364.846C518.533 364.659 518.26 364.084 518.444 363.562C518.543 363.287 528.226 335.873 528.942 322.224C529.119 318.833 529.041 317.102 528.93 316.228C528.556 316.814 528.123 317.624 527.843 318.149C527.452 318.887 527.078 319.583 526.765 320.033C526.576 320.307 526.115 320.854 525.44 321.647C511.183 338.382 503.277 355.024 501.94 371.106C501.895 371.628 501.455 372.026 500.939 372.026Z" fill="#1D191F"/>
<path d="M501.448 381.919C501.356 381.919 501.259 381.906 501.165 381.878C500.631 381.723 500.325 381.164 500.483 380.631C506.348 360.601 520.005 335.427 520.143 335.173C520.41 334.689 521.022 334.51 521.509 334.77C521.998 335.036 522.179 335.646 521.913 336.135C521.775 336.385 508.221 361.374 502.415 381.197C502.285 381.635 501.885 381.919 501.448 381.919Z" fill="#1D191F"/>
<path d="M495.41 396.608C495.158 396.608 494.906 396.514 494.711 396.327C494.017 395.658 477.736 379.745 479.633 359.924C481.287 342.642 485.506 326.231 488.845 324.086C489.491 323.672 490.055 323.729 490.411 323.852C492.409 324.54 492.825 327.481 493.351 331.209C493.744 334.002 494.193 337.168 495.333 339.84C498.14 346.426 504.889 376.561 501.267 392.885C501.148 393.427 500.626 393.769 500.066 393.649C499.524 393.53 499.181 392.991 499.301 392.45C502.836 376.526 496.227 347.07 493.482 340.63C492.237 337.711 491.769 334.405 491.357 331.49C491.03 329.174 490.625 326.319 489.869 325.811C488.003 326.997 483.484 340.821 481.638 360.116C479.833 378.981 495.944 394.721 496.107 394.877C496.509 395.262 496.521 395.9 496.135 396.299C495.937 396.506 495.674 396.608 495.41 396.608Z" fill="#1D191F"/>
<path d="M496.728 394.227C496.344 394.227 495.977 394.005 495.81 393.632C487.196 374.435 485.712 347.472 485.698 347.202C485.668 346.648 486.096 346.174 486.649 346.148C486.668 346.146 486.685 346.146 486.703 346.146C487.236 346.146 487.68 346.563 487.707 347.101C487.721 347.367 489.191 373.963 497.648 392.812C497.875 393.319 497.648 393.915 497.14 394.141C497.004 394.2 496.865 394.227 496.728 394.227Z" fill="#1D191F"/>
<path d="M495.544 344.535C495.013 344.535 494.57 344.124 494.539 343.589C492.993 317.102 503.989 294.24 509.272 283.251C510.54 280.619 511.538 278.54 511.872 277.422C513.038 273.517 514.532 272.864 515.552 272.996C517.068 273.196 519.125 275.021 519.49 288.482C519.946 305.46 515.007 335.152 514.958 335.451C514.866 335.999 514.351 336.369 513.798 336.276C513.252 336.184 512.88 335.664 512.972 335.118C513.021 334.822 517.931 305.317 517.477 288.538C517.14 276.012 515.274 274.991 515.255 274.983C515.167 275.052 514.478 275.738 513.803 277.995C513.423 279.268 512.444 281.305 511.087 284.123C505.878 294.955 495.034 317.503 496.547 343.471C496.58 344.025 496.156 344.502 495.601 344.533C495.582 344.535 495.563 344.535 495.544 344.535Z" fill="#1D191F"/>
<path d="M500.461 367.731C499.955 367.731 499.518 367.351 499.461 366.835C499.129 363.822 500.212 359.232 502.178 350.899C503.17 346.704 504.402 341.481 505.793 335.026C509.855 316.211 512.179 290.146 512.202 289.886C512.249 289.334 512.748 288.933 513.294 288.972C513.849 289.021 514.257 289.509 514.208 290.063C514.184 290.323 511.849 316.514 507.763 335.451C506.367 341.924 505.133 347.157 504.138 351.361C502.222 359.476 501.167 363.946 501.462 366.616C501.523 367.168 501.123 367.665 500.572 367.726C500.536 367.729 500.497 367.731 500.461 367.731Z" fill="#1D191F"/>
<path d="M516.055 403.675C515.622 403.675 515.222 403.394 515.092 402.96C514.93 402.43 515.231 401.868 515.765 401.706C516.441 401.501 517.13 401.29 517.816 401.074C517.715 401.019 517.623 400.953 517.535 400.873C517.31 400.668 516.959 400.204 517.128 399.409C517.319 398.527 517.99 397.517 518.64 396.536C518.708 396.435 518.78 396.325 518.854 396.211C515.085 397.622 509.86 399.176 506.251 397.619C505.74 397.399 505.505 396.806 505.726 396.298C505.948 395.787 506.539 395.549 507.049 395.773C510.481 397.256 516.558 394.935 518.554 394.174C519.258 393.903 520.571 393.398 521.269 394.275C521.975 395.153 521.28 396.199 520.32 397.647C519.997 398.131 519.625 398.696 519.372 399.17C519.945 399.036 520.725 398.794 521.356 398.598C523.025 398.077 524.916 397.489 526.503 397.489C526.508 397.489 526.515 397.489 526.522 397.489C527.65 397.491 527.967 398.027 528.033 398.475C528.17 399.414 528.262 400.032 516.347 403.632C516.25 403.661 516.151 403.675 516.055 403.675Z" fill="#1D191F"/>
<path d="M492.025 396.009C491.87 396.009 491.71 395.973 491.56 395.895C491.392 395.806 487.372 393.684 484.148 390.212C482.512 388.448 481.294 388.014 480.756 388.17C480.537 388.232 480.402 388.422 480.348 388.726C480.209 389.507 479.722 389.8 479.445 389.901C478.489 390.262 477.545 389.502 476.455 388.621C476.37 388.555 476.278 388.481 476.18 388.403C476.192 388.524 476.201 388.646 476.211 388.759C476.389 390.783 476.658 393.844 474.478 394.843C473.979 395.074 473.374 394.857 473.143 394.35C472.91 393.844 473.131 393.247 473.636 393.016C474.527 392.608 474.325 390.307 474.205 388.932C474.073 387.432 473.988 386.441 474.817 385.968C475.723 385.456 476.649 386.196 477.717 387.054C477.953 387.245 478.282 387.507 478.562 387.708C478.87 386.986 479.447 386.455 480.186 386.239C481.081 385.977 482.961 385.97 485.628 388.844C488.606 392.058 492.456 394.091 492.494 394.112C492.988 394.37 493.179 394.978 492.918 395.469C492.739 395.813 492.39 396.009 492.025 396.009Z" fill="#1D191F"/>
<path d="M143.283 394.781C141.643 394.781 139.843 394.679 137.922 394.42C130.022 393.354 118.517 389.282 108.563 375.944C92.0716 353.838 91.4335 335.845 91.1605 328.161C91.1188 327.003 91.0892 326.085 91.0075 325.43C90.578 321.975 91.0301 317.865 93.0365 317.002C93.5668 316.773 94.6258 316.596 95.7576 317.966C96.6113 318.999 96.8113 320.213 97.0043 321.386C97.3712 323.616 97.7865 326.142 102.717 328.998C113.002 334.959 147.297 356.947 156.783 389.586C156.938 390.121 156.63 390.678 156.097 390.833C155.558 390.989 155.003 390.68 154.848 390.147C145.574 358.227 111.828 336.605 101.707 330.738C95.9524 327.403 95.4133 324.114 95.0186 321.711C94.8482 320.676 94.7145 319.858 94.2068 319.244C93.9686 318.956 93.8052 318.865 93.7617 318.855C93.4192 319.055 92.5288 321.322 93.0087 325.179C93.0956 325.875 93.1323 326.854 93.1757 328.087C93.4417 335.581 94.0642 353.136 110.18 374.738C119.685 387.477 130.608 391.378 138.098 392.41C146.245 393.528 152.225 391.604 152.282 391.585C152.802 391.408 153.379 391.694 153.555 392.224C153.73 392.752 153.444 393.319 152.915 393.495C152.712 393.566 148.961 394.781 143.283 394.781Z" fill="#1D191F"/>
<path d="M152.819 391.247C152.762 391.247 152.704 391.243 152.649 391.233C152.002 391.123 136.627 388.373 120.063 373.615C103.481 358.839 98.5238 338.75 98.4751 338.55C98.3464 338.01 98.6802 337.468 99.2209 337.338C99.7651 337.22 100.306 337.543 100.434 338.083C100.481 338.278 105.308 357.774 121.405 372.114C137.508 386.463 152.835 389.224 152.99 389.25C153.539 389.344 153.906 389.865 153.812 390.41C153.725 390.901 153.299 391.247 152.819 391.247Z" fill="#1D191F"/>
<path d="M162.663 390.9C162.187 390.9 161.766 390.559 161.676 390.077C161.575 389.53 161.937 389.005 162.483 388.905C162.674 388.87 181.54 384.934 182.323 349.888C183.187 311.216 175.309 292.697 170.519 287.852C169.505 286.828 168.631 286.33 168.191 286.503C166.329 287.246 166.17 295.759 166.077 300.847C165.95 307.658 162.669 314.209 158.129 323.276C156.582 326.368 154.827 329.872 153.016 333.758C146.216 348.359 149.865 373.545 149.902 373.799C149.983 374.348 149.604 374.86 149.053 374.94C148.514 375.028 147.991 374.644 147.911 374.094C147.751 373.04 144.131 348.064 151.188 332.911C153.009 329.001 154.772 325.483 156.326 322.378C160.747 313.548 163.942 307.167 164.061 300.81C164.228 291.79 164.555 285.79 167.441 284.638C169.404 283.852 171.32 285.805 171.95 286.441C178.668 293.236 185.105 315.506 184.336 349.935C183.512 386.738 163.688 390.735 162.844 390.889C162.783 390.894 162.724 390.9 162.663 390.9Z" fill="#1D191F"/>
<path d="M139.172 399.853C139.16 399.853 139.148 399.853 139.138 399.853C133.203 399.648 133 398.595 132.889 398.031C132.75 397.309 133.203 396.71 134.24 396.251C136.149 395.402 137.517 395.482 138.828 395.55C139.899 395.609 140.915 395.665 142.349 395.22C145.013 394.397 145.426 393.395 145.43 393.387C145.552 392.845 146.101 392.543 146.624 392.659C147.167 392.781 147.499 393.352 147.377 393.894C147.301 394.232 146.73 395.972 142.944 397.14C141.162 397.691 139.857 397.618 138.719 397.559C137.931 397.514 137.253 397.479 136.481 397.628C137.289 397.731 138.26 397.809 139.207 397.84C139.762 397.859 140.196 398.325 140.179 398.88C140.158 399.424 139.713 399.853 139.172 399.853Z" fill="#1D191F"/>
<path d="M169.653 394.059C169.382 394.059 169.111 393.95 168.911 393.734C168.535 393.326 168.561 392.689 168.97 392.312C169.625 391.71 170.258 390.991 170.684 390.399C170.649 390.439 170.618 390.475 170.585 390.512C169.867 391.352 168.785 392.625 167.41 391.909C165.697 391.022 165.178 389.053 165.125 388.833C164.995 388.293 165.327 387.751 165.87 387.619C166.416 387.494 166.953 387.822 167.085 388.362C167.174 388.716 167.577 389.73 168.342 390.128C168.345 390.038 168.791 389.517 169.057 389.208C169.792 388.352 171.02 386.911 172.48 387.925C172.923 388.228 173.188 388.694 173.226 389.232C173.337 390.848 171.242 392.962 170.335 393.795C170.142 393.97 169.896 394.059 169.653 394.059Z" fill="#1D191F"/>
<path d="M162.544 386.494C162.404 386.494 162.264 386.464 162.128 386.405C161.622 386.176 161.396 385.581 161.624 385.074C161.78 384.728 177.241 349.893 172.315 308.131C172.247 307.579 172.643 307.081 173.196 307.017C173.735 306.928 174.248 307.347 174.313 307.897C179.31 350.233 163.62 385.551 163.46 385.904C163.293 386.273 162.928 386.494 162.544 386.494Z" fill="#1D191F"/>
<path d="M148.276 369.935C147.912 369.935 147.558 369.737 147.381 369.39C147.247 369.131 134.088 343.028 138.334 303.897C141.015 279.182 146.452 264.149 150.051 254.204C152.065 248.63 153.396 244.95 153.031 242.663C152.842 241.48 151.265 231.071 154.148 229.781C154.733 229.516 155.662 229.488 156.74 230.811C159.772 234.526 168.911 262.653 168.377 285.869C168.363 286.423 167.93 286.86 167.346 286.851C166.791 286.838 166.351 286.378 166.362 285.822C166.899 262.425 157.514 234.945 155.177 232.078C155.067 231.945 154.977 231.849 154.906 231.783C154.386 232.891 154.184 237.127 155.02 242.343C155.467 245.144 154.064 249.019 151.945 254.883C148.379 264.74 142.99 279.637 140.336 304.11C136.157 342.607 149.039 368.214 149.17 368.468C149.423 368.963 149.229 369.567 148.735 369.82C148.589 369.9 148.431 369.935 148.276 369.935Z" fill="#1D191F"/>
<path d="M148.605 347.359C148.062 347.359 147.614 346.929 147.598 346.384C147.588 346.033 147.381 337.563 150.66 319.278C153.915 301.141 157.616 257.64 157.653 257.202C157.7 256.648 158.197 256.259 158.739 256.285C159.294 256.332 159.704 256.818 159.657 257.371C159.621 257.808 155.911 301.403 152.64 319.631C149.403 337.673 149.608 346.239 149.61 346.323C149.625 346.878 149.189 347.34 148.633 347.358C148.624 347.359 148.613 347.359 148.605 347.359Z" fill="#1D191F"/>
<path d="M123.747 346.024C123.465 346.024 123.187 345.908 122.987 345.679C122.841 345.514 108.417 328.781 104.874 306.334C101.332 283.907 99.8644 276.406 97.5833 273.168C96.2567 271.284 96.2027 269.242 97.4511 268.084C98.1396 267.44 100.88 265.74 107.101 270.813C115.297 277.501 134.598 302.061 139.459 318.089C139.621 318.619 139.32 319.181 138.786 319.343C138.26 319.506 137.693 319.205 137.531 318.671C132.854 303.258 113.654 278.758 105.826 272.372C101.906 269.176 99.487 268.94 98.8211 269.556C98.4247 269.926 98.4368 270.888 99.2296 272.011C101.763 275.607 103.208 282.88 106.862 306.022C110.319 327.904 124.364 344.198 124.505 344.361C124.87 344.779 124.828 345.413 124.406 345.779C124.216 345.943 123.983 346.024 123.747 346.024Z" fill="#1D191F"/>
<path d="M145.931 364.399C145.642 364.399 145.353 364.276 145.155 364.037C145.073 363.936 136.656 353.784 125.506 337.593C114.266 321.27 108.264 291.968 108.013 290.728C107.904 290.185 108.257 289.654 108.801 289.544C109.347 289.435 109.877 289.787 109.987 290.331C110.048 290.63 116.159 320.473 127.165 336.454C138.26 352.563 146.621 362.651 146.704 362.752C147.061 363.177 147.002 363.813 146.572 364.169C146.386 364.321 146.16 364.399 145.931 364.399Z" fill="#1D191F"/>
<path d="M116.522 283.269C116.09 283.269 115.69 282.988 115.557 282.552C115.493 282.339 109.152 261.057 107.18 247.203C106.704 243.849 106.25 241.093 105.882 238.852C104.912 232.95 104.548 230.74 105.708 229.616C106.494 228.857 107.624 229.074 107.994 229.149C111.265 229.79 138.777 250.773 145.419 274.989C145.567 275.524 145.251 276.078 144.713 276.225C144.171 276.373 143.621 276.057 143.475 275.52C137.176 252.553 110.614 231.714 107.606 231.122C107.201 231.043 107.071 231.09 107.069 231.089C106.728 231.594 107.257 234.806 107.869 238.527C108.239 240.781 108.693 243.548 109.173 246.922C111.122 260.628 117.421 281.767 117.484 281.978C117.644 282.511 117.34 283.071 116.807 283.231C116.714 283.256 116.618 283.269 116.522 283.269Z" fill="#1D191F"/>
<path d="M138.677 313.303C138.201 313.303 137.778 312.963 137.688 312.479C137.67 312.378 135.751 302.271 127.935 290.914C119.863 279.182 114.975 252.99 114.772 251.882C114.671 251.333 115.033 250.811 115.58 250.71C116.133 250.621 116.651 250.974 116.752 251.517C116.801 251.786 121.765 278.397 129.596 289.777C137.67 301.514 139.593 311.692 139.671 312.119C139.771 312.664 139.407 313.191 138.861 313.29C138.799 313.296 138.738 313.303 138.677 313.303Z" fill="#1D191F"/>
<path d="M150.561 256.759C150.549 256.759 150.535 256.759 150.524 256.759C149.968 256.739 149.535 256.27 149.554 255.716C149.914 246.121 148.726 239.782 145.32 233.104L144.933 232.345C138.209 219.165 130.342 203.332 129.184 197.856C128.436 194.326 127.28 192.971 126.725 192.949C126.725 192.949 126.723 192.947 126.722 192.947C126.607 192.947 125.162 193.069 123.396 198.896C120.416 208.72 127.442 245.34 127.515 245.71C127.619 246.255 127.262 246.783 126.717 246.889C126.179 246.984 125.642 246.639 125.536 246.092C125.24 244.565 118.346 208.61 121.467 198.314C122.971 193.353 124.686 190.937 126.704 190.937C126.739 190.937 126.776 190.938 126.812 190.938C129.417 191.051 130.651 195.06 131.155 197.439C132.407 203.358 142.811 223.754 146.727 231.432L147.115 232.193C150.691 239.202 151.941 245.819 151.569 255.791C151.546 256.334 151.1 256.759 150.561 256.759Z" fill="#1D191F"/>
<path d="M143.359 272.85C142.837 272.85 142.398 272.449 142.356 271.921C142.347 271.793 141.375 259.046 140.419 250.924C139.487 243.003 129.945 227.843 129.848 227.691C129.55 227.222 129.693 226.6 130.163 226.303C130.623 226.01 131.249 226.144 131.552 226.618C131.955 227.255 141.434 242.321 142.419 250.688C143.38 258.854 144.357 271.64 144.368 271.767C144.409 272.32 143.994 272.803 143.439 272.847C143.411 272.85 143.383 272.85 143.359 272.85Z" fill="#1D191F"/>
</svg>
